<?xml version="1.0" encoding="UTF-8" standalone="no"?>
<!-- Created with Inkscape (http://www.inkscape.org/) -->

<svg
   xmlns:dc="http://purl.org/dc/elements/1.1/"
   xmlns:cc="http://creativecommons.org/ns#"
   xmlns:rdf="http://www.w3.org/1999/02/22-rdf-syntax-ns#"
   xmlns:svg="http://www.w3.org/2000/svg"
   xmlns="http://www.w3.org/2000/svg"
   xmlns:sodipodi="http://sodipodi.sourceforge.net/DTD/sodipodi-0.dtd"
   xmlns:inkscape="http://www.inkscape.org/namespaces/inkscape"
   width="310mm"
   height="50mm"
   viewBox="0 0 310 50"
   version="1.1"
   id="svg8269"
   inkscape:version="0.92.2 (5c3e80d, 2017-08-06)"
   sodipodi:docname="2 cloud group.svg">
  <defs
     id="defs8263" />
  <sodipodi:namedview
     id="base"
     pagecolor="#ffffff"
     bordercolor="#666666"
     borderopacity="1.0"
     inkscape:pageopacity="0.0"
     inkscape:pageshadow="2"
     inkscape:zoom="0.7"
     inkscape:cx="171.02484"
     inkscape:cy="294.20161"
     inkscape:document-units="mm"
     inkscape:current-layer="layer1"
     showgrid="false"
     inkscape:window-width="1920"
     inkscape:window-height="1057"
     inkscape:window-x="1592"
     inkscape:window-y="-8"
     inkscape:window-maximized="1" />
  <metadata
     id="metadata8266">
    <rdf:RDF>
      <cc:Work
         rdf:about="">
        <dc:format>image/svg+xml</dc:format>
        <dc:type
           rdf:resource="http://purl.org/dc/dcmitype/StillImage" />
        <dc:title></dc:title>
      </cc:Work>
    </rdf:RDF>
  </metadata>
  <g
     inkscape:label="Layer 1"
     inkscape:groupmode="layer"
     id="layer1"
     transform="translate(0,-247)">
    <path
       id="rect2599-9-4-2"
       d="m 62.967637,258.93591 c -2.917074,0 -5.26538,2.3483 -5.26538,5.26538 H 49.40962 c -2.917071,0 -5.265701,2.3483 -5.265701,5.26537 h -4.377391 c -2.917073,0 -5.26538,2.34863 -5.26538,5.26571 H 25.31793 c -2.917074,0 -5.26538,2.34831 -5.26538,5.26537 H 9.7755503 c -2.917074,0 -5.265378,2.34831 -5.265378,5.2654 v 2.6e-4 c 0,2.91706 2.348304,5.26537 5.265378,5.26537 H 71.480976 c 2.917074,0 5.265378,-2.34831 5.265378,-5.26537 h 23.712836 c 0,2.91706 2.34863,5.26537 5.2657,5.26537 h 20.97466 c 0,2.91708 2.34831,5.26539 5.26538,5.26539 h 23.20111 c 2.91707,0 5.2657,-2.34831 5.2657,-5.26539 h 6.99825 c 2.91708,0 5.26538,-2.34831 5.26538,-5.26537 v -2.6e-4 h 2.63285 c 2.91708,0 5.26538,-2.34831 5.26538,-5.2654 0,-2.91706 -2.3483,-5.26537 -5.26538,-5.26537 h -23.20111 c -2.91707,0 -5.2657,2.34831 -5.2657,5.26537 h -17.71406 c 0,-2.91706 -2.34863,-5.26537 -5.2657,-5.26537 h -9.24059 c 0,-2.91708 -2.3483,-5.26571 -5.26537,-5.26571 h -8.29816 c 0,-2.91707 -2.348616,-5.26537 -5.265696,-5.26537 h -4.37738 c 0,-2.91708 -2.34831,-5.26538 -5.265384,-5.26538 z"
       style="display:inline;opacity:1;vector-effect:none;fill:#d7906f;fill-opacity:1;fill-rule:nonzero;stroke:none;stroke-width:0.94070864;stroke-linecap:round;stroke-linejoin:round;stroke-miterlimit:4;stroke-dasharray:none;stroke-dashoffset:0;stroke-opacity:1;paint-order:markers stroke fill"
       inkscape:connector-curvature="0"
       inkscape:export-filename="R:\DocumentsHDD\CWRU Freshman Year\HackCWRU\HackCWRU 6 mockup groups\V5 top of page.png"
       inkscape:export-xdpi="96"
       inkscape:export-ydpi="96" />
    <path
       id="rect2599-7-5-4-4-9-5-2-34-4-4-9"
       d="m 241.16441,248.31305 c -2.91708,0 -5.26569,2.34831 -5.26569,5.26538 h -11.60057 c -2.91707,0 -5.26537,2.34831 -5.26537,5.26538 h -19.74832 c -2.91708,0 -5.26538,2.34831 -5.26538,5.26538 v 2.6e-4 c -2e-5,2.91708 2.3483,5.26538 5.26538,5.26538 h 11.60055 c 0,2.91708 2.34863,5.26539 5.2657,5.26539 h 23.20111 c 2.91707,0 5.26537,-2.34831 5.26537,-5.26539 h 1.0698 18.16421 c 0.36037,2.56113 2.54892,4.51934 5.21256,4.51934 h 5.65817 c 0,2.91709 2.34828,5.26572 5.26537,5.26572 h 23.2011 c 2.91708,-3e-5 5.26571,-2.34866 5.26571,-5.26574 0,-2.91707 -2.34863,-5.26537 -5.26571,-5.26537 h -5.65817 c 0,-2.91707 -2.34831,-5.2657 -5.26537,-5.2657 h -19.23401 c -0.36052,-2.56095 -2.54873,-4.51934 -5.21222,-4.51934 0,-2.91708 -2.3483,-5.26538 -5.26538,-5.26538 h -1.0698 c 0,-2.91707 -2.3483,-5.26538 -5.26537,-5.26538 z"
       style="display:inline;opacity:1;vector-effect:none;fill:#d7906f;fill-opacity:1;fill-rule:nonzero;stroke:none;stroke-width:0.94070864;stroke-linecap:round;stroke-linejoin:round;stroke-miterlimit:4;stroke-dasharray:none;stroke-dashoffset:0;stroke-opacity:1;paint-order:markers stroke fill"
       inkscape:connector-curvature="0"
       inkscape:export-filename="R:\DocumentsHDD\CWRU Freshman Year\HackCWRU\HackCWRU 6 mockup groups\V5 top of page.png"
       inkscape:export-xdpi="96"
       inkscape:export-ydpi="96" />
  </g>
</svg>
