<?xml version="1.0" encoding="UTF-8"?>
<svg width="1085px" height="181px" viewBox="0 0 1085 181" version="1.1" xmlns="http://www.w3.org/2000/svg" xmlns:xlink="http://www.w3.org/1999/xlink">
    <!-- Generator: Sketch 48.2 (47327) - http://www.bohemiancoding.com/sketch -->
    <title>CoverMyMeds</title>
    <desc>Created with Sketch.</desc>
    <defs></defs>
    <g id="Page-1" stroke="none" stroke-width="1" fill="none" fill-rule="evenodd">
        <g id="CoverMyMeds" fill-rule="nonzero">
            <path d="M72.1,114.4 L72.1,131.7 C63.3,135 54.7,136.6 46.3,136.6 C32.4,136.6 21.4,132.5 13.1,124.3 C4.8,116.1 0.7,105.1 0.7,91.3 C0.7,77.4 4.7,66.1 12.7,57.6 C20.7,49.1 31.3,44.8 44.4,44.8 C49,44.8 53.1,45.2 56.7,46.1 C60.3,47 64.8,48.6 70.1,51 L70.1,69.7 C61.2,64.1 53,61.2 45.4,61.2 C37.5,61.2 31,64 25.9,69.5 C20.8,75.1 18.3,82.1 18.3,90.7 C18.3,99.8 21,107 26.5,112.3 C32,117.6 39.4,120.3 48.7,120.3 C55.7,120.3 63.4,118.3 72.1,114.4" id="Shape" fill="#F47920"></path>
            <path d="M125.6,62.1 C117.2,62.1 110.3,64.9 104.9,70.4 C99.5,75.9 96.8,83 96.8,91.5 C96.8,100 99.6,106.9 105.1,112.3 C110.6,117.7 117.7,120.3 126.4,120.3 C135,120.3 142.1,117.6 147.5,112.2 C153,106.8 155.7,99.8 155.7,91.3 C155.7,82.9 152.8,75.9 147.1,70.4 C141.5,64.9 134.3,62.1 125.6,62.1 M126.6,46.3 C140.1,46.3 151.3,50.6 160.2,59.4 C169.1,68.1 173.6,79 173.6,92.2 C173.6,105 169.1,115.6 160,124 C150.9,132.4 139.5,136.7 125.8,136.7 C112.5,136.7 101.4,132.4 92.5,123.8 C83.6,115.2 79.1,104.5 79.1,91.7 C79.1,78.7 83.6,67.9 92.6,59.3 C101.6,50.6 112.9,46.3 126.6,46.3" id="Shape" fill="#F47920"></path>
            <polygon id="Shape" fill="#F47920" points="237.5 46.5 256.5 46.5 217.3 136.7 211.4 136.7 171.3 46.5 190.5 46.5 214.4 101"></polygon>
            <path d="M275.3,81.9 L319.9,81.9 C319.4,74.9 317.4,69.5 313.6,65.7 C309.8,61.9 304.9,60 298.6,60 C292.3,60 287.2,61.9 283.1,65.7 C279,69.5 276.5,74.9 275.3,81.9 Z M337.2,92.4 L274.9,92.4 C275.3,100.9 278.2,107.6 283.4,112.6 C288.6,117.6 295.4,120.1 303.7,120.1 C315.3,120.1 325.9,116.5 335.7,109.3 L335.7,126.4 C330.3,130 325,132.6 319.7,134.1 C314.4,135.6 308.2,136.4 301.1,136.4 C291.3,136.4 283.4,134.4 277.4,130.3 C271.4,126.3 266.5,120.8 262.9,114 C259.3,107.2 257.5,99.2 257.5,90.3 C257.5,76.8 261.3,65.8 269,57.4 C276.6,49 286.6,44.7 298.8,44.7 C310.6,44.7 319.9,48.8 326.9,57 C333.9,65.2 337.4,76.2 337.4,90 L337.4,92.4 L337.2,92.4 Z" id="Shape" fill="#F47920"></path>
            <path d="M371,46.5 L371,66.8 L372,65.3 C380.5,51.6 389,44.8 397.4,44.8 C404,44.8 410.9,48.1 418.1,54.8 L408.8,70.2 C402.7,64.4 397,61.5 391.8,61.5 C386.2,61.5 381.3,64.2 377.1,69.6 C373,75 370.9,81.4 370.9,88.8 L370.9,135.1 L353.3,135.1 L353.3,46.5 L371,46.5 Z" id="Shape" fill="#F47920"></path>
            <path d="M503,70.8 L503,135.1 L485.4,135.1 L485.4,85.8 C485.4,76 484.1,69.1 481.4,65.2 C478.8,61.3 474.2,59.4 467.6,59.4 C463.9,59.4 460.6,60.2 457.5,61.9 C454.5,63.6 451,66.5 447.1,70.8 L447.1,135.1 L429.6,135.1 L429.6,46.5 L447.1,46.5 L447.1,58.2 C456,49.3 464.8,44.8 473.3,44.8 C484.5,44.8 493.2,50.1 499.4,60.8 C508.8,50 518.6,44.6 528.8,44.6 C537.4,44.6 544.5,47.7 550,54 C555.6,60.3 558.3,69.9 558.3,82.8 L558.3,135.1 L540.8,135.1 L540.8,82.6 C540.8,75.2 539.3,69.6 536.3,65.6 C533.3,61.7 528.9,59.7 523.3,59.7 C516,59.8 509.3,63.5 503,70.8" id="Shape" fill="#ED145B"></path>
            <polygon id="Shape" fill="#ED145B" points="629.9 46.5 649.6 46.5 586.8 180.3 567.2 180.3 597.3 116.1 563.1 46.5 583.1 46.5 607 96.6"></polygon>
            <path d="M734.5,70.8 L734.5,135.1 L716.9,135.1 L716.9,85.8 C716.9,76 715.6,69.1 713,65.2 C710.4,61.3 705.8,59.4 699.2,59.4 C695.5,59.4 692.2,60.2 689.1,61.9 C686,63.6 682.6,66.5 678.6,70.8 L678.6,135.1 L661.1,135.1 L661.1,46.5 L678.6,46.5 L678.6,58.2 C687.5,49.3 696.3,44.8 704.8,44.8 C716,44.8 724.7,50.1 730.9,60.8 C740.3,50 750.1,44.6 760.3,44.6 C768.9,44.6 776,47.7 781.5,54 C787.1,60.3 789.8,69.9 789.8,82.8 L789.8,135.1 L772.3,135.1 L772.3,82.6 C772.3,75.2 770.8,69.6 767.8,65.6 C764.8,61.7 760.4,59.7 754.8,59.7 C747.6,59.8 740.8,63.5 734.5,70.8" id="Shape" fill="#F47920"></path>
            <path d="M815.8,81.9 L860.4,81.9 C859.9,74.9 857.9,69.5 854.1,65.7 C850.4,61.9 845.4,60 839.1,60 C832.8,60 827.7,61.9 823.6,65.7 C819.6,69.5 817,74.9 815.8,81.9 Z M877.7,92.4 L815.4,92.4 C815.9,100.9 818.7,107.6 823.9,112.6 C829.1,117.6 835.9,120.1 844.2,120.1 C855.8,120.1 866.4,116.5 876.2,109.3 L876.2,126.4 C870.8,130 865.5,132.6 860.2,134.1 C854.9,135.6 848.7,136.4 841.6,136.4 C831.8,136.4 823.9,134.4 817.9,130.3 C811.9,126.3 807,120.8 803.4,114 C799.8,107.2 798,99.2 798,90.3 C798,76.8 801.8,65.8 809.5,57.4 C817.1,49 827.1,44.7 839.3,44.7 C851.1,44.7 860.4,48.8 867.4,57 C874.4,65.2 877.9,76.2 877.9,90 L877.9,92.4 L877.7,92.4 Z" id="Shape" fill="#F47920"></path>
            <path d="M947.9,120.1 L947.9,63.9 C942.4,61.1 936.9,59.8 931.3,59.8 C922.6,59.8 915.6,62.7 910.4,68.4 C905.2,74.1 902.6,81.8 902.6,91.5 C902.6,100.6 904.8,107.7 909.3,112.6 C912,115.6 914.9,117.5 917.9,118.6 C920.9,119.6 926.3,120.1 934.2,120.1 L947.9,120.1 Z M947.9,0.6 L965.5,0.6 L965.5,135.2 L928,135.2 C914.9,135.2 904.5,131.1 896.7,122.8 C888.9,114.5 885,103.4 885,89.5 C885,76.5 889.1,65.7 897.3,57.3 C905.5,48.9 915.9,44.7 928.6,44.7 C934.5,44.7 940.9,46 947.9,48.5 L947.9,0.6 Z" id="Shape" fill="#F47920"></path>
            <path d="M977.1,128.8 L977.1,109.9 C982,113.4 987.1,116.2 992.3,118.3 C997.5,120.4 1001.8,121.5 1005.4,121.5 C1009.1,121.5 1012.2,120.6 1014.8,118.8 C1017.4,117 1018.7,114.8 1018.7,112.3 C1018.7,109.7 1017.8,107.6 1016.1,105.9 C1014.4,104.2 1010.7,101.7 1005.1,98.5 C993.8,92.2 986.4,86.8 982.9,82.4 C979.4,77.9 977.6,73.1 977.6,67.8 C977.6,61 980.3,55.4 985.5,51.1 C990.8,46.8 997.6,44.6 1006,44.6 C1014.7,44.6 1023.6,47 1032.7,51.9 L1032.7,69.2 C1022.3,62.9 1013.8,59.8 1007.2,59.8 C1003.8,59.8 1001.1,60.5 999,62 C996.9,63.4 995.9,65.4 995.9,67.7 C995.9,69.8 996.8,71.7 998.7,73.6 C1000.6,75.5 1003.9,77.7 1008.7,80.3 L1015,83.9 C1029.8,92.2 1037.2,101.5 1037.2,111.6 C1037.2,118.9 1034.4,124.8 1028.7,129.5 C1023,134.2 1015.7,136.5 1006.8,136.5 C1001.5,136.5 996.8,135.9 992.7,134.8 C988.5,133.9 983.4,131.8 977.1,128.8" id="Shape" fill="#F47920"></path>
            <path d="M1063.1,53.5 L1066.4,53.5 C1070,53.5 1071.4,54.4 1071.4,56.4 C1071.4,58.1 1070.6,59.5 1066.4,59.5 L1063.1,59.5 L1063.1,53.5 Z M1060.5,51.4 L1060.5,69.5 L1063.1,69.5 L1063.1,61.7 L1065,61.7 C1068.2,61.7 1069.2,64.3 1069.5,64.8 L1072.1,69.4 L1075.2,69.4 L1072.9,65.4 C1072.1,64 1071.2,62 1069,61.3 C1072.6,60.8 1074.3,59 1074.3,56.2 C1074.3,54.6 1073.3,51.3 1067.8,51.3 L1060.5,51.3 L1060.5,51.4 Z M1082.2,60.2 C1082.2,68.1 1075.8,74.7 1067.7,74.7 C1059.6,74.7 1053.1,68.2 1053.1,60.2 C1053.1,52.2 1059.6,45.6 1067.7,45.6 C1075.8,45.6 1082.2,52.2 1082.2,60.2 Z M1084.6,60.2 C1084.6,50.9 1077.1,43.2 1067.6,43.2 C1058.2,43.2 1050.6,50.8 1050.6,60.2 C1050.6,69.6 1058.2,77.2 1067.6,77.2 C1077.2,77.2 1084.6,69.5 1084.6,60.2 Z" id="Shape" fill="#F47920"></path>
        </g>
    </g>
</svg>