<?xml version="1.0" encoding="UTF-8"?>
<svg width="504px" height="239px" viewBox="0 0 504 239" version="1.1" xmlns="http://www.w3.org/2000/svg" xmlns:xlink="http://www.w3.org/1999/xlink">
    <!-- Generator: Sketch 48.2 (47327) - http://www.bohemiancoding.com/sketch -->
    <title>etsy_logo_cmyk</title>
    <desc>Created with Sketch.</desc>
    <defs>
        <polygon id="path-1" points="0 0.25 503.5 0.25 503.5 238.94 0 238.94"></polygon>
    </defs>
    <g id="Page-1" stroke="none" stroke-width="1" fill="none" fill-rule="evenodd">
        <g id="etsy_logo_cmyk">
            <mask id="mask-2" fill="white">
                <use xlink:href="#path-1"></use>
            </mask>
            <g id="Clip-2"></g>
            <path d="M202.5,26 C197.25,56.25 182.75,67.25 165,69.25 L165,78 L187.25,78 L187.25,154.75 C187.25,176.25 201.5,186.75 220.5,186.75 C235.25,186.75 250.5,180.5 255.75,167.5 L250.5,160.75 C248,165 240,171.25 230,171.25 C219,171.25 213,163.75 213,144.75 L213,77 L250,79.75 L252,62.75 L213,64.25 L213,26 L202.5,26 Z M281.25,144 L271.75,144.25 C273,156.25 273.25,168.25 271.75,179.25 C271.75,179.25 290.75,186.25 310,186.25 C336,186.25 356.75,173.75 356.75,149.5 C356.75,107 293.75,113.75 293.75,85.25 C293.75,73.5 304.5,69 315.5,69 C324.75,69 332.25,72.25 333.75,77 L340,95.75 L349.25,95.25 C349.75,85.25 350.5,73.75 352,64.5 C344,61 327.25,59 316.75,59 C292.25,59 272.5,69.75 272.5,93.75 C272.5,135.75 334,126.5 334,158 C334,168.5 327.25,176.5 312.25,176.5 C298,176.5 291,169.25 288.25,162 L281.25,144 Z M383.5,224.75 C376,224.75 373.75,221.25 372.75,216.25 L369,196.75 L358.5,197.25 C357,208.75 354.75,221.75 351.75,232 C358.75,236.75 367.25,239 378.75,239 C395.75,239 421.25,234.25 444.25,180 L484.25,85.25 C487.5,77.75 488.5,76.75 498.25,73 L503.5,71 L503.5,62.25 L479.75,63.5 L454.5,62.25 L454.5,71 L461,73 C467.5,75 470.5,77.25 470.5,82.5 C470.5,85.25 469.75,86.5 468.25,90 C465.5,97 447.75,140.75 439,159.75 C428,132.25 413,91.25 411.25,85.25 C410.75,83.75 410.5,82.5 410.5,81.25 C410.5,77.25 413.25,74 419.25,72.75 L427.5,71 L427.5,62.25 L393.25,63.5 L366,62.25 L366,71 L370.5,72.5 C377,74.75 377.75,75.5 382,85 C399.25,124 418.5,173.75 424.75,190 C411.25,217.25 395.25,224.75 383.5,224.75 Z M54,19 C54,16.5 54.25,15 58.5,15 L115.75,15 C125.75,15 131.25,23.5 135.25,39.5 L138.5,52.25 L148.25,52.25 C150,16 151.5,0.25 151.5,0.25 C151.5,0.25 127,3 112.5,3 L39.25,3 L0,1.75 L0,12.25 L13.25,14.75 C22.5,16.5 24.75,18.5 25.5,27 C25.5,27 26.25,52 26.25,93.25 C26.25,134.5 25.5,159.25 25.5,159.25 C25.5,166.75 22.5,169.5 13.25,171.25 L0,173.75 L0,184.25 L39.25,183 L104.75,183 C119.5,183 153.75,184.25 153.75,184.25 C154.5,175.25 159.5,134.5 160.25,130 L151,130 L141.25,152.25 C133.5,169.75 122.25,171 109.75,171 L72.5,171 C60,171 54,166 54,155.25 L54,98.25 C54,98.25 81.75,98.25 90.75,99 C97.75,99.5 102,101.5 104.25,111.25 L107.25,124.25 L118,124.25 L117.25,91.5 L118.75,58.5 L108,58.5 L104.5,73 C102.25,82.5 100.75,84.25 91,85.25 C78.25,86.5 54,86.25 54,86.25 L54,19 Z" id="Fill-1" fill="#E15B29" mask="url(#mask-2)"></path>
        </g>
    </g>
</svg>