<?xml version="1.0" encoding="UTF-8"?>
<svg width="235px" height="80px" viewBox="0 0 235 80" version="1.1" xmlns="http://www.w3.org/2000/svg" xmlns:xlink="http://www.w3.org/1999/xlink">
    <!-- Generator: Sketch 48.2 (47327) - http://www.bohemiancoding.com/sketch -->
    <title>Keithley%2FTektronix</title>
    <desc>Created with Sketch.</desc>
    <defs></defs>
    <g id="Page-1" stroke="none" stroke-width="1" fill="none" fill-rule="evenodd">
        <g id="Keithley%2FTektronix">
            <path d="M46.404,61.321 L49.005,61.321 L54.386,75.832 L51.764,75.832 L50.453,71.992 L44.877,71.992 L43.566,75.832 L41.043,75.832 L46.404,61.321 Z M45.542,70.061 L49.809,70.061 L47.714,63.821 L47.656,63.821 L45.542,70.061 Z" id="Fill-14" fill="#0A0B09"></path>
            <polyline id="Fill-15" fill="#0A0B09" points="59.825 61.321 71.133 61.321 71.133 63.516 66.691 63.516 66.691 75.832 64.247 75.832 64.247 63.516 59.825 63.516 59.825 61.321"></polyline>
            <path d="M72.009,71.178 C72.009,71.585 72.065,71.977 72.175,72.357 C72.285,72.736 72.451,73.068 72.673,73.353 C72.896,73.636 73.176,73.865 73.515,74.033 C73.854,74.204 74.258,74.287 74.727,74.287 C75.381,74.287 75.906,74.141 76.303,73.852 C76.7,73.56 76.999,73.122 77.194,72.541 L79.306,72.541 C79.19,73.109 78.985,73.618 78.7,74.065 C78.413,74.512 78.067,74.886 77.663,75.192 C77.259,75.497 76.806,75.728 76.303,75.883 C75.8,76.038 75.275,76.117 74.727,76.117 C73.933,76.117 73.228,75.982 72.615,75.71 C72.002,75.439 71.484,75.059 71.06,74.572 C70.635,74.085 70.316,73.501 70.101,72.824 C69.886,72.146 69.778,71.403 69.778,70.588 C69.778,69.843 69.892,69.136 70.121,68.464 C70.348,67.793 70.676,67.205 71.1,66.696 C71.522,66.188 72.036,65.784 72.635,65.488 C73.235,65.189 73.913,65.041 74.669,65.041 C75.466,65.041 76.18,65.212 76.813,65.558 C77.443,65.903 77.969,66.361 78.386,66.931 C78.804,67.499 79.107,68.152 79.297,68.891 C79.486,69.629 79.535,70.393 79.443,71.178 L72.009,71.178 Z M77.212,69.654 C77.187,69.288 77.111,68.936 76.988,68.597 C76.864,68.258 76.694,67.964 76.478,67.712 C76.265,67.463 76.002,67.259 75.697,67.102 C75.39,66.947 75.048,66.868 74.669,66.868 C74.278,66.868 73.924,66.94 73.603,67.082 C73.284,67.225 73.01,67.421 72.781,67.672 C72.552,67.923 72.37,68.217 72.233,68.556 C72.097,68.895 72.022,69.261 72.009,69.654 L77.212,69.654 Z" id="Fill-16" fill="#0A0B09"></path>
            <polyline id="Fill-17" fill="#0A0B09" points="81.204 61.321 83.436 61.321 83.436 69.572 87.465 65.325 90.203 65.325 86.331 69.186 90.576 75.832 87.855 75.832 84.764 70.73 83.436 72.073 83.436 75.832 81.204 75.832 81.204 61.321"></polyline>
            <path d="M90.634,65.325 L92.318,65.325 L92.318,62.173 L94.546,62.173 L94.546,65.325 L96.562,65.325 L96.562,67.053 L94.546,67.053 L94.546,72.662 C94.546,72.905 94.558,73.116 94.576,73.291 C94.596,73.468 94.641,73.616 94.713,73.74 C94.784,73.861 94.892,73.953 95.036,74.014 C95.179,74.074 95.375,74.103 95.624,74.103 C95.779,74.103 95.936,74.101 96.093,74.095 C96.25,74.088 96.405,74.065 96.562,74.023 L96.562,75.812 C96.313,75.839 96.073,75.866 95.837,75.892 C95.604,75.919 95.361,75.933 95.114,75.933 C94.526,75.933 94.055,75.877 93.696,75.76 C93.337,75.646 93.056,75.477 92.854,75.253 C92.652,75.031 92.515,74.748 92.443,74.409 C92.371,74.072 92.329,73.684 92.318,73.251 L92.318,67.053 L90.634,67.053 L90.634,65.325" id="Fill-18" fill="#0A0B09"></path>
            <path d="M98.166,65.325 L100.26,65.325 L100.26,67.356 L100.299,67.356 C100.364,67.073 100.492,66.795 100.68,66.523 C100.869,66.252 101.098,66.005 101.365,65.782 C101.632,65.558 101.928,65.378 102.256,65.244 C102.581,65.107 102.914,65.039 103.253,65.039 C103.513,65.039 103.693,65.046 103.791,65.06 C103.888,65.073 103.989,65.087 104.094,65.1 L104.094,67.336 C103.937,67.309 103.778,67.286 103.614,67.266 C103.452,67.244 103.293,67.235 103.136,67.235 C102.757,67.235 102.402,67.313 102.07,67.468 C101.737,67.625 101.446,67.854 101.199,68.16 C100.952,68.465 100.754,68.84 100.611,69.289 C100.467,69.735 100.397,70.249 100.397,70.833 L100.397,75.832 L98.166,75.832 L98.166,65.325" id="Fill-19" fill="#0A0B09"></path>
            <path d="M109.344,76.117 C108.536,76.117 107.816,75.978 107.183,75.699 C106.55,75.423 106.015,75.04 105.578,74.552 C105.14,74.065 104.808,73.482 104.581,72.804 C104.352,72.126 104.238,71.381 104.238,70.568 C104.238,69.769 104.352,69.031 104.581,68.353 C104.808,67.675 105.14,67.093 105.578,66.606 C106.015,66.117 106.55,65.735 107.183,65.457 C107.816,65.179 108.536,65.039 109.344,65.039 C110.152,65.039 110.873,65.179 111.506,65.457 C112.139,65.735 112.673,66.117 113.111,66.606 C113.546,67.093 113.881,67.675 114.107,68.353 C114.336,69.031 114.451,69.769 114.451,70.568 C114.451,71.381 114.336,72.126 114.107,72.804 C113.881,73.482 113.546,74.065 113.111,74.552 C112.673,75.04 112.139,75.423 111.506,75.699 C110.873,75.978 110.152,76.117 109.344,76.117 M109.344,74.288 C109.84,74.288 110.271,74.18 110.635,73.962 C111.001,73.747 111.302,73.462 111.535,73.109 C111.771,72.757 111.944,72.359 112.054,71.919 C112.164,71.479 112.22,71.028 112.22,70.568 C112.22,70.121 112.164,69.675 112.054,69.226 C111.944,68.779 111.771,68.384 111.535,68.038 C111.302,67.693 111.001,67.412 110.635,67.194 C110.271,66.979 109.84,66.869 109.344,66.869 C108.848,66.869 108.417,66.979 108.054,67.194 C107.688,67.412 107.387,67.693 107.153,68.038 C106.918,68.384 106.745,68.779 106.635,69.226 C106.523,69.675 106.469,70.121 106.469,70.568 C106.469,71.028 106.523,71.479 106.635,71.919 C106.745,72.359 106.918,72.757 107.153,73.109 C107.387,73.462 107.688,73.747 108.054,73.962 C108.417,74.18 108.848,74.288 109.344,74.288" id="Fill-20" fill="#0A0B09"></path>
            <path d="M116.309,65.325 L118.421,65.325 L118.421,66.869 L118.462,66.909 C118.801,66.328 119.243,65.87 119.791,65.538 C120.338,65.206 120.947,65.039 121.611,65.039 C122.72,65.039 123.593,65.338 124.233,65.935 C124.872,66.53 125.191,67.426 125.191,68.618 L125.191,75.832 L122.96,75.832 L122.96,69.226 C122.935,68.4 122.765,67.8 122.453,67.428 C122.138,67.055 121.649,66.869 120.985,66.869 C120.608,66.869 120.269,66.941 119.968,67.082 C119.667,67.226 119.413,67.421 119.205,67.672 C118.996,67.922 118.832,68.218 118.715,68.557 C118.599,68.896 118.54,69.255 118.54,69.632 L118.54,75.832 L116.309,75.832 L116.309,65.325" id="Fill-21" fill="#0A0B09"></path>
            <path d="M127.599,63.514 L129.83,63.514 L129.83,61.321 L127.599,61.321 L127.599,63.514 Z M127.599,75.831 L129.83,75.831 L129.83,65.324 L127.599,65.324 L127.599,75.831 Z" id="Fill-22" fill="#0A0B09"></path>
            <polyline id="Fill-23" fill="#0A0B09" points="134.973 70.304 131.472 65.325 134.172 65.325 136.284 68.556 138.495 65.325 141.077 65.325 137.633 70.183 141.508 75.833 138.827 75.833 136.264 71.95 133.779 75.833 131.157 75.833 134.973 70.304"></polyline>
            <path d="M157.941,65.934 C157.838,65.514 157.694,65.128 157.51,64.776 C157.329,64.424 157.093,64.118 156.808,63.86 C156.52,63.604 156.184,63.404 155.8,63.261 C155.414,63.119 154.967,63.048 154.46,63.048 C153.715,63.048 153.073,63.205 152.532,63.514 C151.991,63.826 151.551,64.244 151.212,64.765 C150.873,65.288 150.621,65.88 150.458,66.545 C150.296,67.207 150.213,67.885 150.213,68.576 C150.213,69.268 150.296,69.945 150.458,70.61 C150.621,71.272 150.873,71.867 151.212,72.388 C151.551,72.908 151.991,73.326 152.532,73.638 C153.073,73.95 153.715,74.105 154.46,74.105 C155.007,74.105 155.49,74.006 155.908,73.811 C156.323,73.613 156.682,73.342 156.983,72.996 C157.284,72.653 157.517,72.249 157.688,71.788 C157.856,71.328 157.968,70.832 158.02,70.305 L160.406,70.305 C160.354,71.171 160.175,71.963 159.869,72.682 C159.562,73.4 159.149,74.02 158.626,74.543 C158.105,75.063 157.492,75.467 156.788,75.75 C156.083,76.035 155.306,76.179 154.46,76.179 C153.416,76.179 152.48,75.977 151.652,75.577 C150.823,75.178 150.123,74.632 149.548,73.943 C148.974,73.252 148.534,72.446 148.229,71.523 C147.921,70.603 147.768,69.62 147.768,68.576 C147.768,67.546 147.921,66.572 148.229,65.649 C148.534,64.729 148.974,63.923 149.548,63.232 C150.123,62.54 150.823,61.99 151.652,61.584 C152.48,61.178 153.416,60.976 154.46,60.976 C155.241,60.976 155.977,61.088 156.671,61.31 C157.362,61.535 157.97,61.858 158.498,62.287 C159.028,62.713 159.454,63.232 159.78,63.84 C160.107,64.45 160.309,65.149 160.388,65.934 L157.941,65.934" id="Fill-24" fill="#0A0B09"></path>
            <path d="M166.96,76.117 C166.152,76.117 165.432,75.978 164.799,75.699 C164.166,75.423 163.632,75.04 163.194,74.552 C162.756,74.065 162.424,73.482 162.197,72.804 C161.968,72.126 161.854,71.381 161.854,70.568 C161.854,69.769 161.968,69.031 162.197,68.353 C162.424,67.675 162.756,67.093 163.194,66.606 C163.632,66.117 164.166,65.735 164.799,65.457 C165.432,65.179 166.152,65.039 166.96,65.039 C167.768,65.039 168.489,65.179 169.122,65.457 C169.755,65.735 170.289,66.117 170.727,66.606 C171.162,67.093 171.497,67.675 171.724,68.353 C171.953,69.031 172.067,69.769 172.067,70.568 C172.067,71.381 171.953,72.126 171.724,72.804 C171.497,73.482 171.162,74.065 170.727,74.552 C170.289,75.04 169.755,75.423 169.122,75.699 C168.489,75.978 167.768,76.117 166.96,76.117 M166.96,74.288 C167.456,74.288 167.885,74.18 168.251,73.962 C168.617,73.747 168.918,73.462 169.151,73.109 C169.387,72.757 169.56,72.359 169.67,71.919 C169.782,71.479 169.836,71.028 169.836,70.568 C169.836,70.121 169.782,69.675 169.67,69.226 C169.56,68.779 169.387,68.384 169.151,68.038 C168.918,67.693 168.617,67.412 168.251,67.194 C167.885,66.979 167.456,66.869 166.96,66.869 C166.464,66.869 166.033,66.979 165.67,67.194 C165.304,67.412 165.003,67.693 164.77,68.038 C164.534,68.384 164.361,68.779 164.251,69.226 C164.139,69.675 164.085,70.121 164.085,70.568 C164.085,71.028 164.139,71.479 164.251,71.919 C164.361,72.359 164.534,72.757 164.77,73.109 C165.003,73.462 165.304,73.747 165.67,73.962 C166.033,74.18 166.464,74.288 166.96,74.288" id="Fill-25" fill="#0A0B09"></path>
            <path d="M173.925,65.325 L176.037,65.325 L176.037,66.788 L176.098,66.788 C176.266,66.53 176.448,66.294 176.645,66.077 C176.841,65.859 177.058,65.677 177.301,65.527 C177.541,65.378 177.819,65.259 178.131,65.172 C178.446,65.084 178.802,65.039 179.206,65.039 C179.819,65.039 180.392,65.183 180.919,65.466 C181.447,65.751 181.822,66.191 182.044,66.788 C182.423,66.247 182.859,65.818 183.355,65.509 C183.851,65.197 184.47,65.039 185.213,65.039 C186.284,65.039 187.114,65.311 187.709,65.852 C188.302,66.395 188.598,67.302 188.598,68.577 L188.598,75.832 L186.367,75.832 L186.367,69.695 C186.367,69.275 186.354,68.891 186.329,68.546 C186.302,68.2 186.228,67.901 186.104,67.652 C185.979,67.401 185.795,67.208 185.545,67.073 C185.299,66.936 184.96,66.869 184.529,66.869 C183.772,66.869 183.224,67.114 182.885,67.601 C182.547,68.088 182.376,68.779 182.376,69.675 L182.376,75.832 L180.147,75.832 L180.147,69.084 C180.147,68.353 180.019,67.8 179.765,67.428 C179.512,67.055 179.045,66.869 178.367,66.869 C178.08,66.869 177.801,66.929 177.534,67.053 C177.267,67.174 177.031,67.349 176.829,67.58 C176.627,67.812 176.466,68.094 176.342,68.433 C176.217,68.772 176.156,69.158 176.156,69.592 L176.156,75.832 L173.925,75.832 L173.925,65.325" id="Fill-26" fill="#0A0B09"></path>
            <path d="M191.005,65.325 L193.117,65.325 L193.117,66.748 L193.157,66.748 C193.469,66.137 193.907,65.699 194.468,65.437 C195.029,65.172 195.635,65.039 196.286,65.039 C197.083,65.039 197.777,65.185 198.37,65.477 C198.964,65.769 199.456,66.169 199.847,66.676 C200.239,67.183 200.533,67.778 200.729,68.454 C200.924,69.132 201.023,69.857 201.023,70.629 C201.023,71.334 200.933,72.018 200.758,72.683 C200.581,73.347 200.313,73.933 199.957,74.44 C199.597,74.947 199.144,75.354 198.596,75.659 C198.049,75.964 197.402,76.117 196.659,76.117 C196.334,76.117 196.006,76.086 195.68,76.025 C195.355,75.964 195.041,75.866 194.742,75.731 C194.441,75.596 194.165,75.423 193.909,75.212 C193.656,75.004 193.445,74.754 193.274,74.469 L193.236,74.469 L193.236,79.715 L191.005,79.715 L191.005,65.325 Z M198.792,70.588 C198.792,70.115 198.733,69.655 198.616,69.206 C198.497,68.759 198.322,68.364 198.087,68.018 C197.851,67.672 197.559,67.394 197.207,67.183 C196.854,66.974 196.45,66.869 195.992,66.869 C195.054,66.869 194.347,67.208 193.871,67.886 C193.395,68.564 193.157,69.464 193.157,70.588 C193.157,71.118 193.218,71.607 193.344,72.063 C193.467,72.517 193.651,72.905 193.9,73.23 C194.147,73.556 194.446,73.814 194.789,74.002 C195.135,74.193 195.537,74.288 195.992,74.288 C196.502,74.288 196.933,74.18 197.285,73.962 C197.638,73.747 197.927,73.464 198.156,73.118 C198.383,72.775 198.547,72.382 198.643,71.94 C198.742,71.5 198.792,71.048 198.792,70.588 Z" id="Fill-27" fill="#0A0B09"></path>
            <path d="M211.371,73.495 C211.371,73.78 211.407,73.982 211.479,74.106 C211.551,74.227 211.69,74.287 211.899,74.287 L212.135,74.287 C212.224,74.287 212.33,74.274 212.447,74.247 L212.447,75.852 C212.368,75.879 212.267,75.91 212.144,75.944 C212.02,75.978 211.892,76.009 211.762,76.036 C211.632,76.063 211.502,76.083 211.371,76.097 C211.241,76.11 211.129,76.117 211.039,76.117 C210.581,76.117 210.204,76.022 209.903,75.832 C209.605,75.643 209.407,75.311 209.317,74.837 C208.873,75.284 208.33,75.609 207.683,75.811 C207.037,76.016 206.415,76.117 205.816,76.117 C205.358,76.117 204.922,76.052 204.505,75.924 C204.087,75.796 203.717,75.605 203.398,75.356 C203.08,75.104 202.826,74.786 202.635,74.4 C202.447,74.013 202.352,73.562 202.352,73.048 C202.352,72.397 202.467,71.87 202.693,71.464 C202.922,71.055 203.223,70.738 203.594,70.507 C203.966,70.276 204.384,70.11 204.846,70.009 C205.308,69.908 205.775,69.829 206.245,69.776 C206.649,69.695 207.035,69.636 207.401,69.603 C207.764,69.569 208.087,69.511 208.368,69.43 C208.649,69.349 208.871,69.223 209.032,69.055 C209.196,68.884 209.277,68.631 209.277,68.292 C209.277,67.993 209.21,67.751 209.073,67.56 C208.936,67.371 208.765,67.226 208.563,67.122 C208.361,67.021 208.137,66.954 207.888,66.92 C207.641,66.887 207.407,66.869 207.185,66.869 C206.559,66.869 206.042,67.006 205.638,67.275 C205.234,67.547 205.005,67.966 204.954,68.536 L202.725,68.536 C202.763,67.859 202.92,67.295 203.194,66.848 C203.468,66.402 203.816,66.043 204.24,65.771 C204.664,65.502 205.142,65.311 205.679,65.203 C206.213,65.093 206.761,65.039 207.322,65.039 C207.818,65.039 208.305,65.093 208.788,65.203 C209.27,65.311 209.706,65.486 210.09,65.731 C210.473,65.975 210.783,66.29 211.019,66.676 C211.255,67.062 211.371,67.533 211.371,68.09 L211.371,73.495 Z M209.14,70.568 C208.801,70.799 208.384,70.938 207.888,70.985 C207.394,71.033 206.898,71.104 206.402,71.199 C206.166,71.239 205.939,71.297 205.717,71.372 C205.495,71.446 205.299,71.547 205.131,71.677 C204.961,71.805 204.826,71.975 204.729,72.184 C204.631,72.395 204.581,72.649 204.581,72.947 C204.581,73.203 204.653,73.421 204.797,73.596 C204.94,73.773 205.113,73.912 205.315,74.013 C205.517,74.114 205.739,74.186 205.982,74.227 C206.222,74.267 206.44,74.287 206.637,74.287 C206.884,74.287 207.151,74.254 207.439,74.186 C207.726,74.119 207.998,74.002 208.251,73.841 C208.505,73.679 208.716,73.473 208.886,73.221 C209.055,72.97 209.14,72.662 209.14,72.296 L209.14,70.568 Z" id="Fill-28" fill="#0A0B09"></path>
            <path d="M213.777,65.325 L215.889,65.325 L215.889,66.869 L215.93,66.909 C216.269,66.328 216.713,65.87 217.259,65.538 C217.806,65.206 218.415,65.039 219.079,65.039 C220.188,65.039 221.061,65.338 221.701,65.935 C222.341,66.53 222.659,67.426 222.659,68.618 L222.659,75.832 L220.43,75.832 L220.43,69.226 C220.403,68.4 220.233,67.8 219.921,67.428 C219.607,67.055 219.12,66.869 218.453,66.869 C218.076,66.869 217.737,66.941 217.436,67.082 C217.135,67.226 216.882,67.421 216.673,67.672 C216.464,67.922 216.3,68.218 216.184,68.557 C216.067,68.896 216.008,69.255 216.008,69.632 L216.008,75.832 L213.777,75.832 L213.777,65.325" id="Fill-29" fill="#0A0B09"></path>
            <path d="M223.892,65.325 L226.339,65.325 L228.978,73.17 L229.019,73.17 L231.58,65.325 L233.91,65.325 L229.957,76.402 C229.775,76.876 229.598,77.329 229.423,77.762 C229.25,78.198 229.035,78.579 228.783,78.912 C228.532,79.244 228.217,79.506 227.84,79.704 C227.465,79.899 226.983,80 226.397,80 C225.874,80 225.36,79.958 224.85,79.877 L224.85,77.926 C225.034,77.953 225.21,77.982 225.378,78.016 C225.549,78.052 225.724,78.068 225.908,78.068 C226.168,78.068 226.384,78.034 226.552,77.967 C226.722,77.899 226.862,77.8 226.974,77.673 C227.084,77.542 227.178,77.39 227.257,77.215 C227.335,77.037 227.407,76.835 227.472,76.604 L227.726,75.791 L223.892,65.325" id="Fill-30" fill="#0A0B09"></path>
            <polygon id="Fill-31" fill="#D9252A" points="0.041 55.025 234.373 55.025 234.373 0.954 0.041 0.954"></polygon>
            <path d="M172.325,15.625 C172.325,13.529 173.953,11.78 175.962,11.763 L196.451,11.763 L196.451,14.465 L177.936,14.465 C177.417,14.465 177.018,14.88 177.018,15.417 L177.053,25.636 L196.451,25.636 L196.451,28.338 L177.053,28.338 L177.053,41.067 C177.053,41.604 177.469,42.037 178.006,42.037 L196.451,42.072 L196.451,44.687 L175.979,44.687 C173.953,44.687 172.325,43.007 172.325,40.911 L172.325,15.625" id="Fill-32" fill="#FFFFFE"></path>
            <polygon id="Fill-33" fill="#FFFFFE" points="70.306 44.703 75.277 44.703 75.277 11.761 70.306 11.761"></polygon>
            <polyline id="Fill-34" fill="#FFFFFE" points="80.239 11.77 80.239 14.472 91.116 14.472 91.116 44.711 96.086 44.711 96.086 14.472 107.69 14.472 107.69 11.77 80.239 11.77"></polyline>
            <polyline id="Fill-35" fill="#FFFFFE" points="133.954 11.77 133.954 25.418 117.379 25.418 117.379 11.77 112.183 11.77 112.183 44.711 117.379 44.711 117.379 28.137 133.954 28.137 133.954 44.711 139.167 44.711 139.167 11.77 133.954 11.77"></polyline>
            <polyline id="Fill-36" fill="#FFFFFE" points="224.33 11.77 214.614 25.539 204.932 11.77 199.477 11.77 211.081 28.985 211.081 44.711 216.051 44.711 216.051 27.998 227.17 11.77 224.33 11.77"></polyline>
            <polyline id="Fill-37" fill="#FFFFFE" points="33.165 11.77 16.123 26.024 30.567 44.711 36.958 44.711 21.803 25.279 37.425 11.77 33.165 11.77"></polyline>
            <polygon id="Fill-38" fill="#FFFFFE" points="10.693 44.703 15.179 44.703 15.179 11.761 10.693 11.761"></polygon>
            <path d="M40.971,15.625 C40.971,13.529 42.599,11.78 44.608,11.763 L65.097,11.763 L65.097,14.465 L46.582,14.465 C46.063,14.465 45.664,14.88 45.664,15.417 L45.699,25.636 L65.097,25.636 L65.097,28.338 L45.699,28.338 L45.699,41.067 C45.699,41.604 46.115,42.037 46.652,42.037 L65.097,42.072 L65.097,44.687 L44.625,44.687 C42.599,44.687 40.971,43.007 40.971,40.911 L40.971,15.625" id="Fill-39" fill="#FFFFFE"></path>
            <path d="M148.111,11.77 L152.839,11.77 L152.839,41.057 C152.839,41.611 153.254,42.044 153.774,42.044 L169.673,42.061 L169.673,44.694 L151.748,44.694 C149.739,44.694 148.111,42.997 148.111,40.918 L148.111,11.77" id="Fill-40" fill="#FFFFFE"></path>
        </g>
    </g>
</svg>