<?xml version="1.0" encoding="UTF-8"?>
<svg width="555px" height="370px" viewBox="0 0 555 370" version="1.1" xmlns="http://www.w3.org/2000/svg" xmlns:xlink="http://www.w3.org/1999/xlink">
    <!-- Generator: Sketch 48.2 (47327) - http://www.bohemiancoding.com/sketch -->
    <title>NS</title>
    <desc>Created with Sketch.</desc>
    <defs>
        <polygon id="path-1" points="0.06 0.833 548.982 0.833 548.982 369.394 0.06 369.394"></polygon>
    </defs>
    <g id="Page-1" stroke="none" stroke-width="1" fill="none" fill-rule="evenodd">
        <g id="NS" transform="translate(0.000000, -5.000000)">
            <polyline id="Fill-1" fill="#949594" points="0.475 297.407 9.046 297.407 26.654 324.399 26.756 324.399 26.756 297.407 33.223 297.407 33.223 333.747 25.009 333.747 7.044 305.874 6.937 305.874 6.937 333.747 0.475 333.747 0.475 297.407"></polyline>
            <path d="M59.688,328.824 C67.242,328.824 72.218,323.065 72.218,315.317 C72.218,308.084 67.242,302.333 59.688,302.333 C52.202,302.333 47.219,308.084 47.219,315.317 C47.219,323.065 52.202,328.824 59.688,328.824 Z M59.647,296.475 C70.985,296.275 78.998,303.87 78.998,315.523 C78.998,326.871 70.985,334.464 59.647,334.668 C48.451,334.668 40.448,327.077 40.448,315.731 C40.448,304.078 48.451,296.475 59.647,296.475 Z" id="Fill-2" fill="#949594"></path>
            <polyline id="Fill-3" fill="#949594" points="93.651 303.251 82.519 303.251 82.519 297.407 111.261 297.407 111.261 303.251 100.128 303.251 100.128 333.747 93.651 333.747 93.651 303.251"></polyline>
            <polyline id="Fill-4" fill="#949594" points="126.237 303.251 115.101 303.251 115.101 297.407 143.847 297.407 143.847 303.251 132.704 303.251 132.704 333.747 126.237 333.747 126.237 303.251"></polyline>
            <polygon id="Fill-5" fill="#949594" points="151.22 333.747 157.684 333.747 157.684 297.407 151.22 297.407"></polygon>
            <polyline id="Fill-6" fill="#949594" points="168.766 297.407 177.345 297.407 194.945 324.399 195.056 324.399 195.056 297.407 201.518 297.407 201.518 333.747 193.302 333.747 175.339 305.874 175.237 305.874 175.237 333.747 168.766 333.747 168.766 297.407"></polyline>
            <path d="M243.492,331.081 C239.071,333.439 234.043,334.668 228.454,334.668 C217.254,334.668 209.25,327.077 209.25,315.731 C209.25,304.078 217.254,296.475 228.454,296.475 C233.985,296.475 238.965,297.662 242.764,301.05 L237.992,305.874 C235.685,303.613 232.141,302.333 228.499,302.333 C221.003,302.333 216.03,308.084 216.03,315.317 C216.03,323.065 221.003,328.824 228.499,328.824 C231.784,328.824 234.762,328.205 237.013,326.914 L237.013,318.345 L229.578,318.345 L229.578,312.493 L243.492,312.493 L243.492,331.081" id="Fill-7" fill="#949594"></path>
            <polyline id="Fill-8" fill="#949594" points="252.709 297.407 259.173 297.407 259.173 311.881 276.169 311.881 276.169 297.407 282.639 297.407 282.639 333.747 276.169 333.747 276.169 317.729 259.173 317.729 259.173 333.747 252.709 333.747 252.709 297.407"></polyline>
            <path d="M312.294,319.881 L306.697,305.102 L300.997,319.881 L312.294,319.881 Z M304.072,297.407 L309.673,297.407 L325.324,333.747 L317.934,333.747 L314.547,325.431 L298.788,325.431 L295.506,333.747 L288.265,333.747 L304.072,297.407 Z" id="Fill-9" fill="#949594"></path>
            <polyline id="Fill-10" fill="#949594" points="332.654 297.407 342.51 297.407 352.208 322.861 362.012 297.407 371.768 297.407 371.768 333.747 365.606 333.747 365.606 303.56 365.501 303.56 354.465 333.747 349.953 333.747 338.92 303.56 338.808 303.56 338.808 333.747 332.654 333.747 332.654 297.407"></polyline>
            <path d="M422.044,305.208 C420.667,303.251 418.196,302.333 415.678,302.333 C412.702,302.333 409.727,303.667 409.727,307.003 C409.727,314.292 426.975,310.136 426.975,323.065 C426.975,330.871 420.817,334.668 413.674,334.668 C409.167,334.668 404.743,333.288 401.768,329.736 L406.652,325.018 C408.235,327.429 410.962,328.824 413.835,328.824 C416.811,328.824 420.198,327.18 420.198,323.839 C420.198,315.885 402.957,320.454 402.957,307.463 C402.957,299.967 409.625,296.475 416.35,296.475 C420.147,296.475 423.946,297.56 426.767,300.228 L422.044,305.208" id="Fill-11" fill="#949594"></path>
            <path d="M446.16,313.159 C449.849,313.159 454.628,312.957 454.628,308.028 C454.628,303.56 450.363,302.943 446.88,302.943 L442.262,302.943 L442.262,313.159 L446.16,313.159 Z M435.785,297.407 L448.005,297.407 C455.035,297.407 461.403,299.87 461.403,307.924 C461.403,317.063 454.575,318.7 446.88,318.7 L442.262,318.7 L442.262,333.747 L435.785,333.747 L435.785,297.407 Z" id="Fill-12" fill="#949594"></path>
            <polygon id="Fill-13" fill="#949594" points="470.123 333.747 476.583 333.747 476.583 297.407 470.123 297.407"></polygon>
            <path d="M498.649,312.806 C502.296,312.806 506.548,312.493 506.548,307.77 C506.548,303.457 502.548,302.943 499.211,302.943 L493.619,302.943 L493.619,312.806 L498.649,312.806 Z M487.154,297.407 L499.78,297.407 C506.762,297.407 513.336,299.664 513.336,307.823 C513.336,313.067 510.299,316.912 504.908,317.677 L514.563,333.747 L506.762,333.747 L498.342,318.345 L493.619,318.345 L493.619,333.747 L487.154,333.747 L487.154,297.407 Z" id="Fill-14" fill="#949594"></path>
            <polyline id="Fill-15" fill="#949594" points="522.608 297.407 529.073 297.407 529.073 312.806 529.377 312.806 544.421 297.407 553.151 297.407 536.154 314.191 554.273 333.747 545.192 333.747 529.432 315.885 529.073 315.885 529.073 333.747 522.608 333.747 522.608 297.407"></polyline>
            <g id="Group-19" transform="translate(0.000000, 5.000000)">
                <mask id="mask-2" fill="white">
                    <use xlink:href="#path-1"></use>
                </mask>
                <g id="Clip-17"></g>
                <path d="M29.846,123.56 L137.535,231.524 C140.289,234.286 142.192,238.089 142.192,242.344 C142.192,250.381 135.405,257.168 127.578,257.168 L20.099,256.744 C12.046,256.744 5.262,249.957 5.262,241.9 L5.262,134.618 C5.262,126.52 12.046,119.736 20.099,119.736 C23.704,119.736 27.096,121.023 29.846,123.56 Z M237.592,134.404 L129.9,26.466 C127.355,23.723 125.461,19.904 125.461,15.674 C125.461,7.608 132.017,0.833 140.075,0.833 L247.549,1.261 C255.385,1.261 262.172,8.044 262.172,16.081 L262.172,123.354 C262.172,131.42 255.385,138.248 247.549,138.248 C243.73,138.248 240.343,136.986 237.592,134.404 Z M7.503,50.095 L6.956,95.79 C6.956,98.33 9.077,100.452 11.622,100.452 C12.674,100.452 12.473,100.452 13.307,99.818 C16.502,98.112 20.099,97.27 23.495,97.27 C29.221,97.27 34.512,99.395 38.545,102.992 L179.088,243.799 C187.775,251.211 199.01,255.68 211.298,255.68 C238.217,255.68 260.474,233.628 260.474,206.915 L260.474,161.151 C260.474,158.602 258.37,156.489 255.817,156.489 C254.756,156.489 253.905,156.691 253.264,157.316 C250.308,158.602 247.13,159.231 243.948,159.231 C236.943,159.231 230.805,156.062 226.349,150.968 L88.777,13.125 C80.296,5.709 68.856,1.261 56.765,1.261 C29.649,1.261 7.388,23.292 7.388,49.997 L7.503,50.095 Z M426.244,234.056 L318.345,126.314 C315.608,123.56 311.776,121.656 307.534,121.656 C299.476,121.656 292.701,128.447 292.701,136.317 L293.132,243.799 C293.132,251.86 299.908,258.656 307.965,258.656 L415.23,258.656 C423.271,258.656 430.067,251.86 430.067,243.799 C430.067,240.21 428.789,236.822 426.244,234.056 Z M415.427,26.276 L523.321,133.981 C526.092,136.53 529.903,138.449 534.15,138.449 C542.178,138.449 548.982,131.856 548.982,123.774 L548.563,16.315 C548.563,8.455 541.771,1.668 533.714,1.668 L426.465,1.668 C418.408,1.668 411.617,8.455 411.617,16.315 C411.617,20.122 412.891,23.514 415.427,26.276 Z M500.168,256.962 L454.005,256.962 C451.468,256.962 449.351,254.845 449.351,252.305 C449.351,251.211 449.351,251.429 449.976,250.595 C451.687,247.429 452.529,243.799 452.529,240.415 C452.529,234.693 450.412,229.39 446.815,225.373 L306.053,84.76 C298.641,76.081 294.185,64.842 294.185,52.546 C294.185,25.618 316.224,3.382 342.946,3.382 L388.714,3.382 C391.279,3.382 393.388,5.487 393.388,8.044 C393.388,9.096 393.182,9.939 392.542,10.572 C391.279,13.557 390.633,16.731 390.633,19.904 C390.633,26.909 393.812,33.051 398.905,37.491 L536.686,175.137 C544.102,183.609 548.563,195.05 548.563,207.141 C548.563,234.286 526.997,256.942 500.279,256.942 L500.168,256.962 Z" id="Stroke-16" stroke="#949594" stroke-width="10.524" mask="url(#mask-2)"></path>
                <polyline id="Fill-18" fill="#949594" mask="url(#mask-2)" points="7.363 349.381 0.051 349.381 0.051 345.54 18.919 345.54 18.919 349.381 11.608 349.381 11.608 369.394 7.363 369.394 7.363 349.381"></polyline>
            </g>
            <polyline id="Fill-20" fill="#949594" points="21.883 350.54 26.128 350.54 26.128 360.042 37.28 360.042 37.28 350.54 41.524 350.54 41.524 374.394 37.28 374.394 37.28 363.882 26.128 363.882 26.128 374.394 21.883 374.394 21.883 350.54"></polyline>
            <polyline id="Fill-21" fill="#949594" points="46.925 350.54 62.726 350.54 62.726 354.381 51.17 354.381 51.17 360.243 62.12 360.243 62.12 364.083 51.17 364.083 51.17 370.552 63.333 370.552 63.333 374.394 46.925 374.394 46.925 350.54"></polyline>
            <path d="M82.119,370.756 L86.027,370.756 C88.217,370.756 91.25,370.386 91.25,367.251 C91.25,364.758 89.632,363.882 86.196,363.882 L82.119,363.882 L82.119,370.756 Z M82.119,360.243 L85.993,360.243 C88.824,360.243 90.238,359.031 90.238,357.245 C90.238,355.19 88.824,354.18 85.622,354.18 L82.119,354.18 L82.119,360.243 Z M77.874,350.54 L87.172,350.54 C90.777,350.54 94.484,352.192 94.484,356.537 C94.484,359.233 92.799,361.019 90.34,361.761 L90.34,361.826 C93.337,362.163 95.494,364.524 95.494,367.588 C95.494,372.777 90.98,374.394 86.465,374.394 L77.874,374.394 L77.874,350.54 Z" id="Fill-22" fill="#949594"></path>
            <path d="M118.679,365.633 C118.679,371.395 114.535,375 109.077,375 C103.618,375 99.475,371.395 99.475,365.633 L99.475,350.54 L103.72,350.54 L103.72,365.499 C103.72,367.858 105.001,370.957 109.077,370.957 C113.154,370.957 114.434,367.858 114.434,365.499 L114.434,350.54 L118.679,350.54 L118.679,365.633" id="Fill-23" fill="#949594"></path>
            <path d="M135.298,355.662 C134.388,354.381 132.771,353.775 131.12,353.775 C129.167,353.775 127.212,354.651 127.212,356.84 C127.212,361.625 138.532,358.896 138.532,367.387 C138.532,372.507 134.489,375 129.805,375 C126.841,375 123.944,374.09 121.989,371.767 L125.19,368.667 C126.235,370.25 128.02,371.158 129.908,371.158 C131.861,371.158 134.086,370.081 134.086,367.892 C134.086,362.669 122.764,365.668 122.764,357.144 C122.764,352.225 127.145,349.935 131.558,349.935 C134.051,349.935 136.545,350.642 138.398,352.394 L135.298,355.662" id="Fill-24" fill="#949594"></path>
            <polygon id="Fill-25" fill="#949594" points="142.786 374.394 147.032 374.394 147.032 350.54 142.786 350.54"></polygon>
            <polyline id="Fill-26" fill="#949594" points="152.335 350.54 157.96 350.54 169.516 368.262 169.584 368.262 169.584 350.54 173.829 350.54 173.829 374.394 168.438 374.394 156.646 356.1 156.579 356.1 156.579 374.394 152.335 374.394 152.335 350.54"></polyline>
            <polyline id="Fill-27" fill="#949594" points="179.246 350.54 195.046 350.54 195.046 354.381 183.491 354.381 183.491 360.243 194.44 360.243 194.44 364.083 183.491 364.083 183.491 370.552 195.653 370.552 195.653 374.394 179.246 374.394 179.246 350.54"></polyline>
            <path d="M211.755,355.662 C210.846,354.381 209.228,353.775 207.578,353.775 C205.625,353.775 203.67,354.651 203.67,356.84 C203.67,361.625 214.99,358.896 214.99,367.387 C214.99,372.507 210.947,375 206.263,375 C203.299,375 200.402,374.09 198.448,371.767 L201.648,368.667 C202.693,370.25 204.478,371.158 206.365,371.158 C208.319,371.158 210.543,370.081 210.543,367.892 C210.543,362.669 199.222,365.668 199.222,357.144 C199.222,352.225 203.603,349.935 208.016,349.935 C210.509,349.935 213.003,350.642 214.856,352.394 L211.755,355.662" id="Fill-28" fill="#949594"></path>
            <path d="M230.735,355.662 C229.826,354.381 228.209,353.775 226.557,353.775 C224.604,353.775 222.649,354.651 222.649,356.84 C222.649,361.625 233.969,358.896 233.969,367.387 C233.969,372.507 229.926,375 225.243,375 C222.279,375 219.381,374.09 217.427,371.767 L220.628,368.667 C221.672,370.25 223.458,371.158 225.345,371.158 C227.298,371.158 229.523,370.081 229.523,367.892 C229.523,362.669 218.202,365.668 218.202,357.144 C218.202,352.225 222.583,349.935 226.996,349.935 C229.489,349.935 231.982,350.642 233.836,352.394 L230.735,355.662" id="Fill-29" fill="#949594"></path>
            <polygon id="Fill-30" fill="#949594" points="248.646 374.394 252.892 374.394 252.892 350.54 248.646 350.54"></polygon>
            <polyline id="Fill-31" fill="#949594" points="258.194 350.54 263.82 350.54 275.376 368.262 275.444 368.262 275.444 350.54 279.688 350.54 279.688 374.394 274.299 374.394 262.506 356.1 262.439 356.1 262.439 374.394 258.194 374.394 258.194 350.54"></polyline>
            <polyline id="Fill-32" fill="#949594" points="285.108 350.54 290.732 350.54 302.288 368.262 302.358 368.262 302.358 350.54 306.6 350.54 306.6 374.394 301.211 374.394 289.421 356.1 289.35 356.1 289.35 374.394 285.108 374.394 285.108 350.54"></polyline>
            <path d="M323.402,371.158 C328.356,371.158 331.624,367.387 331.624,362.299 C331.624,357.549 328.356,353.775 323.402,353.775 C318.485,353.775 315.217,357.549 315.217,362.299 C315.217,367.387 318.485,371.158 323.402,371.158 Z M323.369,349.935 C330.814,349.8 336.072,354.786 336.072,362.433 C336.072,369.88 330.814,374.864 323.369,375 C316.027,375 310.769,370.014 310.769,362.568 C310.769,354.92 316.027,349.935 323.369,349.935 Z" id="Fill-33" fill="#949594"></path>
            <polyline id="Fill-34" fill="#949594" points="336.587 350.54 341.47 350.54 347.973 368.565 354.678 350.54 359.262 350.54 349.627 374.394 345.951 374.394 336.587 350.54"></polyline>
            <path d="M372.792,365.298 L369.121,355.594 L365.38,365.298 L372.792,365.298 Z M367.402,350.54 L371.074,350.54 L381.351,374.394 L376.501,374.394 L374.276,368.937 L363.933,368.937 L361.774,374.394 L357.026,374.394 L367.402,350.54 Z" id="Fill-35" fill="#949594"></path>
            <polyline id="Fill-36" fill="#949594" points="386.622 354.381 379.312 354.381 379.312 350.54 398.177 350.54 398.177 354.381 390.868 354.381 390.868 374.394 386.622 374.394 386.622 354.381"></polyline>
            <polygon id="Fill-37" fill="#949594" points="401.092 374.394 405.339 374.394 405.339 350.54 401.092 350.54"></polygon>
            <path d="M422.013,371.158 C426.967,371.158 430.235,367.387 430.235,362.299 C430.235,357.549 426.967,353.775 422.013,353.775 C417.096,353.775 413.828,357.549 413.828,362.299 C413.828,367.387 417.096,371.158 422.013,371.158 Z M421.98,349.935 C429.425,349.8 434.683,354.786 434.683,362.433 C434.683,369.88 429.425,374.864 421.98,375 C414.638,375 409.38,370.014 409.38,362.568 C409.38,354.92 414.638,349.935 421.98,349.935 Z" id="Fill-38" fill="#949594"></path>
            <polyline id="Fill-39" fill="#949594" points="438.852 350.54 444.476 350.54 456.032 368.262 456.102 368.262 456.102 350.54 460.344 350.54 460.344 374.394 454.955 374.394 443.165 356.1 443.094 356.1 443.094 374.394 438.852 374.394 438.852 350.54"></polyline>
            <polyline id="Fill-40" fill="#949594" points="476.032 350.54 491.428 350.54 491.428 354.381 480.275 354.381 480.275 360.649 490.787 360.649 490.787 364.488 480.275 364.488 480.275 374.394 476.032 374.394 476.032 350.54"></polyline>
            <polygon id="Fill-41" fill="#949594" points="495.087 374.394 499.33 374.394 499.33 350.54 495.087 350.54"></polygon>
            <path d="M512.18,360.649 C514.573,360.649 517.369,360.445 517.369,357.346 C517.369,354.517 514.742,354.18 512.55,354.18 L508.88,354.18 L508.88,360.649 L512.18,360.649 Z M504.632,350.54 L512.921,350.54 C517.505,350.54 521.817,352.023 521.817,357.38 C521.817,360.818 519.827,363.343 516.292,363.849 L522.623,374.394 L517.505,374.394 L511.979,364.287 L508.88,364.287 L508.88,374.394 L504.632,374.394 L504.632,350.54 Z" id="Fill-42" fill="#949594"></path>
            <polyline id="Fill-43" fill="#949594" points="526.063 350.54 532.53 350.54 538.898 367.251 545.332 350.54 551.737 350.54 551.737 374.394 547.691 374.394 547.691 354.583 547.626 354.583 540.381 374.394 537.418 374.394 530.174 354.583 530.104 354.583 530.104 374.394 526.063 374.394 526.063 350.54"></polyline>
        </g>
    </g>
</svg>