<?xml version="1.0" encoding="UTF-8"?>
<svg width="354px" height="84px" viewBox="0 0 354 84" version="1.1" xmlns="http://www.w3.org/2000/svg" xmlns:xlink="http://www.w3.org/1999/xlink">
    <!-- Generator: Sketch 48.2 (47327) - http://www.bohemiancoding.com/sketch -->
    <title>RA_100K</title>
    <desc>Created with Sketch.</desc>
    <defs>
        <polygon id="path-1" points="0 0.326 316.949 0.326 316.949 38.94 0 38.94"></polygon>
    </defs>
    <g id="Page-1" stroke="none" stroke-width="1" fill="none" fill-rule="evenodd">
        <g id="RA_100K">
            <g id="Group-9" transform="translate(0.000000, 45.000000)">
                <mask id="mask-2" fill="white">
                    <use xlink:href="#path-1"></use>
                </mask>
                <g id="Clip-2"></g>
                <path d="M23.142,8.475 L23.249,8.475 L27.395,21.015 L18.937,21.015 L23.142,8.475 Z M0,38.368 L14.555,38.368 L16.901,30.14 L29.208,30.14 L31.722,38.368 L47.034,38.368 L33.464,0.326 L13.35,0.326 L0,38.368 Z" id="Fill-1" fill="#1A1919" mask="url(#mask-2)"></path>
                <path d="M79.946,38.368 L66.981,38.368 L66.981,33.493 L66.872,33.493 C65.231,37.463 61.451,39.048 57.579,38.984 C50.281,38.984 47.613,35.172 47.613,29.726 L47.613,9.938 L61.337,9.938 L61.337,26.333 C61.337,27.976 61.337,30.209 63.749,30.209 C66.221,30.209 66.221,27.976 66.221,26.333 L66.221,9.938 L79.946,9.938 L79.946,38.368" id="Fill-3" fill="#1A1919" mask="url(#mask-2)"></path>
                <path d="M123.589,23.627 C123.589,20.251 123.918,17.466 126.567,17.466 C129.217,17.466 129.598,20.251 129.598,23.627 C129.598,27.783 129.217,30.844 126.567,30.844 C123.918,30.844 123.589,27.783 123.589,23.627 Z M108.975,23.627 C108.975,33.448 115.083,39 126.567,39 C137.998,39 144.219,33.448 144.219,23.627 C144.219,14.092 137.998,9.306 126.567,9.306 C115.083,9.306 108.975,14.092 108.975,23.627 Z" id="Fill-4" fill="#1A1919" mask="url(#mask-2)"></path>
                <path d="M147.638,9.938 L160.608,9.938 L160.608,14.891 L160.713,14.891 C162.355,10.908 166.134,9.326 170.44,9.321 C174.257,9.321 178.232,10.791 179.319,14.167 L179.425,14.167 C180.35,10.902 185.181,9.321 188.552,9.321 C198.57,9.321 198.57,15.811 198.57,21.308 L198.57,38.368 L184.842,38.368 L184.842,21.968 C184.842,20.328 184.842,18.088 182.385,18.088 C179.97,18.088 179.97,20.328 179.97,21.968 L179.97,38.368 L166.242,38.368 L166.242,21.968 C166.242,20.328 166.242,18.088 163.834,18.088 C161.37,18.088 161.37,20.328 161.37,21.968 L161.37,38.368 L147.638,38.368 L147.638,9.938" id="Fill-5" fill="#1A1919" mask="url(#mask-2)"></path>
                <path d="M221.722,26.761 C221.722,29.214 220.315,31.821 217.479,31.821 C215.35,31.821 214.272,31.053 214.272,29.104 C214.272,26.165 217.534,25.892 220.37,25.892 L221.722,25.892 L221.722,26.761 Z M204.998,18.923 C207.721,17.546 211.212,16.484 214.486,16.484 C217.911,16.484 221.674,16.927 221.722,20.633 C220.478,20.52 218.292,20.251 216.391,20.251 C209.574,20.251 201.721,21.983 201.721,30.679 C201.721,36.595 206.856,39 212.138,39 C216,39 219.484,37.48 221.397,34.251 L221.509,34.251 L221.509,38.364 L234.269,38.364 L234.269,21.115 C234.269,10.723 224.721,9.306 216.885,9.306 C211.537,9.306 209.087,9.803 204.998,10.942 L204.998,18.923 Z" id="Fill-6" fill="#1A1919" mask="url(#mask-2)"></path>
                <path d="M265.025,38.368 L278.747,38.368 L278.747,10.001 L265.025,10.001 L265.025,38.368 Z M265.025,6.629 L278.747,6.629 L278.747,0.348 L265.025,0.348 L265.025,6.629 Z" id="Fill-7" fill="#1A1919" mask="url(#mask-2)"></path>
                <path d="M296.33,23.627 C296.33,20.251 296.655,17.466 299.301,17.466 C301.957,17.466 302.337,20.251 302.337,23.627 C302.337,27.783 301.957,30.844 299.301,30.844 C296.655,30.844 296.33,27.783 296.33,23.627 Z M281.717,23.627 C281.717,33.448 287.81,39 299.301,39 C310.739,39 316.949,33.448 316.949,23.627 C316.949,14.092 310.739,9.306 299.301,9.306 C287.81,9.306 281.717,14.092 281.717,23.627 Z" id="Fill-8" fill="#1A1919" mask="url(#mask-2)"></path>
            </g>
            <path d="M320.513,54.938 L333.484,54.938 L333.484,59.891 L333.587,59.891 C335.231,55.908 339.013,54.326 342.88,54.321 C350.176,54.321 352.839,58.134 352.839,63.585 L352.839,83.368 L339.126,83.368 L339.126,66.968 C339.126,65.328 339.126,63.088 336.706,63.088 C334.245,63.088 334.245,65.328 334.245,66.968 L334.245,83.368 L320.513,83.368 L320.513,54.938" id="Fill-10" fill="#1A1919"></path>
            <polyline id="Fill-11" fill="#1A1919" points="261.757 54.899 255.852 54.899 255.852 45.333 242.102 45.333 242.102 54.899 236.262 54.899 236.262 62.882 242.102 62.882 242.102 83.368 255.852 83.368 255.852 62.882 261.757 62.882 261.757 54.899"></polyline>
            <polyline id="Fill-12" fill="#1A1919" points="102.557 45.333 88.812 45.333 88.812 54.958 82.965 54.958 82.965 62.882 88.812 62.882 88.812 83.368 102.557 83.368 102.557 62.882 108.462 62.882 108.462 54.958 102.557 54.958 102.557 45.333"></polyline>
            <path d="M105.259,9.194 L109.217,9.194 C112.107,9.194 114.832,9.682 114.832,13.059 C114.832,16.827 111.951,17.152 109.003,17.152 L105.259,17.152 L105.259,9.194 Z M91.514,38.278 L105.904,38.278 L105.904,25.52 L109.111,25.52 C110.872,25.52 112.32,25.729 113.169,27.462 C114.348,29.716 114.508,35.58 115.151,38.278 L130.128,38.278 C128.628,34.625 128.79,28.841 126.595,24.869 C125.25,22.888 123.37,21.384 120.249,20.848 L120.249,20.751 C125.626,19.455 129.217,16.555 129.217,10.811 C129.217,3.618 123.692,0.828 114.723,0.828 L91.514,0.828 L91.514,38.278 Z" id="Fill-13" fill="#1A1919"></path>
            <path d="M144.908,23.778 C144.908,20.439 145.219,17.696 147.836,17.696 C150.437,17.696 150.817,20.439 150.817,23.778 C150.817,27.856 150.437,30.864 147.836,30.864 C145.219,30.864 144.908,27.856 144.908,23.778 Z M130.514,23.778 C130.514,33.431 136.52,38.885 147.836,38.885 C159.082,38.885 165.198,33.431 165.198,23.778 C165.198,14.387 159.082,9.676 147.836,9.676 C136.52,9.676 130.514,14.387 130.514,23.778 Z" id="Fill-14" fill="#1A1919"></path>
            <path d="M194.653,37.493 C191.643,38.458 188.645,38.885 184.612,38.885 C173.291,38.885 167.272,33.431 167.272,23.778 C167.272,14.387 173.291,9.676 184.612,9.676 C188.645,9.676 191.643,10.051 194.437,10.835 L194.437,19.098 C192.765,18.345 190.786,17.696 188.37,17.696 C184.345,17.696 181.666,19.796 181.666,23.991 C181.666,28.34 184.345,30.864 188.37,30.864 C190.786,30.864 192.765,30.329 194.653,29.198 L194.653,37.493" id="Fill-15" fill="#1A1919"></path>
            <polyline id="Fill-16" fill="#1A1919" points="211.611 22.631 211.716 22.631 218.343 10.289 233.09 10.289 225.293 22.631 234.563 38.278 219.337 38.278 211.716 22.631 211.611 22.631 211.611 38.278 198.102 38.278 198.102 0.859 211.611 0.859 211.611 22.631"></polyline>
            <polyline id="Fill-17" fill="#1A1919" points="249.143 28.607 249.25 28.607 252.158 10.289 268.405 10.289 271.522 28.607 271.635 28.607 274.082 10.289 286.428 10.289 280.166 38.278 263.316 38.278 259.99 19.272 259.877 19.272 256.429 38.278 239.468 38.278 233.201 10.289 246.456 10.289 249.143 28.607"></polyline>
            <path d="M300.236,21.605 C300.077,19.42 300.775,16.12 303.906,16.12 C306.989,16.12 307.306,19.476 307.306,21.605 L300.236,21.605 Z M319.026,27.51 L319.026,25.845 C319.026,16.434 315.208,9.682 304.334,9.682 C293.01,9.682 287.002,14.401 287.002,23.751 C287.002,33.429 293.01,38.885 304.334,38.885 C309.082,38.885 313.376,38.406 316.988,37.28 L316.988,30.046 C314.832,31.182 311.503,31.824 307.792,31.824 C303.799,31.824 300.505,31.011 300.291,27.51 L319.026,27.51 Z" id="Fill-18" fill="#1A1919"></path>
            <polygon id="Fill-19" fill="#1A1919" points="322.533 38.277 335.717 38.277 335.717 0.859 322.533 0.859"></polygon>
            <polygon id="Fill-20" fill="#1A1919" points="339.841 38.277 353.031 38.277 353.031 0.859 339.841 0.859"></polygon>
        </g>
    </g>
</svg>