<?xml version="1.0" encoding="UTF-8" standalone="no"?>
<!-- Created with Inkscape (http://www.inkscape.org/) -->

<svg
   xmlns:dc="http://purl.org/dc/elements/1.1/"
   xmlns:cc="http://creativecommons.org/ns#"
   xmlns:rdf="http://www.w3.org/1999/02/22-rdf-syntax-ns#"
   xmlns:svg="http://www.w3.org/2000/svg"
   xmlns="http://www.w3.org/2000/svg"
   xmlns:sodipodi="http://sodipodi.sourceforge.net/DTD/sodipodi-0.dtd"
   xmlns:inkscape="http://www.inkscape.org/namespaces/inkscape"
   width="375mm"
   height="100mm"
   viewBox="0 0 375 100"
   version="1.1"
   id="svg7696"
   inkscape:version="0.92.2 (5c3e80d, 2017-08-06)"
   sodipodi:docname="3 cloud group.svg">
  <defs
     id="defs7690" />
  <sodipodi:namedview
     id="base"
     pagecolor="#ffffff"
     bordercolor="#666666"
     borderopacity="1.0"
     inkscape:pageopacity="0.0"
     inkscape:pageshadow="2"
     inkscape:zoom="0.35"
     inkscape:cx="-75.714286"
     inkscape:cy="560"
     inkscape:document-units="mm"
     inkscape:current-layer="layer1"
     showgrid="false"
     inkscape:window-width="1920"
     inkscape:window-height="1057"
     inkscape:window-x="1592"
     inkscape:window-y="-8"
     inkscape:window-maximized="1" />
  <metadata
     id="metadata7693">
    <rdf:RDF>
      <cc:Work
         rdf:about="">
        <dc:format>image/svg+xml</dc:format>
        <dc:type
           rdf:resource="http://purl.org/dc/dcmitype/StillImage" />
        <dc:title></dc:title>
      </cc:Work>
    </rdf:RDF>
  </metadata>
  <g
     inkscape:label="Layer 1"
     inkscape:groupmode="layer"
     id="layer1"
     transform="translate(0,-197)">
    <g
       id="g2954-8-3"
       style="display:inline;opacity:1;fill:#d7906f;fill-opacity:1"
       transform="matrix(-0.16593055,0,0,0.16593055,257.49069,206.73023)"
       inkscape:export-filename="R:\DocumentsHDD\CWRU Freshman Year\HackCWRU\HackCWRU 6 mockup groups\V5 top of page.png"
       inkscape:export-xdpi="96"
       inkscape:export-ydpi="96">
      <path
         id="rect2599-9-4"
         d="m 133.22852,252.00544 c -17.58008,0 -31.73243,14.15234 -31.73243,31.73242 H 51.51953 c -17.58008,0 -31.73437,14.15234 -31.73437,31.73242 H -6.5957 c -17.58008,0 -31.73243,14.1543 -31.73243,31.73438 h -55.34374 c -17.58009,0 -31.73243,14.15234 -31.73243,31.73242 h -61.93554 c -17.58009,0 -31.73243,14.15234 -31.73243,31.73242 v 0.002 c 0,17.58008 14.15234,31.73242 31.73243,31.73242 h 371.875 c 17.58008,0 31.73242,-14.15234 31.73242,-31.73242 h 142.9082 c 0,17.58008 14.1543,31.73242 31.73438,31.73242 h 126.40625 c 0,17.58009 14.15234,31.73242 31.73242,31.73242 h 139.82422 c 17.5801,0 31.73437,-14.15233 31.73437,-31.73242 h 42.17578 c 17.5801,0 31.73243,-14.15234 31.73243,-31.73242 v -0.002 h 15.8672 c 17.5801,0 31.7324,-14.15233 31.7324,-31.73242 0,-17.58008 -14.1523,-31.73242 -31.7324,-31.73242 H 670.55859 c -17.58008,0 -31.73437,14.15234 -31.73437,31.73242 H 532.06836 c 0,-17.58008 -14.1543,-31.73242 -31.73438,-31.73242 h -55.68945 c 0,-17.58008 -14.15234,-31.73438 -31.73242,-31.73438 h -50.00977 c 0,-17.58008 -14.15429,-31.73242 -31.73437,-31.73242 h -26.38086 c 0,-17.58008 -14.15234,-31.73242 -31.73242,-31.73242 z"
         style="display:inline;opacity:1;vector-effect:none;fill:#d7906f;fill-opacity:1;fill-rule:nonzero;stroke:none;stroke-width:5.6692915;stroke-linecap:round;stroke-linejoin:round;stroke-miterlimit:4;stroke-dasharray:none;stroke-dashoffset:0;stroke-opacity:1;paint-order:markers stroke fill"
         inkscape:connector-curvature="0" />
      <path
         id="rect2599-7-5-4-4-9-5-2-34-4-4"
         d="m 1118.6113,170.70661 c -17.5801,0 -31.7343,14.15234 -31.7343,31.73242 h -69.9122 c -17.58007,0 -31.73237,14.15234 -31.73237,31.73243 h -119.0156 c -17.5801,0 -31.7324,14.15234 -31.7324,31.73242 v 0.002 c -10e-5,17.58009 14.1523,31.73242 31.7324,31.73242 h 69.9121 c 0,17.58009 14.1543,31.73242 31.7344,31.73242 h 139.82417 c 17.5801,0 31.7324,-14.15233 31.7324,-31.73242 h 6.4473 109.4687 c 2.1718,15.43492 15.3614,27.23633 31.4141,27.23633 h 34.0996 c 0,17.58009 14.1523,31.73438 31.7324,31.73438 h 139.8242 c 17.5801,-1e-5 31.7344,-14.15429 31.7344,-31.73438 0,-17.58008 -14.1543,-31.73242 -31.7344,-31.73242 h -34.0996 c 0,-17.58008 -14.1523,-31.73438 -31.7324,-31.73438 h -115.916 c -2.1727,-15.43385 -15.3602,-27.23632 -31.4121,-27.23632 0,-17.58009 -14.1523,-31.73243 -31.7324,-31.73243 h -6.4473 c 0,-17.58008 -14.1523,-31.73242 -31.7324,-31.73242 z"
         style="display:inline;opacity:1;vector-effect:none;fill:#d7906f;fill-opacity:1;fill-rule:nonzero;stroke:none;stroke-width:5.6692915;stroke-linecap:round;stroke-linejoin:round;stroke-miterlimit:4;stroke-dasharray:none;stroke-dashoffset:0;stroke-opacity:1;paint-order:markers stroke fill"
         inkscape:connector-curvature="0" />
      <path
         id="rect2599-7-5-4-4-9-5-2-34-4-4-1"
         d="m -265.59851,39.871187 c 17.5801,0 31.7343,14.15234 31.7343,31.73243 h 69.9122 c 17.5801,0 31.7324,14.15234 31.7324,31.732433 h 119.015604 c 17.5801003,0 31.7324,14.15234 31.7324,31.73242 v 0.002 c 10e-5,17.58008 -14.1522997,31.73242 -31.7324,31.73242 h -69.9121 c 0,17.58008 -14.1543,31.73242 -31.734404,31.73242 h -139.8242 c -17.5801,0 -31.7324,-14.15234 -31.7324,-31.73242 h -6.4473 -109.46871 c -2.1718,15.43491 -15.36139,27.23633 -31.4141,27.23633 h -34.0996 c 0,17.58009 -14.1523,31.73436 -31.7324,31.73436 h -139.82419 c -17.5801,-6e-5 -31.7344,-14.15435 -31.7344,-31.73444 0,-17.58008 14.1543,-31.73242 31.7344,-31.73242 h 34.0996 c 0,-17.58008 14.1523,-31.73438 31.7324,-31.73438 h 115.91599 c 2.1727,-15.43385 15.3602,-27.23632 31.41211,-27.23632 0,-17.580093 14.1523,-31.732433 31.73239,-31.732433 h 6.4473 c 0,-17.58008 14.1523,-31.73242 31.7324,-31.73242 z"
         style="display:inline;opacity:1;vector-effect:none;fill:#d7906f;fill-opacity:1;fill-rule:nonzero;stroke:none;stroke-width:5.6692915;stroke-linecap:round;stroke-linejoin:round;stroke-miterlimit:4;stroke-dasharray:none;stroke-dashoffset:0;stroke-opacity:1;paint-order:markers stroke fill"
         inkscape:connector-curvature="0" />
    </g>
  </g>
</svg>
