<?xml version="1.0" encoding="UTF-8"?>
<svg width="366px" height="122px" viewBox="0 0 366 122" version="1.1" xmlns="http://www.w3.org/2000/svg" xmlns:xlink="http://www.w3.org/1999/xlink">
    <!-- Generator: Sketch 48.2 (47327) - http://www.bohemiancoding.com/sketch -->
    <title>embeddedPlanet</title>
    <desc>Created with Sketch.</desc>
    <defs>
        <polygon id="path-1" points="0 0 366 0 366 122 0 122"></polygon>
    </defs>
    <g id="Page-1" stroke="none" stroke-width="1" fill="none" fill-rule="evenodd">
        <g id="embeddedPlanet">
            <g id="Group-3">
                <mask id="mask-2" fill="white">
                    <use xlink:href="#path-1"></use>
                </mask>
                <g id="Clip-2"></g>
                <polygon id="Fill-1" fill="#3E6172" mask="url(#mask-2)" points="0 122 366 122 366 0 0 0"></polygon>
            </g>
            <path d="M130.493,42.456 C130.493,40.231 131.582,39.048 133.806,39.001 L153.781,39.001 L153.781,44.587 L136.978,44.587 L136.978,51.497 L149.521,51.497 L149.521,53.627 C149.568,55.851 148.432,56.941 146.113,56.941 L136.978,56.941 L136.978,65.271 L153.781,65.271 L153.781,71.187 L130.493,71.187 L130.493,42.456" id="Fill-4" fill="#FFFFFE"></path>
            <path d="M163.39,55.188 L163.39,71.187 L157,71.187 L157,56.467 C157,49.319 160.598,45.77 167.745,45.77 C170.963,45.77 173.425,46.479 175.224,47.899 C177.022,46.527 179.483,45.864 182.702,45.864 C189.849,45.864 193.399,49.415 193.352,56.562 L193.352,71.283 L190.086,71.283 C188.003,71.141 186.962,70.146 186.962,68.158 L186.962,55.284 C186.82,52.681 185.4,51.402 182.607,51.402 C179.815,51.402 178.395,52.681 178.348,55.284 L178.348,71.187 L172.005,71.187 L172.005,55.188 C171.863,52.586 170.443,51.308 167.65,51.308 C164.857,51.308 163.438,52.586 163.39,55.188" id="Fill-5" fill="#FFFFFE"></path>
            <path d="M203.293,58.598 C203.246,63.662 204.949,66.219 208.547,66.219 C212.145,66.219 213.942,63.662 213.942,58.598 C213.801,53.768 212.05,51.402 208.642,51.402 C205.233,51.402 203.482,53.768 203.293,58.598 Z M203.293,49.651 C204.902,47.048 207.269,45.77 210.393,45.77 C217.066,46.007 220.38,50.361 220.38,58.881 C220.38,67.213 216.499,71.426 208.736,71.566 C200.927,71.613 196.998,67.875 196.998,60.35 L196.998,39.001 L200.169,39.001 C202.252,39.001 203.293,40.09 203.293,42.173 L203.293,49.651 Z" id="Fill-6" fill="#FFFFFE"></path>
            <path d="M229.61,55.946 L239.029,55.946 C238.65,52.633 237.089,50.929 234.391,50.929 C231.692,50.929 230.083,52.633 229.61,55.946 Z M234.391,71.756 C226.817,71.519 223.031,67.117 223.031,58.598 C223.031,50.077 226.865,45.817 234.485,45.77 C242.438,45.77 246.177,50.645 245.703,60.443 L229.516,60.443 C229.752,64.277 231.408,66.219 234.485,66.219 C235.953,66.219 237.325,65.603 238.556,64.42 C239.124,63.805 239.834,63.519 240.686,63.519 L245.324,63.519 C243.952,68.822 240.544,71.756 234.391,71.756 Z" id="Fill-7" fill="#FFFFFE"></path>
            <path d="M254.84,58.598 C254.792,63.662 256.496,66.219 260.094,66.219 C263.69,66.219 265.489,63.662 265.489,58.598 C265.348,53.768 263.597,51.402 260.188,51.402 C256.78,51.402 255.029,53.768 254.84,58.598 Z M271.737,42.173 L271.737,60.35 C271.737,67.875 267.809,71.613 259.999,71.566 C252.236,71.426 248.355,67.213 248.355,58.881 C248.355,50.361 251.668,46.007 258.342,45.77 C261.466,45.77 263.88,47.048 265.489,49.651 L265.489,39.001 L268.613,39.001 C270.317,39.001 271.737,40.469 271.737,42.173 Z" id="Fill-8" fill="#FFFFFE"></path>
            <path d="M280.778,58.598 C280.73,63.662 282.435,66.219 286.032,66.219 C289.629,66.219 291.428,63.662 291.428,58.598 C291.286,53.768 289.535,51.402 286.127,51.402 C282.719,51.402 280.968,53.768 280.778,58.598 Z M297.676,42.173 L297.676,60.35 C297.676,67.875 293.747,71.613 285.938,71.566 C278.175,71.426 274.294,67.213 274.294,58.881 C274.294,50.361 277.606,46.007 284.281,45.77 C287.404,45.77 289.818,47.048 291.428,49.651 L291.428,39.001 L294.552,39.001 C296.256,39.001 297.676,40.469 297.676,42.173 Z" id="Fill-9" fill="#FFFFFE"></path>
            <path d="M306.907,55.946 L316.326,55.946 C315.947,52.633 314.386,50.929 311.688,50.929 C308.989,50.929 307.38,52.633 306.907,55.946 Z M311.688,71.756 C304.114,71.519 300.328,67.117 300.328,58.598 C300.328,50.077 304.162,45.817 311.782,45.77 C319.734,45.77 323.474,50.645 323,60.443 L306.813,60.443 C307.049,64.277 308.705,66.219 311.782,66.219 C313.25,66.219 314.622,65.603 315.853,64.42 C316.421,63.805 317.131,63.519 317.982,63.519 L322.621,63.519 C321.249,68.822 317.841,71.756 311.688,71.756 Z" id="Fill-10" fill="#FFFFFE"></path>
            <path d="M332.137,58.598 C332.089,63.662 333.793,66.219 337.391,66.219 C340.987,66.219 342.786,63.662 342.786,58.598 C342.645,53.768 340.894,51.402 337.485,51.402 C334.077,51.402 332.326,53.768 332.137,58.598 Z M349.034,42.173 L349.034,60.35 C349.034,67.875 345.105,71.613 337.296,71.566 C329.533,71.426 325.652,67.213 325.652,58.881 C325.652,50.361 328.965,46.007 335.639,45.77 C338.763,45.77 341.177,47.048 342.786,49.651 L342.786,39.001 L345.91,39.001 C347.614,39.001 349.034,40.469 349.034,42.173 Z" id="Fill-11" fill="#FFFFFE"></path>
            <path d="M288.925,83.555 C290.809,83.582 291.751,82.693 291.751,80.918 C291.751,79.141 290.862,78.252 289.113,78.252 L285.291,78.252 L285.291,83.555 L288.925,83.555 Z M289.867,86.865 L285.237,86.865 L285.237,93.379 L281.496,93.379 L281.496,77.041 C281.496,75.992 282.33,75.076 283.38,75.076 L289.598,75.076 C293.474,75.076 295.492,77.148 295.492,80.971 C295.492,84.578 293.527,86.865 289.867,86.865 Z" id="Fill-12" fill="#FFFFFE"></path>
            <path d="M300.742,76.826 L300.742,93.379 L297.162,93.379 L297.162,75.076 L299.02,75.076 C299.961,75.076 300.742,75.885 300.742,76.826" id="Fill-13" fill="#FFFFFE"></path>
            <path d="M310.97,87.539 L310.97,86.221 C310.136,86.57 309.167,86.865 308.117,87.082 C306.69,87.35 305.964,88.023 305.964,89.072 C306.044,90.203 306.637,90.742 307.767,90.742 C309.759,90.742 310.97,89.557 310.97,87.539 Z M306.448,82.855 L302.868,82.855 C303.299,80.217 305.156,78.926 308.439,78.926 C312.369,78.926 314.361,80.217 314.442,82.855 L314.442,87.701 C314.442,91.631 312.073,93.379 308.225,93.648 C304.806,93.918 302.438,92.33 302.438,89.18 C302.519,85.762 304.994,84.848 308.602,84.498 C310.136,84.309 310.916,83.851 310.916,83.07 C310.835,82.264 310.082,81.859 308.602,81.859 C307.336,81.859 306.637,82.182 306.448,82.855 Z" id="Fill-14" fill="#FFFFFE"></path>
            <path d="M326.475,93.379 C325.29,93.299 324.698,92.734 324.698,91.603 L324.698,84.281 C324.617,82.801 323.81,82.074 322.222,82.074 C320.634,82.074 319.826,82.801 319.8,84.281 L319.8,93.379 L316.166,93.379 L316.166,85.008 C316.166,80.943 318.211,78.926 322.275,78.926 C326.34,78.926 328.332,80.943 328.305,85.008 L328.305,93.379 L326.475,93.379" id="Fill-15" fill="#FFFFFE"></path>
            <path d="M333.555,84.713 L338.911,84.713 C338.695,82.828 337.807,81.859 336.272,81.859 C334.738,81.859 333.823,82.828 333.555,84.713 Z M336.272,93.703 C331.966,93.568 329.813,91.064 329.813,86.221 C329.813,81.375 331.993,78.953 336.327,78.926 C340.849,78.926 342.975,81.697 342.706,87.269 L333.5,87.269 C333.635,89.449 334.577,90.553 336.327,90.553 C337.161,90.553 337.941,90.203 338.642,89.531 C338.965,89.18 339.368,89.019 339.853,89.019 L342.49,89.019 C341.71,92.033 339.772,93.703 336.272,93.703 Z" id="Fill-16" fill="#FFFFFE"></path>
            <path d="M348.332,81.697 L347.955,81.697 L347.955,89.584 C347.955,90.176 348.306,90.5 349.005,90.5 L350.109,90.5 L350.109,93.219 C348.951,93.326 347.687,93.326 346.341,93.191 C344.995,93.057 344.349,92.223 344.376,90.635 L344.376,75.076 L346.232,75.076 C347.175,75.076 347.955,75.937 347.955,76.879 L347.955,79.141 L350.109,79.141 L350.109,79.922 C350.109,80.943 349.328,81.697 348.332,81.697" id="Fill-17" fill="#FFFFFE"></path>
            <path d="M108.868,26.877 C109.577,27.513 110.518,27.862 111.515,27.862 C113.479,27.862 115.666,26.43 115.813,24.108 C115.993,22.992 115.673,21.879 114.909,20.967 C114.061,19.954 112.792,19.35 111.515,19.35 C110.828,19.35 110.156,19.53 109.654,19.829 C108.37,20.425 107.513,21.684 107.363,23.196 C107.213,24.704 107.804,26.102 108.868,26.877" id="Fill-18" fill="#FFFFFE"></path>
            <path d="M116.289,57.924 C115.891,57.924 115.501,58.014 115.156,58.185 C114.144,58.574 113.477,59.545 113.449,60.678 C113.422,61.779 114.007,62.754 114.948,63.197 C115.346,63.473 115.809,63.619 116.296,63.619 C117.202,63.619 118.109,63.119 118.664,62.314 C119.149,61.611 119.278,60.787 119.024,60.041 C118.744,58.828 117.583,57.924 116.289,57.924" id="Fill-19" fill="#FFFFFE"></path>
            <path d="M32.912,73.559 C32.543,73.559 32.174,73.609 31.91,73.685 C30.275,73.965 28.951,75.209 28.454,76.932 C27.958,78.652 28.416,80.406 29.586,81.449 C30.404,82.318 31.549,82.797 32.808,82.797 C34.845,82.797 36.67,81.535 37.224,79.799 C37.767,78.453 37.584,76.951 36.724,75.676 C35.843,74.369 34.383,73.559 32.912,73.559" id="Fill-20" fill="#FFFFFE"></path>
            <path d="M54.674,71.652 L54.353,71.303 L54.205,71.31 C53.422,70.305 52.633,69.264 51.848,68.199 L51.902,68.185 L51.186,67.017 C50.151,65.33 49.265,63.535 48.551,61.684 L48.427,61.461 C48.417,61.41 48.407,61.357 48.397,61.307 L48.356,61.162 C47.876,59.851 47.567,58.746 47.381,57.984 L47.476,57.982 L47.529,57.855 C53.61,57.246 59.819,56.889 65.829,56.541 C71.791,56.197 77.956,55.84 84.005,55.241 C85.468,55.095 86.571,53.985 86.817,52.415 C87.072,50.78 86.283,49.218 84.897,48.616 L84.725,48.559 C84.001,48.392 83.213,48.311 82.315,48.311 C81.516,48.311 80.721,48.374 79.953,48.434 C79.492,48.472 79.031,48.509 78.553,48.532 C69.282,49.171 59.857,49.769 50.743,50.348 L47.149,50.575 C47.209,49.553 47.293,48.527 47.376,47.526 L47.403,47.198 C52.239,46.805 57.154,46.507 61.916,46.218 C64.422,46.065 66.928,45.913 69.515,45.738 C69.737,45.704 69.974,45.683 70.217,45.659 C71.425,45.545 73.081,45.388 73.833,43.898 C74.476,42.893 74.514,41.558 73.933,40.412 C73.396,39.353 72.415,38.681 71.264,38.609 C65.724,38.508 56.356,39.061 51.512,39.348 C50.963,39.38 50.455,39.409 50.012,39.434 C50.505,38.496 51.007,37.602 51.605,36.768 L51.671,36.664 C52.892,34.423 54.599,32.407 56.748,30.672 L57.319,30.672 L57.374,30.187 C65.678,23.781 75.308,23.456 77.159,23.456 C77.452,23.456 77.615,23.463 77.632,23.464 C90.623,24.032 102.397,34.365 104.279,46.677 C102.658,47.142 100.923,47.184 99.102,47.229 C97.268,47.275 95.372,47.323 93.458,47.847 C92.063,48.333 91.212,49.738 91.34,51.345 C91.468,52.965 92.542,54.229 94.107,54.505 C95.833,54.64 97.87,54.509 99.736,54.364 C101.524,54.225 103.46,54.097 105.055,54.224 C104.296,61.711 101.162,68.373 96.153,73.082 C90.964,78.217 83.594,81.162 75.934,81.162 C71.055,81.162 66.385,79.935 62.389,77.598 C59.488,76.074 56.893,74.074 54.674,71.652 Z M123.471,48.909 C123.237,47.456 122.225,46.328 120.891,46.036 L120.757,46.016 C119.152,45.884 117.534,46.012 115.988,46.136 C114.662,46.241 113.301,46.352 111.976,46.284 L111.92,46.235 L111.784,46.245 L111.772,46.165 L111.731,46.165 C111.715,46.075 111.699,45.985 111.683,45.895 C111.589,45.37 111.493,44.837 111.394,44.354 L111.406,44.351 L111.328,44.04 C111.287,43.854 111.246,43.681 111.203,43.52 L111.104,42.561 L110.948,42.561 C110.37,40.447 109.626,38.466 108.732,36.663 L108.67,36.555 C108.159,35.78 107.666,34.992 107.173,34.204 C107.043,33.997 106.915,33.79 106.785,33.583 L106.796,33.581 L106.029,32.393 C104.931,30.69 103.563,28.727 101.793,27.112 C95.203,20.236 85.671,16.293 75.644,16.293 C69.787,16.293 64.074,17.678 59.119,20.299 C48.842,25.784 41.626,36.022 40.273,47.034 C40.13,47.567 40.074,48.126 40.02,48.668 C39.906,49.806 39.795,50.554 39.289,50.956 C37.283,51.329 35.18,51.408 33.143,51.485 C30.906,51.569 28.592,51.657 26.287,52.132 C24.678,52.52 23.705,54.051 23.92,55.852 C24.134,57.648 25.429,58.902 27.069,58.902 L27.162,58.9 L27.64,58.902 C30.368,58.902 33.114,58.691 35.771,58.486 C37.272,58.371 38.817,58.252 40.345,58.172 L40.365,58.271 C40.428,58.598 40.49,58.924 40.554,59.248 C40.494,59.252 40.435,59.256 40.375,59.258 C39.01,59.34 37.598,59.426 36.208,59.721 C35.021,59.969 34.114,60.873 33.784,62.137 C33.44,63.451 33.829,64.834 34.816,65.693 C35.842,66.498 37.078,66.592 37.917,66.592 C38.477,66.592 39.04,66.545 39.585,66.498 C40.082,66.457 40.576,66.414 41.048,66.414 C42.338,66.414 42.918,66.74 43.296,67.726 C49.085,80.053 62.084,88.334 75.642,88.336 C75.642,88.336 75.643,88.336 75.644,88.336 C76.006,88.336 76.365,88.33 76.703,88.318 C89.163,88.223 101.178,81.166 107.288,70.385 C110.31,65.641 111.29,60.16 112.238,54.86 L112.439,53.741 C113.736,53.352 115.131,53.308 116.599,53.26 C118.291,53.204 120.04,53.147 121.743,52.543 L121.918,52.462 C123.096,51.765 123.705,50.37 123.471,48.909 Z" id="Fill-21" fill="#FFFFFE"></path>
        </g>
    </g>
</svg>