<?xml version="1.0" encoding="UTF-8"?>
<svg width="604px" height="408px" viewBox="0 0 604 408" version="1.1" xmlns="http://www.w3.org/2000/svg" xmlns:xlink="http://www.w3.org/1999/xlink">
    <!-- Generator: Sketch 48.2 (47327) - http://www.bohemiancoding.com/sketch -->
    <title>embeddedPlanet</title>
    <desc>Created with Sketch.</desc>
    <defs>
        <polygon id="path-1" points="0.06 0.996 604 0.996 604 408.94 0.06 408.94"></polygon>
    </defs>
    <g id="Page-1" stroke="none" stroke-width="1" fill="none" fill-rule="evenodd">
        <g id="embeddedPlanet" transform="translate(0.000000, -1.000000)">
            <g id="Group-3">
                <mask id="mask-2" fill="white">
                    <use xlink:href="#path-1"></use>
                </mask>
                <g id="Clip-2"></g>
                <polygon id="Fill-1" fill="#3E6172" mask="url(#mask-2)" points="0.06 408.94 604 408.94 604 0.996 0.06 0.996"></polygon>
            </g>
            <path d="M245.493,192.456 C245.493,190.231 246.582,189.048 248.806,189.001 L268.781,189.001 L268.781,194.587 L251.978,194.587 L251.978,201.497 L264.521,201.497 L264.521,203.627 C264.568,205.851 263.432,206.941 261.113,206.941 L251.978,206.941 L251.978,215.271 L268.781,215.271 L268.781,221.187 L245.493,221.187 L245.493,192.456" id="Fill-4" fill="#FFFFFE"></path>
            <path d="M278.39,205.188 L278.39,221.187 L272,221.187 L272,206.467 C272,199.319 275.598,195.77 282.745,195.77 C285.963,195.77 288.425,196.479 290.224,197.899 C292.022,196.527 294.483,195.864 297.702,195.864 C304.849,195.864 308.399,199.415 308.352,206.562 L308.352,221.283 L305.086,221.283 C303.003,221.141 301.962,220.146 301.962,218.158 L301.962,205.284 C301.82,202.681 300.4,201.402 297.607,201.402 C294.815,201.402 293.395,202.681 293.348,205.284 L293.348,221.187 L287.005,221.187 L287.005,205.188 C286.863,202.586 285.443,201.308 282.65,201.308 C279.857,201.308 278.438,202.586 278.39,205.188" id="Fill-5" fill="#FFFFFE"></path>
            <path d="M318.293,208.598 C318.246,213.662 319.949,216.219 323.547,216.219 C327.145,216.219 328.942,213.662 328.942,208.598 C328.801,203.768 327.05,201.402 323.642,201.402 C320.233,201.402 318.482,203.768 318.293,208.598 Z M318.293,199.651 C319.902,197.048 322.269,195.77 325.393,195.77 C332.066,196.007 335.38,200.361 335.38,208.881 C335.38,217.213 331.499,221.426 323.736,221.566 C315.927,221.613 311.998,217.875 311.998,210.35 L311.998,189.001 L315.169,189.001 C317.252,189.001 318.293,190.09 318.293,192.173 L318.293,199.651 Z" id="Fill-6" fill="#FFFFFE"></path>
            <path d="M344.61,205.946 L354.029,205.946 C353.65,202.633 352.089,200.929 349.391,200.929 C346.692,200.929 345.083,202.633 344.61,205.946 Z M349.391,221.756 C341.817,221.519 338.031,217.117 338.031,208.598 C338.031,200.077 341.865,195.817 349.485,195.77 C357.438,195.77 361.177,200.645 360.703,210.443 L344.516,210.443 C344.752,214.277 346.408,216.219 349.485,216.219 C350.953,216.219 352.325,215.603 353.556,214.42 C354.124,213.805 354.834,213.519 355.686,213.519 L360.324,213.519 C358.952,218.822 355.544,221.756 349.391,221.756 Z" id="Fill-7" fill="#FFFFFE"></path>
            <path d="M369.84,208.598 C369.792,213.662 371.496,216.219 375.094,216.219 C378.69,216.219 380.489,213.662 380.489,208.598 C380.348,203.768 378.597,201.402 375.188,201.402 C371.78,201.402 370.029,203.768 369.84,208.598 Z M386.737,192.173 L386.737,210.35 C386.737,217.875 382.809,221.613 374.999,221.566 C367.236,221.426 363.355,217.213 363.355,208.881 C363.355,200.361 366.668,196.007 373.342,195.77 C376.466,195.77 378.88,197.048 380.489,199.651 L380.489,189.001 L383.613,189.001 C385.317,189.001 386.737,190.469 386.737,192.173 Z" id="Fill-8" fill="#FFFFFE"></path>
            <path d="M395.778,208.598 C395.73,213.662 397.435,216.219 401.032,216.219 C404.629,216.219 406.428,213.662 406.428,208.598 C406.286,203.768 404.535,201.402 401.127,201.402 C397.719,201.402 395.968,203.768 395.778,208.598 Z M412.676,192.173 L412.676,210.35 C412.676,217.875 408.747,221.613 400.938,221.566 C393.175,221.426 389.294,217.213 389.294,208.881 C389.294,200.361 392.606,196.007 399.281,195.77 C402.404,195.77 404.818,197.048 406.428,199.651 L406.428,189.001 L409.552,189.001 C411.256,189.001 412.676,190.469 412.676,192.173 Z" id="Fill-9" fill="#FFFFFE"></path>
            <path d="M421.907,205.946 L431.326,205.946 C430.947,202.633 429.386,200.929 426.688,200.929 C423.989,200.929 422.38,202.633 421.907,205.946 Z M426.688,221.756 C419.114,221.519 415.328,217.117 415.328,208.598 C415.328,200.077 419.162,195.817 426.782,195.77 C434.734,195.77 438.474,200.645 438,210.443 L421.813,210.443 C422.049,214.277 423.705,216.219 426.782,216.219 C428.25,216.219 429.622,215.603 430.853,214.42 C431.421,213.805 432.131,213.519 432.982,213.519 L437.621,213.519 C436.249,218.822 432.841,221.756 426.688,221.756 Z" id="Fill-10" fill="#FFFFFE"></path>
            <path d="M447.137,208.598 C447.089,213.662 448.793,216.219 452.391,216.219 C455.987,216.219 457.786,213.662 457.786,208.598 C457.645,203.768 455.894,201.402 452.485,201.402 C449.077,201.402 447.326,203.768 447.137,208.598 Z M464.034,192.173 L464.034,210.35 C464.034,217.875 460.105,221.613 452.296,221.566 C444.533,221.426 440.652,217.213 440.652,208.881 C440.652,200.361 443.965,196.007 450.639,195.77 C453.763,195.77 456.177,197.048 457.786,199.651 L457.786,189.001 L460.91,189.001 C462.614,189.001 464.034,190.469 464.034,192.173 Z" id="Fill-11" fill="#FFFFFE"></path>
            <path d="M403.925,233.555 C405.809,233.582 406.751,232.693 406.751,230.918 C406.751,229.141 405.862,228.252 404.113,228.252 L400.291,228.252 L400.291,233.555 L403.925,233.555 Z M404.867,236.865 L400.237,236.865 L400.237,243.379 L396.496,243.379 L396.496,227.041 C396.496,225.992 397.33,225.076 398.38,225.076 L404.598,225.076 C408.474,225.076 410.492,227.148 410.492,230.971 C410.492,234.578 408.527,236.865 404.867,236.865 Z" id="Fill-12" fill="#FFFFFE"></path>
            <path d="M415.742,226.826 L415.742,243.379 L412.162,243.379 L412.162,225.076 L414.02,225.076 C414.961,225.076 415.742,225.885 415.742,226.826" id="Fill-13" fill="#FFFFFE"></path>
            <path d="M425.97,237.539 L425.97,236.221 C425.136,236.57 424.167,236.865 423.117,237.082 C421.69,237.35 420.964,238.023 420.964,239.072 C421.044,240.203 421.637,240.742 422.767,240.742 C424.759,240.742 425.97,239.557 425.97,237.539 Z M421.448,232.855 L417.868,232.855 C418.299,230.217 420.156,228.926 423.439,228.926 C427.369,228.926 429.361,230.217 429.442,232.855 L429.442,237.701 C429.442,241.631 427.073,243.379 423.225,243.648 C419.806,243.918 417.438,242.33 417.438,239.18 C417.519,235.762 419.994,234.848 423.602,234.498 C425.136,234.309 425.916,233.851 425.916,233.07 C425.835,232.264 425.082,231.859 423.602,231.859 C422.336,231.859 421.637,232.182 421.448,232.855 Z" id="Fill-14" fill="#FFFFFE"></path>
            <path d="M441.475,243.379 C440.29,243.299 439.698,242.734 439.698,241.603 L439.698,234.281 C439.617,232.801 438.81,232.074 437.222,232.074 C435.634,232.074 434.826,232.801 434.8,234.281 L434.8,243.379 L431.166,243.379 L431.166,235.008 C431.166,230.943 433.211,228.926 437.275,228.926 C441.34,228.926 443.332,230.943 443.305,235.008 L443.305,243.379 L441.475,243.379" id="Fill-15" fill="#FFFFFE"></path>
            <path d="M448.555,234.713 L453.911,234.713 C453.695,232.828 452.807,231.859 451.272,231.859 C449.738,231.859 448.823,232.828 448.555,234.713 Z M451.272,243.703 C446.966,243.568 444.813,241.064 444.813,236.221 C444.813,231.375 446.993,228.953 451.327,228.926 C455.849,228.926 457.975,231.697 457.706,237.269 L448.5,237.269 C448.635,239.449 449.577,240.553 451.327,240.553 C452.161,240.553 452.941,240.203 453.642,239.531 C453.965,239.18 454.368,239.019 454.853,239.019 L457.49,239.019 C456.71,242.033 454.772,243.703 451.272,243.703 Z" id="Fill-16" fill="#FFFFFE"></path>
            <path d="M463.332,231.697 L462.955,231.697 L462.955,239.584 C462.955,240.176 463.306,240.5 464.005,240.5 L465.109,240.5 L465.109,243.219 C463.951,243.326 462.687,243.326 461.341,243.191 C459.995,243.057 459.349,242.223 459.376,240.635 L459.376,225.076 L461.232,225.076 C462.175,225.076 462.955,225.937 462.955,226.879 L462.955,229.141 L465.109,229.141 L465.109,229.922 C465.109,230.943 464.328,231.697 463.332,231.697" id="Fill-17" fill="#FFFFFE"></path>
            <path d="M223.868,176.877 C224.577,177.513 225.518,177.862 226.515,177.862 C228.479,177.862 230.666,176.43 230.813,174.108 C230.993,172.992 230.673,171.879 229.909,170.967 C229.061,169.954 227.792,169.35 226.515,169.35 C225.828,169.35 225.156,169.53 224.654,169.829 C223.37,170.425 222.513,171.684 222.363,173.196 C222.213,174.704 222.804,176.102 223.868,176.877" id="Fill-18" fill="#FFFFFE"></path>
            <path d="M231.289,207.924 C230.891,207.924 230.501,208.014 230.156,208.185 C229.144,208.574 228.477,209.545 228.449,210.678 C228.422,211.779 229.007,212.754 229.948,213.197 C230.346,213.473 230.809,213.619 231.296,213.619 C232.202,213.619 233.109,213.119 233.664,212.314 C234.149,211.611 234.278,210.787 234.024,210.041 C233.744,208.828 232.583,207.924 231.289,207.924" id="Fill-19" fill="#FFFFFE"></path>
            <path d="M147.912,223.559 C147.543,223.559 147.174,223.609 146.91,223.685 C145.275,223.965 143.951,225.209 143.454,226.932 C142.958,228.652 143.416,230.406 144.586,231.449 C145.404,232.318 146.549,232.797 147.808,232.797 C149.845,232.797 151.67,231.535 152.224,229.799 C152.767,228.453 152.584,226.951 151.724,225.676 C150.843,224.369 149.383,223.559 147.912,223.559" id="Fill-20" fill="#FFFFFE"></path>
            <path d="M169.674,221.652 L169.353,221.303 L169.205,221.31 C168.422,220.305 167.633,219.264 166.848,218.199 L166.902,218.185 L166.186,217.017 C165.151,215.33 164.265,213.535 163.551,211.684 L163.427,211.461 C163.417,211.41 163.407,211.357 163.397,211.307 L163.356,211.162 C162.876,209.851 162.567,208.746 162.381,207.984 L162.476,207.982 L162.529,207.855 C168.61,207.246 174.819,206.889 180.829,206.541 C186.791,206.197 192.956,205.84 199.005,205.241 C200.468,205.095 201.571,203.985 201.817,202.415 C202.072,200.78 201.283,199.218 199.897,198.616 L199.725,198.559 C199.001,198.392 198.213,198.311 197.315,198.311 C196.516,198.311 195.721,198.374 194.953,198.434 C194.492,198.472 194.031,198.509 193.553,198.532 C184.282,199.171 174.857,199.769 165.743,200.348 L162.149,200.575 C162.209,199.553 162.293,198.527 162.376,197.526 L162.403,197.198 C167.239,196.805 172.154,196.507 176.916,196.218 C179.422,196.065 181.928,195.913 184.515,195.738 C184.737,195.704 184.974,195.683 185.217,195.659 C186.425,195.545 188.081,195.388 188.833,193.898 C189.476,192.893 189.514,191.558 188.933,190.412 C188.396,189.353 187.415,188.681 186.264,188.609 C180.724,188.508 171.356,189.061 166.512,189.348 C165.963,189.38 165.455,189.409 165.012,189.434 C165.505,188.496 166.007,187.602 166.605,186.768 L166.671,186.664 C167.892,184.423 169.599,182.407 171.748,180.672 L172.319,180.672 L172.374,180.187 C180.678,173.781 190.308,173.456 192.159,173.456 C192.452,173.456 192.615,173.463 192.632,173.464 C205.623,174.032 217.397,184.365 219.279,196.677 C217.658,197.142 215.923,197.184 214.102,197.229 C212.268,197.275 210.372,197.323 208.458,197.847 C207.063,198.333 206.212,199.738 206.34,201.345 C206.468,202.965 207.542,204.229 209.107,204.505 C210.833,204.64 212.87,204.509 214.736,204.364 C216.524,204.225 218.46,204.097 220.055,204.224 C219.296,211.711 216.162,218.373 211.153,223.082 C205.964,228.217 198.594,231.162 190.934,231.162 C186.055,231.162 181.385,229.935 177.389,227.598 C174.488,226.074 171.893,224.074 169.674,221.652 Z M238.471,198.909 C238.237,197.456 237.225,196.328 235.891,196.036 L235.757,196.016 C234.152,195.884 232.534,196.012 230.988,196.136 C229.662,196.241 228.301,196.352 226.976,196.284 L226.92,196.235 L226.784,196.245 L226.772,196.165 L226.731,196.165 C226.715,196.075 226.699,195.985 226.683,195.895 C226.589,195.37 226.493,194.837 226.394,194.354 L226.406,194.351 L226.328,194.04 C226.287,193.854 226.246,193.681 226.203,193.52 L226.104,192.561 L225.948,192.561 C225.37,190.447 224.626,188.466 223.732,186.663 L223.67,186.555 C223.159,185.78 222.666,184.992 222.173,184.204 C222.043,183.997 221.915,183.79 221.785,183.583 L221.796,183.581 L221.029,182.393 C219.931,180.69 218.563,178.727 216.793,177.112 C210.203,170.236 200.671,166.293 190.644,166.293 C184.787,166.293 179.074,167.678 174.119,170.299 C163.842,175.784 156.626,186.022 155.273,197.034 C155.13,197.567 155.074,198.126 155.02,198.668 C154.906,199.806 154.795,200.554 154.289,200.956 C152.283,201.329 150.18,201.408 148.143,201.485 C145.906,201.569 143.592,201.657 141.287,202.132 C139.678,202.52 138.705,204.051 138.92,205.852 C139.134,207.648 140.429,208.902 142.069,208.902 L142.162,208.9 L142.64,208.902 C145.368,208.902 148.114,208.691 150.771,208.486 C152.272,208.371 153.817,208.252 155.345,208.172 L155.365,208.271 C155.428,208.598 155.49,208.924 155.554,209.248 C155.494,209.252 155.435,209.256 155.375,209.258 C154.01,209.34 152.598,209.426 151.208,209.721 C150.021,209.969 149.114,210.873 148.784,212.137 C148.44,213.451 148.829,214.834 149.816,215.693 C150.842,216.498 152.078,216.592 152.917,216.592 C153.477,216.592 154.04,216.545 154.585,216.498 C155.082,216.457 155.576,216.414 156.048,216.414 C157.338,216.414 157.918,216.74 158.296,217.726 C164.085,230.053 177.084,238.334 190.642,238.336 C190.642,238.336 190.643,238.336 190.644,238.336 C191.006,238.336 191.365,238.33 191.703,238.318 C204.163,238.223 216.178,231.166 222.288,220.385 C225.31,215.641 226.29,210.16 227.238,204.86 L227.439,203.741 C228.736,203.352 230.131,203.308 231.599,203.26 C233.291,203.204 235.04,203.147 236.743,202.543 L236.918,202.462 C238.096,201.765 238.705,200.37 238.471,198.909 Z" id="Fill-21" fill="#FFFFFE"></path>
        </g>
    </g>
</svg>