<?xml version="1.0" encoding="UTF-8"?>
<svg width="595px" height="235px" viewBox="0 0 595 235" version="1.1" xmlns="http://www.w3.org/2000/svg" xmlns:xlink="http://www.w3.org/1999/xlink">
    <!-- Generator: Sketch 48.2 (47327) - http://www.bohemiancoding.com/sketch -->
    <title>linode</title>
    <desc>Created with Sketch.</desc>
    <defs>
        <polygon id="path-1" points="0 0.226 195.798513 0.226 195.798513 234.94 0 234.94"></polygon>
    </defs>
    <g id="Page-1" stroke="none" stroke-width="1" fill="none" fill-rule="evenodd">
        <g id="linode">
            <path d="M240.835,71.7 L256.337,67.979 L256.337,142.641 C256.337,150.826 258.777,155.708 263.655,157.274 C261.258,161.826 257.165,164.099 251.377,164.099 C244.348,164.099 240.835,159.223 240.835,149.463 L240.835,71.7" id="Fill-1" fill="#1A1919"></path>
            <path d="M287.779,70.709 C290.26,70.709 292.375,71.588 294.133,73.343 C295.89,75.101 296.77,77.219 296.77,79.7 C296.77,82.18 295.89,84.299 294.133,86.056 C292.375,87.813 290.26,88.691 287.779,88.691 C285.299,88.691 283.18,87.813 281.423,86.056 C279.664,84.299 278.786,82.18 278.786,79.7 C278.786,77.219 279.664,75.101 281.423,73.343 C283.18,71.588 285.299,70.709 287.779,70.709 Z M279.78,162.858 L279.78,109.155 L271.284,109.155 L271.284,96.443 L295.47,96.443 L295.47,162.858 L279.78,162.858 Z" id="Fill-2" fill="#1A1919"></path>
            <path d="M356.239,162.858 L356.239,124.472 C356.239,118.809 355.153,114.673 352.985,112.07 C350.812,109.465 347.268,108.163 342.351,108.163 C340.075,108.163 337.647,108.805 335.063,110.085 C332.479,111.367 330.462,112.96 329.016,114.86 L329.016,162.858 L313.514,162.858 L313.514,96.443 L324.676,96.443 L327.528,102.645 C331.747,97.683 337.966,95.203 346.194,95.203 C354.09,95.203 360.321,97.57 364.891,102.301 C369.459,107.039 371.742,113.642 371.742,122.114 L371.742,162.858 L356.239,162.858" id="Fill-3" fill="#1A1919"></path>
            <path d="M400.27,129.494 C400.27,144.131 405.541,151.448 416.083,151.448 C420.917,151.448 424.752,149.546 427.587,145.743 C430.418,141.94 431.833,136.525 431.833,129.494 C431.833,115.068 426.582,107.854 416.083,107.854 C411.245,107.854 407.401,109.755 404.549,113.559 C401.696,117.361 400.27,122.674 400.27,129.494 Z M384.145,129.494 C384.145,119.366 387.069,111.12 392.92,104.753 C398.771,98.386 406.491,95.203 416.083,95.203 C426.168,95.203 434.005,98.262 439.585,104.381 C445.166,110.499 447.959,118.871 447.959,129.494 C447.959,140.078 445.116,148.494 439.428,154.733 C433.745,160.976 425.963,164.099 416.083,164.099 C405.995,164.099 398.152,160.945 392.549,154.643 C386.948,148.338 384.145,139.953 384.145,129.494 Z" id="Fill-4" fill="#1A1919"></path>
            <path d="M503.083,112.318 C499.778,109.673 496.327,108.35 492.729,108.35 C486.528,108.35 481.751,110.24 478.407,114.023 C475.057,117.807 473.38,123.23 473.38,130.302 C473.38,144.108 480.038,151.014 493.351,151.014 C494.838,151.014 496.666,150.57 498.839,149.68 C501.008,148.792 502.422,147.891 503.083,146.982 L503.083,112.318 Z M503.083,162.858 L503.083,158.828 C501.801,160.234 499.635,161.466 496.574,162.518 C493.516,163.573 490.351,164.099 487.087,164.099 C477.824,164.099 470.536,161.163 465.225,155.294 C459.915,149.424 457.257,141.234 457.257,130.735 C457.257,120.235 460.306,111.687 466.407,105.094 C472.503,98.5 480.14,95.203 489.317,95.203 C494.364,95.203 498.95,96.236 503.083,98.303 L503.083,71.7 L518.587,67.979 L518.587,162.858 L503.083,162.858 Z" id="Fill-5" fill="#1A1919"></path>
            <path d="M546.495,122.737 L579.113,122.737 C578.037,113.021 572.666,108.163 562.991,108.163 C554.142,108.163 548.645,113.021 546.495,122.737 Z M593.377,134.395 L545.936,134.395 C546.226,139.686 548.044,143.801 551.393,146.735 C554.743,149.67 559.249,151.138 564.915,151.138 C571.981,151.138 577.357,149.298 581.035,145.62 L587.053,157.461 C581.593,161.89 573.448,164.099 562.617,164.099 C552.487,164.099 544.477,161.132 538.589,155.197 C532.695,149.267 529.748,140.988 529.748,130.363 C529.748,119.906 532.986,111.43 539.456,104.939 C545.926,98.448 553.687,95.203 562.743,95.203 C572.373,95.203 580.106,98.077 585.933,103.822 C591.765,109.57 594.676,116.886 594.676,125.775 C594.676,127.678 594.243,130.55 593.377,134.395 Z" id="Fill-6" fill="#1A1919"></path>
            <path d="M48.913,105.769 L40.005,44.953 L3.441,22.218 L15.316,79.585 L48.913,105.769 Z M59.086,175.316 L52.81,132.43 L20.733,105.705 L29.345,147.298 L59.086,175.316 Z M34.174,170.592 L40.523,201.266 L67.004,229.374 L62.471,198.423 L34.174,170.592 Z M119.929,157.294 L106.397,146.966 L106.5,149.387 C106.523,149.874 106.289,150.338 105.881,150.613 L95.676,157.489 L106.774,166.548 C106.782,166.554 106.788,166.563 106.796,166.57 C106.825,166.595 106.848,166.625 106.875,166.652 C106.931,166.708 106.985,166.766 107.03,166.831 C107.055,166.867 107.075,166.904 107.097,166.943 C107.134,167.007 107.167,167.072 107.193,167.141 C107.209,167.183 107.222,167.225 107.234,167.269 C107.254,167.342 107.267,167.416 107.275,167.493 C107.278,167.521 107.288,167.548 107.29,167.577 L107.743,178.18 L120.192,188.659 L119.929,157.294 Z M166.32,124.104 L163.673,154.692 L154.908,148.593 L155.856,132.993 C155.857,132.976 155.852,132.959 155.852,132.942 C155.852,132.922 155.859,132.902 155.858,132.882 C155.857,132.82 155.841,132.76 155.832,132.7 C155.825,132.656 155.824,132.612 155.813,132.57 C155.786,132.461 155.746,132.356 155.694,132.257 C155.69,132.248 155.688,132.239 155.683,132.23 C155.624,132.122 155.547,132.023 155.461,131.933 C155.443,131.915 155.422,131.901 155.403,131.884 C155.347,131.831 155.292,131.776 155.226,131.732 L136.369,119.278 L136.643,105.612 L166.32,124.104 Z" id="Fill-7" fill="#073D1A"></path>
            <g id="Group-11">
                <mask id="mask-2" fill="white">
                    <use xlink:href="#path-1"></use>
                </mask>
                <g id="Clip-9"></g>
                <path d="M100.785,81.445 L98.315,23.704 L42.859,45.014 L51.921,106.873 L100.785,81.445 Z M103.655,148.719 L101.841,106.152 L55.656,132.44 L62.132,176.692 L103.655,148.719 Z M104.589,170.294 L65.311,198.396 L70.083,230.964 L105.96,202.382 L104.589,170.294 Z M122.746,157.315 L123.008,188.8 L151.001,166.473 L152.867,135.769 L122.746,157.315 Z M192.563,107.371 L188.627,136.498 L166.55,154.096 L169.142,124.134 L192.563,107.371 Z" id="Fill-8" fill="#00A756" mask="url(#mask-2)"></path>
                <path d="M107.29,167.577 C107.288,167.548 107.278,167.521 107.275,167.493 C107.267,167.416 107.254,167.342 107.234,167.269 C107.222,167.225 107.209,167.183 107.193,167.141 C107.167,167.072 107.134,167.007 107.097,166.943 C107.075,166.904 107.055,166.867 107.03,166.831 C106.985,166.766 106.931,166.708 106.875,166.652 C106.848,166.625 106.825,166.595 106.796,166.57 C106.788,166.563 106.782,166.554 106.774,166.548 L95.676,157.489 L105.881,150.613 C106.289,150.338 106.523,149.874 106.5,149.387 L106.397,146.966 L119.929,157.294 L120.192,188.659 L107.743,178.18 L107.29,167.577 Z M52.81,132.43 L59.086,175.316 L29.345,147.298 L20.733,105.705 L52.81,132.43 Z M103.655,148.719 L62.132,176.692 L55.656,132.44 L101.841,106.152 L103.655,148.719 Z M98.315,23.704 L100.785,81.445 L51.921,106.873 L42.859,45.014 L98.315,23.704 Z M40.005,44.953 L48.913,105.769 L15.316,79.585 L3.441,22.218 L40.005,44.953 Z M40.523,201.266 L34.174,170.592 L62.471,198.423 L67.004,229.374 L40.523,201.266 Z M105.96,202.382 L70.083,230.964 L65.311,198.396 L104.589,170.294 L105.96,202.382 Z M151.001,166.473 L123.008,188.8 L122.746,157.315 L152.867,135.769 L151.001,166.473 Z M154.908,148.593 L155.856,132.993 C155.857,132.976 155.852,132.959 155.852,132.942 C155.852,132.922 155.859,132.902 155.858,132.882 C155.857,132.82 155.841,132.76 155.832,132.7 C155.825,132.656 155.824,132.612 155.813,132.57 C155.786,132.461 155.746,132.356 155.694,132.257 C155.69,132.248 155.688,132.239 155.683,132.23 C155.624,132.122 155.547,132.023 155.461,131.933 C155.443,131.915 155.422,131.901 155.403,131.884 C155.347,131.831 155.292,131.776 155.226,131.732 L136.369,119.278 L136.643,105.612 L166.32,124.104 L163.673,154.692 L154.908,148.593 Z M166.55,154.096 L169.142,124.134 L192.563,107.371 L188.627,136.498 L166.55,154.096 Z M195.798,104.247 C195.797,104.22 195.787,104.196 195.784,104.169 C195.778,104.118 195.767,104.07 195.756,104.02 C195.738,103.942 195.715,103.868 195.685,103.794 C195.667,103.75 195.648,103.708 195.625,103.666 C195.586,103.593 195.539,103.526 195.487,103.46 C195.459,103.425 195.434,103.39 195.403,103.358 C195.338,103.291 195.265,103.234 195.187,103.18 C195.162,103.163 195.145,103.139 195.119,103.124 C195.113,103.12 195.106,103.12 195.099,103.116 C195.091,103.111 195.085,103.103 195.076,103.099 L163.021,85.337 C162.58,85.094 162.038,85.103 161.606,85.37 L134.551,101.909 C134.507,101.936 134.473,101.973 134.433,102.004 C134.385,102.041 134.335,102.074 134.293,102.116 C134.247,102.162 134.212,102.214 134.173,102.265 C134.139,102.31 134.102,102.351 134.073,102.399 C134.039,102.458 134.016,102.523 133.991,102.586 C133.971,102.634 133.946,102.679 133.932,102.729 C133.913,102.798 133.908,102.87 133.899,102.942 C133.894,102.989 133.879,103.033 133.878,103.08 L133.59,117.443 L122.584,110.174 C122.128,109.871 121.541,109.861 121.073,110.146 L105.24,119.826 L104.553,103.729 C104.551,103.695 104.54,103.664 104.536,103.631 C104.527,103.56 104.518,103.49 104.499,103.422 C104.486,103.371 104.466,103.324 104.446,103.275 C104.422,103.215 104.398,103.156 104.367,103.1 C104.338,103.051 104.305,103.006 104.271,102.96 C104.235,102.912 104.2,102.864 104.158,102.82 C104.116,102.777 104.069,102.739 104.021,102.701 C103.99,102.676 103.965,102.645 103.932,102.623 L87.454,91.555 L102.878,83.528 C103.362,83.275 103.655,82.765 103.633,82.219 L101.043,21.627 C101.039,21.553 101.022,21.482 101.007,21.41 C101.001,21.38 101.001,21.349 100.992,21.319 C100.96,21.198 100.911,21.082 100.848,20.975 C100.837,20.955 100.821,20.939 100.809,20.921 C100.753,20.835 100.689,20.755 100.615,20.683 C100.588,20.657 100.559,20.635 100.53,20.611 C100.49,20.577 100.455,20.539 100.41,20.51 C100.376,20.487 100.337,20.475 100.3,20.455 C100.282,20.445 100.268,20.43 100.249,20.42 L58.69,0.367 C58.367,0.211 58.001,0.183 57.66,0.29 L0.978,17.946 C0.974,17.947 0.971,17.95 0.966,17.952 C0.944,17.959 0.924,17.974 0.901,17.983 C0.795,18.023 0.693,18.069 0.602,18.132 C0.599,18.134 0.596,18.134 0.594,18.136 C0.562,18.158 0.541,18.189 0.511,18.214 C0.439,18.273 0.367,18.332 0.309,18.405 C0.266,18.457 0.238,18.516 0.204,18.573 C0.17,18.63 0.131,18.683 0.105,18.744 C0.074,18.818 0.06,18.896 0.042,18.974 C0.031,19.021 0.009,19.064 0.003,19.112 C0.002,19.119 0.004,19.126 0.003,19.132 C-0.005,19.203 0.004,19.275 0.007,19.348 C0.009,19.413 0.006,19.479 0.018,19.543 C0.019,19.554 0.017,19.564 0.019,19.575 L12.667,80.661 C12.736,80.987 12.914,81.279 13.18,81.485 L30.345,94.864 L17.935,100.773 C17.913,100.784 17.895,100.801 17.874,100.812 C17.855,100.823 17.834,100.825 17.816,100.836 C17.789,100.852 17.77,100.877 17.745,100.895 C17.673,100.945 17.608,100.999 17.548,101.06 C17.513,101.095 17.479,101.128 17.449,101.167 C17.389,101.241 17.34,101.322 17.296,101.407 C17.28,101.439 17.259,101.467 17.245,101.499 C17.196,101.616 17.16,101.739 17.143,101.868 C17.143,101.873 17.144,101.878 17.143,101.883 C17.141,101.903 17.145,101.923 17.143,101.943 C17.135,102.058 17.141,102.172 17.16,102.284 C17.163,102.299 17.159,102.314 17.162,102.329 L26.677,148.303 C26.736,148.587 26.88,148.844 27.09,149.042 L39.039,160.296 L31.121,165.139 C31.018,165.201 30.928,165.278 30.846,165.363 C30.824,165.385 30.807,165.411 30.788,165.434 C30.719,165.515 30.661,165.602 30.612,165.696 C30.596,165.727 30.58,165.757 30.566,165.789 C30.514,165.912 30.472,166.039 30.456,166.176 C30.441,166.311 30.452,166.445 30.475,166.577 C30.478,166.591 30.474,166.606 30.477,166.621 L37.849,202.227 C37.902,202.48 38.023,202.715 38.202,202.905 L68.018,234.558 C68.063,234.605 68.114,234.643 68.165,234.683 C68.183,234.698 68.198,234.714 68.217,234.728 C68.31,234.796 68.41,234.851 68.514,234.894 C68.519,234.896 68.523,234.899 68.528,234.901 C68.536,234.905 68.546,234.903 68.555,234.907 C68.712,234.965 68.877,235 69.044,235 C69.183,235 69.321,234.972 69.456,234.93 C69.488,234.92 69.517,234.91 69.548,234.898 C69.584,234.884 69.621,234.877 69.656,234.859 C69.713,234.832 69.756,234.787 69.808,234.753 C69.844,234.729 69.886,234.718 69.92,234.69 L108.273,204.136 C108.625,203.854 108.821,203.423 108.803,202.976 L107.906,181.996 L120.719,192.78 C120.742,192.8 120.771,192.806 120.795,192.824 C120.867,192.878 120.937,192.934 121.02,192.974 C121.047,192.986 121.076,192.991 121.103,193.002 C121.138,193.016 121.171,193.027 121.207,193.038 C121.344,193.081 121.484,193.111 121.625,193.111 C121.763,193.111 121.899,193.083 122.034,193.042 C122.066,193.032 122.096,193.022 122.127,193.01 C122.16,192.997 122.193,192.991 122.224,192.977 C122.295,192.943 122.352,192.894 122.415,192.85 C122.443,192.831 122.475,192.824 122.501,192.803 L153.245,168.285 C153.558,168.033 153.748,167.666 153.772,167.267 L154.708,151.882 L164.062,158.393 C164.081,158.406 164.104,158.41 164.123,158.422 C164.15,158.44 164.171,158.464 164.199,158.479 C164.254,158.508 164.313,158.523 164.37,158.544 C164.409,158.559 164.446,158.577 164.486,158.588 C164.61,158.623 164.736,158.644 164.863,158.644 C165.002,158.644 165.14,158.617 165.274,158.576 C165.306,158.566 165.336,158.557 165.366,158.545 C165.398,158.533 165.431,158.527 165.462,158.513 C165.538,158.476 165.604,158.425 165.672,158.377 C165.694,158.362 165.72,158.356 165.741,158.339 L190.822,138.351 C191.106,138.124 191.29,137.795 191.339,137.436 L195.788,104.517 C195.793,104.482 195.785,104.448 195.787,104.413 C195.79,104.357 195.801,104.303 195.798,104.247 Z" id="Fill-10" fill="#1A1919" mask="url(#mask-2)"></path>
            </g>
        </g>
    </g>
</svg>