<?xml version="1.0" encoding="UTF-8"?>
<svg width="1921px" height="905px" viewBox="0 0 1921 905" version="1.1" xmlns="http://www.w3.org/2000/svg" xmlns:xlink="http://www.w3.org/1999/xlink">
    <!-- Generator: Sketch 49.2 (51160) - http://www.bohemiancoding.com/sketch -->
    <title>Group</title>
    <desc>Created with Sketch.</desc>
    <defs></defs>
    <g id="Page-1" stroke="none" stroke-width="1" fill="none" fill-rule="evenodd">
        <g id="Group" transform="translate(0.000000, -64.000000)">
            <path d="M1920.1,64.1683525 C1888.8,66.2683525 1857.6,69.7683525 1834.3,79.5683525 C1792.7,96.9683525 1757.2,153.868353 1710.5,159.868353 C1645.1,168.368353 1555.1,137.368353 1495.2,166.468353 C1449.8,188.468353 1443.7,225.768353 1412.1,253.368353 C1394.5,268.768353 1097,396.968353 1069.6,400.868353 C1047.7,403.968353 1002.1,405.568353 981.39998,400.868353 C941.59998,391.768353 922.39998,356.868353 886.49998,342.968353 C826.09998,319.468353 749.99998,329.468353 693.19998,307.368353 C653.39998,291.868353 669.09998,245.768353 581.3,223.068353 C464.8,192.868353 284.2,246.068353 181.2,199.368353 C161.6,190.468353 72.4,170.168353 0,159.468353 L0,780.268353 L1920,848.168353 L1920,64.1683525 L1920.1,64.1683525 Z" id="path5984" fill="#4C1889" fill-rule="nonzero"></path>
            <path d="M1890.3891,167.063653 C1886.82364,167.046163 1883.5934,169.162721 1882.1859,172.438653 C1877.427,183.098353 1872.4573,188.277953 1865.8695,191.993353 C1860.5058,195.018353 1853.5784,196.968753 1844.7816,198.669153 C1840.9985,195.975353 1837.0321,193.527153 1832.85,191.387853 C1819.8538,184.739853 1804.9678,181.149453 1788.3402,181.421053 C1778.3637,181.584053 1767.7587,183.136653 1756.5609,186.253153 C1753.5042,187.104052 1751.13365,189.521067 1750.34225,192.59371 C1749.55084,195.666352 1750.45881,198.9278 1752.72413,201.149467 C1754.98944,203.371133 1758.26793,204.215484 1761.3246,203.364453 C1787.7678,196.004853 1807.9779,198.612653 1824.7621,207.198453 C1825.6787,207.667253 1826.5812,208.163953 1827.4789,208.671053 C1824.6741,211.870553 1822.1595,215.220953 1819.973,218.753153 C1813.971,214.430753 1807.8313,210.760653 1801.1664,208.278553 C1796.5742,206.568253 1791.7048,205.489953 1786.6586,205.208153 C1781.6123,204.926453 1776.3881,205.440753 1771.0902,206.915253 C1767.99405,207.731579 1765.57706,210.151375 1764.76431,213.248465 C1763.95157,216.345554 1764.86894,219.640358 1767.16528,221.871791 C1769.46163,224.103223 1772.78138,224.925752 1775.8539,224.024553 C1782.9437,222.051453 1788.6424,222.565553 1794.9672,224.921053 C1800.3788,226.936553 1806.167,230.524553 1812.4477,235.284353 C1810.6725,240.998953 1809.5391,247.093053 1809.0648,253.604653 C1807.79062,255.804364 1807.52017,258.444647 1808.32193,260.856999 C1809.12369,263.269352 1810.92079,265.222475 1813.2582,266.221853 C1814.91521,267.180222 1816.83752,267.577557 1818.7387,267.354653 C1825.7004,268.626653 1829.1671,270.716053 1831.9457,273.352753 C1835.1011,276.346853 1837.5816,280.886153 1841.0727,287.049953 C1842.61975,289.842842 1845.54692,291.59036 1848.73945,291.626999 C1851.93198,291.663638 1854.89848,289.983759 1856.50922,287.22711 C1858.11996,284.470461 1858.12702,281.061344 1856.5277,278.298053 C1853.2513,272.513153 1850.1135,266.109353 1844.1703,260.469953 C1839.8926,256.410753 1834.2566,253.191253 1827.0941,251.132053 C1828.5778,237.806653 1833.2521,228.273353 1841.9574,219.124253 C1851.1705,227.346653 1859.206,237.765253 1866.2152,249.694553 C1875.9752,266.305153 1883.5483,285.564553 1889.6508,305.046053 C1884.475,310.934653 1880.9155,312.971453 1876.4262,314.048053 C1871.2955,315.278353 1863.6099,314.815753 1851.5453,313.727753 C1848.35555,313.386565 1845.22973,314.792113 1843.36815,317.404666 C1841.50657,320.01722 1841.19863,323.430649 1842.56256,326.334196 C1843.9265,329.237743 1846.75029,331.180043 1849.9496,331.415253 C1862.02,332.503753 1871.2426,333.553853 1880.5668,331.317253 C1885.7664,330.070453 1890.5803,327.660153 1895.1781,324.096553 C1899.0956,338.677353 1902.3084,352.942753 1905.0844,365.852453 C1892.7222,365.877453 1881.2445,361.993253 1869.6977,355.448153 C1857.9594,348.794453 1846.4177,339.401953 1834.8969,329.360253 C1834.18022,328.429436 1833.28599,327.650057 1832.266,327.067253 C1830.4992,325.513353 1828.7324,323.947953 1826.9652,322.377853 C1812.8005,309.792253 1798.633,296.924653 1783.1254,287.883653 C1776.4054,283.965953 1769.3013,280.783653 1761.891,278.803553 C1763.8349,272.996853 1766.5643,270.096253 1770.0219,267.684453 C1774.7951,264.354853 1782.1808,262.322353 1791.2016,259.241053 C1795.30903,257.900634 1797.85577,253.798654 1797.23522,249.522834 C1796.61467,245.247014 1793.00692,242.038238 1788.6879,241.920753 C1787.58985,241.890968 1786.49581,242.065148 1785.4613,242.434453 C1777.3515,245.204553 1768.2982,247.233153 1759.8617,253.118053 C1752.9563,257.935053 1747.4414,265.781053 1744.3422,276.604353 C1740.1005,276.685353 1735.7884,277.207853 1731.4125,278.284053 C1720.8087,280.891953 1709.2118,285.074053 1697.4789,289.184453 C1703.2348,279.577653 1708.5599,269.778153 1713.6547,260.065353 C1715.17284,257.268767 1715.07872,253.873671 1713.40798,251.165487 C1711.73724,248.457303 1708.74524,246.849974 1705.5648,246.952053 C1702.32129,247.055783 1699.39261,248.920397 1697.9262,251.815353 C1689.6017,267.685553 1680.8722,283.394753 1670.9047,297.672753 C1665.0343,299.230753 1659.2854,300.459253 1653.7855,301.098553 C1647.1117,301.874253 1640.9756,301.846553 1635.3949,300.811453 C1644.8278,289.011053 1651.2719,275.358253 1649.1,257.426653 C1648.60476,252.792327 1644.61126,249.329272 1639.9535,249.495053 C1637.44677,249.5843 1635.09468,250.729427 1633.47834,252.647519 C1631.86199,254.56561 1631.13214,257.077773 1631.4691,259.563353 C1633.2514,274.277753 1628.4147,282.731253 1618.7582,293.196153 C1611.91,287.531053 1605.9133,278.285453 1601.6039,262.801653 C1600.78656,259.706651 1598.36684,257.29101 1595.27046,256.478891 C1592.17408,255.666772 1588.88025,256.58386 1586.6491,258.879301 C1584.41795,261.174742 1583.59477,264.493288 1584.4945,267.565353 C1589.4202,285.263253 1597.1727,298.125053 1607.0883,306.557553 C1604.1787,309.377653 1601.5176,310.568353 1598.3188,311.416853 C1593.3292,312.740353 1586.122,312.561653 1576.2406,312.938353 C1573.04982,313.031082 1570.15426,314.829116 1568.65629,317.647937 C1567.15831,320.466759 1567.28838,323.87267 1568.99698,326.569032 C1570.70559,329.265394 1573.72984,330.83735 1576.9184,330.686453 C1585.9736,330.341253 1594.1342,330.901053 1602.8734,328.582853 C1609.8558,326.730853 1616.6075,322.528453 1622.6215,315.645353 C1633.1948,319.566953 1644.6249,320.044353 1655.8363,318.741053 C1657.8946,318.501853 1659.9564,318.199553 1662.0199,317.854353 C1660.3623,323.371953 1658.7456,327.630053 1656.9164,330.911053 C1653.8774,336.361753 1650.4552,339.752653 1643.1957,343.864153 C1640.37913,345.398874 1638.609,348.333121 1638.56489,351.540378 C1638.52078,354.747635 1640.20956,357.729448 1642.98286,359.341041 C1645.75617,360.952633 1649.18299,360.94354 1651.9477,359.317253 C1661.111,354.127453 1667.8643,347.745053 1672.4281,339.559453 C1676.5098,332.238653 1679.0055,323.911553 1681.7074,313.272353 C1698.6836,308.390953 1714.8982,301.748753 1728.2504,297.618053 C1727.8084,298.698153 1727.4531,299.783853 1727.1645,300.866053 C1711.8813,308.973353 1704.4742,315.006053 1689.0336,315.594653 C1685.84145,315.685425 1682.94381,317.483073 1681.44462,320.302735 C1679.94543,323.122397 1680.07554,326.529874 1681.78539,329.227 C1683.49524,331.924126 1686.52152,333.495571 1689.7113,333.342653 C1706.186,332.714653 1716.7367,327.004153 1728.0785,320.657153 C1730.2334,329.015553 1732.8991,335.768253 1731.5004,344.664953 C1730.96309,347.819453 1732.16435,351.019101 1734.64492,353.040579 C1737.12548,355.062058 1740.50174,355.592756 1743.48286,354.429774 C1746.46397,353.266792 1748.58893,350.589977 1749.0453,347.422753 C1751.617,331.064653 1745.6262,319.009753 1744.2855,311.926653 C1744.1197,311.050453 1743.9997,310.276153 1743.9281,309.565353 C1744.44724,308.155969 1744.60045,306.637946 1744.3734,305.153253 C1744.5142,304.748453 1744.6743,304.338553 1744.8793,303.907153 C1745.911,301.736153 1748.2668,298.718053 1753.2309,294.938353 C1760.1394,296.161053 1766.9908,299.034153 1774.1801,303.225453 C1786.5334,310.427553 1799.2932,321.575053 1812.5648,333.356353 C1808.1685,337.192053 1804.8712,341.879053 1802.432,346.516453 C1799.859,351.408453 1797.978,356.232353 1796.2582,360.803553 C1790.6166,358.335753 1785.0714,357.086453 1779.7621,357.268453 C1771.4294,357.554053 1764.3266,360.529353 1757.3461,363.655153 C1754.40342,364.921657 1752.37095,367.67488 1752.02734,370.860051 C1751.68372,374.045222 1753.08223,377.168578 1755.68709,379.033548 C1758.29194,380.898517 1761.69934,381.215994 1764.6039,379.864353 C1771.1505,376.933353 1776.0967,375.164953 1780.3695,375.018453 C1784.6423,374.871953 1788.9225,375.897553 1795.6859,380.700353 C1797.85521,382.240589 1800.60077,382.727142 1803.16725,382.026153 C1805.73373,381.325165 1807.85076,379.510483 1808.9359,377.081353 C1812.5138,369.066553 1814.9363,360.895653 1818.1508,354.784053 C1819.398,352.412853 1820.6831,350.520453 1822.0766,348.860253 C1825.9888,364.043053 1829.582,374.426353 1826.7055,392.723353 C1826.16863,395.877634 1827.37003,399.07686 1829.85044,401.098069 C1832.33085,403.119278 1835.70676,403.64996 1838.68768,402.487253 C1841.66859,401.324546 1843.7936,398.648221 1844.2504,395.481353 C1846.599,380.542353 1845.2719,369.427753 1842.9203,358.955953 C1848.7125,363.305453 1854.6982,367.359353 1860.9398,370.897353 C1877.6303,380.358353 1896.5806,386.058353 1917.3793,382.665353 C1918.33081,382.504566 1919.24976,382.189772 1920.1,381.733353 L1920.1,350.977453 C1917.4081,338.836453 1914.278,325.722853 1910.473,312.305553 C1913.8599,310.037453 1917.0498,307.745153 1920.1,304.637553 L1920.1,271.330953 C1917.63856,272.386416 1915.78488,274.496312 1915.0551,277.073153 C1912.5255,285.578753 1910.3379,289.154853 1907.6742,291.950053 C1906.9093,292.752753 1906.0139,293.532453 1904.9965,294.334853 C1901.8939,284.923853 1898.4051,275.534253 1894.4516,266.397353 C1896.07345,265.896617 1897.51783,264.941585 1898.6137,263.645353 C1905.1317,256.159953 1908.7873,253.499853 1912.6312,252.852453 C1913.1119,252.771453 1913.6371,252.722253 1914.2133,252.707853 C1915.7628,252.669853 1917.7144,252.916853 1920.1,253.489153 L1920.1,235.327053 C1916.529,234.801853 1913.0952,234.765853 1909.682,235.341053 C1900.4492,236.895953 1893.5716,242.700953 1886.7875,250.235553 C1885.1042,246.999553 1883.3573,243.812153 1881.5277,240.698453 C1875.6225,230.648253 1868.8802,221.262453 1861.1391,213.036353 C1865.8475,211.626153 1870.3337,209.864953 1874.5941,207.462153 C1884.4477,201.904753 1892.5164,192.868253 1898.4047,179.678853 C1899.67615,176.935511 1899.46446,173.733759 1897.84289,171.181694 C1896.22133,168.629629 1893.41272,167.07794 1890.3891,167.063653 Z" id="path6743" fill="#3D146F" fill-rule="nonzero"></path>
            <path d="M76.498438,262.479653 C74.7813367,262.553408 73.2012199,263.437969 72.2406744,264.863181 C71.2801288,266.288393 71.0532379,268.084983 71.629297,269.704253 C72.838118,273.259053 73.538205,276.166953 75.812891,279.100753 C76.924501,280.534453 78.290721,281.695753 79.918359,282.704253 C77.3124,286.617253 75.659705,290.625953 74.371484,294.380053 C72.429274,300.039953 71.120277,305.120353 68.580469,309.762853 C68.2459481,310.184072 67.9760578,310.652785 67.779688,311.153553 C61.931187,320.970953 53.516933,329.375653 44.504297,337.567553 C44.23762,337.766346 43.9898275,337.989288 43.764062,338.233553 C41.567617,340.220753 39.349015,342.204753 37.117578,344.188653 C34.161002,338.138253 30.38518,333.843253 26.250391,330.809753 C29.543811,325.626253 35.224061,321.905753 41.432031,317.635953 C45.056539,315.142953 48.794012,312.477053 51.920312,308.870353 C54.238014,306.196353 56.161092,302.904753 57.191797,299.083153 C60.411822,298.216653 63.002095,296.987553 65.086328,295.196453 C68.126262,292.584253 69.498855,289.528353 71.004297,286.612453 C71.9187637,284.901379 71.8478917,282.831816 70.8185133,281.18731 C69.7891349,279.542803 67.9585864,278.574709 66.019922,278.649553 C64.0423602,278.725518 62.2637693,279.874302 61.38125,281.645653 C59.815031,284.679253 58.981112,286.166053 58.029688,286.983553 C57.237076,287.664753 55.903596,288.385653 52.830469,288.997253 C50.154031,288.464053 47.538842,288.162353 44.998438,288.032453 C36.567371,287.600853 28.912415,288.926653 22.215234,288.930853 C20.2607631,288.90167 18.4422825,289.92815 17.4573365,291.616549 C16.4723905,293.304948 16.4738948,295.393136 17.4612722,297.080114 C18.4486496,298.767091 20.2686071,299.79095 22.223034,299.758953 C30.543666,299.748953 38.21203,298.588153 45.558971,299.042153 C45.045108,299.972853 44.513464,300.882353 43.736706,301.778553 C41.733184,304.089953 38.754288,306.334953 35.295299,308.714053 C29.183102,312.918153 21.381565,317.598353 16.572643,325.856653 C11.202855,323.944153 5.9801199,322.888053 1.03553388,321.169153 C2.2740521,318.043953 2.7769835,314.828253 2.8636589,311.790253 C2.9974867,307.099453 2.3539698,302.664553 2.0726432,298.262853 C1.9945181,296.740528 1.27834504,295.321647 0.1,294.354653 L0.1,332.344953 C5.8627224,334.194853 11.095603,335.209553 15.248438,336.944553 C20.96456,339.332553 25.219467,342.369853 28.674219,351.801953 C21.172208,358.743053 14.008546,366.209753 8.7074219,374.864453 C5.9687801,372.762153 3.0635414,370.805253 0.1,368.907453 L0.1,381.942353 C1.3899666,382.849353 2.6381553,383.758353 3.7816406,384.675353 C1.7750225,389.813353 0.47272221,395.367353 0.1,401.436353 L0.1,403.386353 C0.527702535,406.143847 2.98096107,408.124733 5.76667336,407.961914 C8.55238564,407.799095 10.7581708,405.545897 10.861719,402.757353 C11.101519,397.673353 12.124054,393.036353 13.781641,388.708353 C20.088509,389.633353 26.16564,391.406353 32.775781,392.405353 C40.847523,393.626353 49.960501,393.287353 59.435938,387.839353 C61.1383998,386.887857 62.1976249,385.094324 62.2088947,383.144044 C62.2201646,381.193763 61.1817378,379.388109 59.4903859,378.417002 C57.7990341,377.445895 55.716119,377.459398 54.0375,378.452353 C47.689773,382.102353 42.585888,382.638353 36.816797,382.014353 C39.770255,377.509353 43.159953,374.538953 49.070703,370.458153 C51.0927895,369.104843 51.9638566,366.568936 51.2001631,364.25873 C50.4364696,361.948524 48.2255861,360.431428 45.795312,360.549953 C44.7607974,360.600001 43.76234,360.945701 42.918359,361.546053 C35.08398,366.954953 29.80131,372.174253 25.496484,379.925353 C23.437165,379.477353 21.317036,379.033353 19.066797,378.628353 C23.509035,371.944353 29.441404,365.831353 36.164453,359.620353 C36.585822,359.231053 37.032605,358.841453 37.459375,358.452353 C38.3044405,358.020285 39.0210924,357.373682 39.5375,356.577353 C42.796445,353.655353 46.150287,350.702053 49.539453,347.682853 C55.516204,348.762753 62.675319,350.911753 70.322656,352.657453 C69.54267,356.049853 68.308724,359.351853 67.258203,363.174953 C65.677396,368.928053 65.050868,376.195653 68.935938,384.063353 C69.7770425,385.824179 71.5005441,386.996219 73.4472701,387.131212 C75.3939961,387.266206 77.2627719,386.343269 78.338863,384.715389 C79.4149541,383.087509 79.5318804,381.006533 78.644922,379.268353 C75.962709,373.837053 76.422412,370.692253 77.699609,366.044153 C78.569846,362.877053 80.046319,359.144953 81.004297,354.641753 C81.298044,354.680753 81.590936,354.725753 81.885156,354.760953 C94.912038,356.335653 109.43122,354.067053 119.67031,341.038253 C121.011916,339.379991 121.254983,337.088595 120.291129,335.185775 C119.327276,333.282954 117.336109,332.123286 115.20547,332.223853 C107.94743,324.660553 99.03514,321.979853 92.527734,318.620353 C91.7277295,318.192916 90.8331668,317.973295 89.926172,317.981653 C87.4238631,318.005667 85.2639687,319.74127 84.701814,322.179734 C84.1396593,324.618199 85.3217003,327.12424 87.560938,328.241353 C94.90898,332.035153 101.55594,334.197253 106.65469,339.012853 C99.952056,344.530053 92.266948,345.108853 83.183984,344.010953 C82.197194,343.891653 81.199553,343.739253 80.197656,343.573453 C79.2276299,342.657186 77.9534367,342.131359 76.619531,342.096853 C75.9064316,342.079244 75.1968804,342.202709 74.531641,342.460153 C69.485262,341.329753 64.338885,339.902353 59.252344,338.674953 C65.469562,332.568153 71.331358,325.921853 76.113672,318.278553 C85.684546,317.263253 95.45626,314.261553 104.64102,311.852753 C104.900045,311.895036 105.161802,311.918431 105.42422,311.922753 C108.574,316.471453 112.56759,319.086253 115.60977,321.151253 C119.72784,323.946553 122.53877,325.778153 124.975,332.942253 C125.579178,334.797602 127.13487,336.184389 129.047168,336.572294 C130.959466,336.960199 132.932571,336.289221 134.211952,334.815946 C135.491334,333.342672 135.879094,331.294991 135.22695,329.455953 C131.98704,319.928453 126.13028,315.205053 121.6918,312.192253 C119.95894,311.016053 118.51485,310.102253 117.26797,309.104353 C124.54703,307.992453 130.75128,308.124153 135.13906,310.389553 C136.862394,311.320859 138.954353,311.248769 140.609489,310.201039 C142.264624,309.153309 143.22482,307.293332 143.120379,305.337238 C143.015938,303.381145 141.863149,301.633985 140.10586,300.768453 C134.87016,298.065353 129.22505,297.254653 123.41836,297.477453 C120.48105,297.590053 117.50319,297.970253 114.51602,298.500853 C116.29453,293.068753 117.34973,288.373253 119.28359,283.563353 C119.995073,281.862978 119.792702,279.917457 118.746497,278.399915 C117.700291,276.882373 115.953963,276.001268 114.11172,276.061453 C111.938921,276.132426 110.019237,277.496012 109.23672,279.524253 C105.99769,287.580653 105.11238,293.741953 101.8793,301.370053 C94.976847,303.153553 88.145344,305.096753 81.842188,306.379753 C82.891849,303.383453 83.711181,300.525453 84.613672,297.895353 C86.431584,292.597753 88.402694,288.229153 92.930078,283.967653 C94.576745,282.45987 95.1291134,280.095964 94.3211122,278.014606 C93.5131109,275.933247 91.5104265,274.561234 89.277734,274.559453 C88.8726959,274.561172 88.4691297,274.608334 88.074609,274.700053 C85.663641,273.705353 84.826203,273.052153 84.371484,272.465753 C83.824926,271.760753 83.155371,269.964453 81.88125,266.217653 C81.1303753,263.903917 78.9287203,262.374894 76.498438,262.479353 L76.498438,262.479653 Z" id="path6862" fill="#3D146F" fill-rule="nonzero"></path>
            <path d="M1920.1,967.968353 L1920.1,373.968353 C1861.4,373.568353 1795.2,360.568353 1743.3,375.068353 C1683.3,391.868353 1711.1,417.968353 1561.3,430.968353 C1477,438.368353 1404.6,442.268353 1321.1,452.868353 C1239.6,463.168353 1155.3,493.568353 1075.2,504.668353 C960.39998,520.668353 801.19998,499.368353 700.19998,460.168353 C652.79998,441.768353 635.19998,428.868353 581.1,420.868353 C508.3,409.968353 432.8,419.568353 374.3,399.168353 C318.3,379.668353 263.5,344.968353 182.6,351.968353 C100.1,359.268353 55.6,382.868353 0.1,403.868353 L0.1,967.968353 L1920.1,967.968353 Z" id="path5986" fill="#881DAC" fill-rule="nonzero"></path>
            <path d="M691.8207,556.421353 C688.621223,556.57542 685.834181,558.652873 684.772559,561.675017 C683.710937,564.69716 684.586481,568.06121 686.98672,570.182353 C705.20391,586.745353 731.93565,590.181353 758.71133,594.358353 C760.46336,607.577353 757.74825,617.550353 752.10586,626.171353 C745.81796,635.778353 735.3775,643.745353 722.41445,650.313353 C722.30701,650.373353 722.19604,650.419353 722.08828,650.473353 C717.0107,641.765353 709.8437,635.675353 702.37344,631.231353 C706.39497,619.925353 706.72108,608.641353 705.04141,596.044353 C704.553923,591.941401 700.977125,588.913655 696.85,589.110353 C694.629279,589.216237 692.556892,590.256269 691.14483,591.973503 C689.732768,593.690737 689.112727,595.925016 689.43789,598.124353 C690.83535,608.604353 690.73431,616.206353 688.1957,624.114353 C680.074,620.437353 672.34919,617.170353 666.26211,612.604353 C664.793446,611.470377 662.971409,610.891664 661.11758,610.970353 C657.774253,611.112943 654.886524,613.353746 653.918142,616.556933 C652.94976,619.76012 654.112426,623.225432 656.8168,625.196353 C668.62885,634.055353 681.85521,637.992353 692.00234,643.436353 C698.69387,647.027353 704.00816,650.739353 707.78555,656.778353 C685.69445,665.395353 660.07709,671.077353 638.93594,676.634353 C631.00011,672.556353 625.01161,667.685353 620.20156,662.169353 C623.80947,659.326353 627.11726,656.426353 630.08828,652.948353 C635.01296,647.183353 638.59406,639.882353 640.49844,630.360353 C641.002689,628.011974 640.407154,625.561874 638.88123,623.70696 C637.355306,621.852046 635.065988,620.795318 632.66445,620.837353 C628.922583,620.90319 625.744393,623.594481 625.06289,627.274353 C623.56015,634.788353 621.4064,638.873353 618.11758,642.723353 C616.32607,644.821353 614.02176,646.883353 611.25625,649.116353 C608.05476,643.295353 605.34655,637.037353 602.5668,630.428353 C602.07165,629.251353 601.55844,628.037353 601.05703,626.841353 C601.99067,624.361353 603.4866,622.622353 605.56094,620.909353 C608.89536,618.155353 614.18481,615.896353 620.48086,613.966353 C633.07295,610.105353 649.59621,608.337353 660.42227,596.428353 C662.541842,594.161664 663.131852,590.861192 661.928869,588.000546 C660.725886,585.1399 657.954444,583.253014 654.85195,583.182353 C652.533432,583.129418 650.309551,584.10157 648.77383,585.839353 C646.0559,588.828353 640.96371,591.090353 634.72305,593.196353 C632.26969,587.654353 631.10099,582.693353 629.08828,577.298353 C626.59323,570.609353 621.82621,563.328353 612.71328,558.421353 C611.561148,557.779833 610.266311,557.438039 608.94766,557.427353 C605.309515,557.398112 602.125345,559.86597 601.246076,563.396387 C600.366807,566.926803 602.021558,570.599821 605.24844,572.280353 C611.36143,575.572353 612.48723,577.840353 614.33828,582.802353 C615.70162,586.456353 616.96042,591.630353 619.54727,597.815353 C618.32451,598.177353 617.10296,598.536353 615.86758,598.915353 C608.81433,601.077353 601.61908,603.747353 595.53555,608.772353 C594.90535,609.293353 594.29738,609.851353 593.70352,610.430353 C586.91869,596.837353 577.71897,583.479353 561.53945,573.522353 C560.20062,572.672177 558.636205,572.246242 557.05117,572.300353 C553.561056,572.419996 550.566989,574.824783 549.697246,578.206906 C548.827503,581.589028 550.290029,585.139868 553.28945,586.928353 C567.12952,595.446353 574.56993,606.729353 580.67812,619.579353 C571.39862,618.405353 563.82991,617.073353 557.84219,614.928353 C549.39754,611.906353 543.8008,607.792353 538.33438,598.909353 C536.962424,596.606838 534.51316,595.160642 531.83438,595.071353 C528.917168,594.97427 526.185727,596.499358 524.737768,599.033715 C523.289809,601.568072 523.363074,604.695579 524.92812,607.159353 C531.98827,618.631353 541.45677,625.782353 552.53555,629.749353 C562.11817,633.179353 572.8559,634.612353 585.38906,635.991353 C586.274539,637.453925 587.612136,638.588437 589.19961,639.223353 C592.2615,646.392353 595.66917,653.763353 600.05312,660.846353 C599.674456,664.684757 602.132802,668.232153 605.85977,669.225353 C611.92946,676.981353 619.66025,684.074353 630.05117,689.735353 C631.955347,692.60168 635.500676,693.898894 638.80508,692.938353 C659.97245,687.203353 688.29864,681.434353 713.81484,671.354353 C715.260964,673.246998 717.486301,674.38306 719.867401,674.444259 C722.248501,674.505458 724.52926,673.485212 726.0707,671.669353 C743.36081,673.774353 756.35897,670.447353 767.20938,665.563353 C775.48765,661.838353 782.53871,657.587353 790.33242,654.059353 C788.20584,659.484353 786.0845,663.970353 783.42227,667.593353 C779.67998,672.684353 774.93029,676.570353 765.8832,679.952353 C763.219796,680.915657 761.279228,683.235532 760.80159,686.027223 C760.323952,688.818914 761.382888,691.651982 763.574542,693.445952 C765.766196,695.239922 768.752647,695.71819 771.39492,694.698353 C782.6752,690.482353 790.63946,684.352353 796.10586,676.915353 C801.57226,669.477353 804.60213,661.198353 807.78359,652.290353 C807.947685,651.845405 808.071234,651.386539 808.15273,650.919353 C823.81386,652.102353 834.19919,645.912353 840.86953,641.040353 C844.84768,638.134353 847.69226,636.133353 850.27969,635.384353 C852.86712,634.634353 855.7531,634.483353 861.72891,637.044353 C864.32174,638.197305 867.334432,637.865511 869.614208,636.175928 C871.893984,634.486345 873.087944,631.700513 872.739232,628.884405 C872.39052,626.068296 870.553114,623.657832 867.93008,622.575353 C859.63378,619.019353 852.10269,618.467353 845.89883,620.264353 C839.69497,622.062353 835.37621,625.558353 831.58438,628.327353 C824.42667,633.554353 819.68179,637.647353 804.86367,634.591353 C804.765705,634.542292 804.666727,634.495281 804.5668,634.450353 C797.25547,626.118353 796.98954,621.744353 795.28164,608.934353 C794.792708,604.8326 791.216328,601.806517 787.09023,602.003353 C784.870116,602.109333 782.798277,603.14895 781.386316,604.865489 C779.974356,606.582028 779.353886,608.815487 779.67812,611.014353 C781.03459,621.188353 782.43969,629.539353 787.63125,638.034353 C777.03418,642.322353 768.79755,647.586353 760.75039,651.208353 C755.20772,653.702353 749.7521,655.631353 743.20352,656.386353 C751.98275,650.467353 759.6285,643.423353 765.27773,634.792353 C772.89518,623.153353 776.43581,608.655353 774.2543,591.997353 C780.81808,590.696353 786.07509,592.027353 791.93203,594.462353 C799.83767,597.745353 808.10695,603.739353 818.54922,607.468353 C821.2071,608.453365 824.18932,607.933318 826.356922,606.106826 C828.524525,604.280334 829.542738,601.429487 829.022689,598.643069 C828.502641,595.856651 826.524649,593.565008 823.84414,592.643353 C816.28906,589.945353 808.14839,584.152353 797.96914,579.925353 C788.36383,575.935353 776.27376,574.075353 762.9418,579.061353 C735.45868,574.668353 710.84066,570.594353 697.57461,558.534353 C696.02124,557.080792 693.94567,556.317862 691.8207,556.419353 L691.8207,556.421353 Z M880.74453,603.056353 C876.959212,602.984734 873.659116,605.617969 872.88868,609.324745 C872.118244,613.031522 874.095739,616.761679 877.59609,618.204353 C887.30376,622.364353 891.28497,626.533353 892.71328,629.755353 C894.1416,632.976353 893.8862,636.546353 891.57266,641.919353 C889.11828,647.618353 884.22633,654.407353 878.65273,661.667353 C878.15609,660.341353 877.58476,659.050353 876.85781,657.833353 C872.10805,649.879353 864.01034,646.236353 855.57656,643.223353 C852.916177,642.228363 849.926086,642.743769 847.752348,644.572021 C845.57861,646.400273 844.558388,649.257795 845.082721,652.049339 C845.607053,654.840883 847.59461,657.133459 850.28359,658.048353 C857.69133,660.693353 861.75768,663.247353 863.34414,665.903353 C864.9306,668.560353 865.69646,673.317353 862.29336,683.932353 C861.110916,687.62988 862.800622,691.637382 866.27348,693.372068 C869.746338,695.106755 873.965317,694.050629 876.21133,690.884353 C885.6608,677.540353 899.4343,663.466353 906.03164,648.145353 C909.33031,640.485353 910.76225,631.625353 907.10391,623.374353 C903.44556,615.123353 895.56639,608.779353 883.79727,603.735353 C882.835344,603.307125 881.797281,603.076236 880.74453,603.056353 Z" id="path6917" fill="#741993" fill-rule="nonzero"></path>
            <path d="M1920.1,967.968353 L1920.1,539.768353 C1809.2,549.968353 1711.1,570.868353 1609.9,611.268353 C1557.8,632.068353 1516.7,681.168353 1455.7,688.968353 C1374.8,699.268353 1307.8,657.168353 1229.3,653.568353 C1136.9,649.268353 1051.1,639.668353 958.09998,644.068353 C870.99998,648.168353 795.59998,673.668353 706.39998,665.868353 C538.5,651.168353 404.4,567.768353 238.1,567.768353 C162.7,567.768353 78,575.068353 0.1,591.068353 L0.1,968.068353 L1920.1,968.068353 L1920.1,967.968353 Z" id="path5988" fill="#C621C6" fill-rule="nonzero"></path>
            <g id="g6185" transform="translate(862.766373, 338.976940)" fill-rule="nonzero">
                <g id="g3408" transform="translate(292.939469, 73.020667) rotate(6.647662) translate(-292.939469, -73.020667) translate(229.236490, 31.526066)">
                    <path d="M63.5814167,0.822878839 C98.5081817,0.822878839 126.821526,37.535665 126.821526,82.8232227 L0.342476562,82.8232227 C0.342476562,37.535665 28.6558205,0.822878839 63.5814167,0.822878839 Z" id="path3404" fill="#734C29"></path>
                    <path d="M63.5814167,0.822878839 C98.5081817,0.822878839 126.821526,37.535665 126.821526,82.8232227 L0.342476562,82.8232227 C0.342476562,37.535665 28.6558205,0.822878839 63.5814167,0.822878839 Z M63.5814167,24.2001186 C44.531304,24.8359795 32.1705885,42.8107391 27.1444819,59.445983 L100.018351,59.445983 C95.0915981,42.7289188 82.5602288,24.9224753 63.5814167,24.2001186 Z" id="path3406" fill="#FFD500"></path>
                </g>
                <path d="M297.865431,29.7047522 C334.348634,33.9579853 359.164918,75.2701974 353.751798,121.716363 C353.564999,123.319703 352.114346,124.467646 350.511006,124.280332 L224.882356,109.638899 C223.279016,109.452444 222.131245,108.002049 222.318129,106.398709 C227.731249,59.9525434 261.381971,25.4540967 297.865345,29.7056114 L297.865431,29.7047522 Z M297.188866,35.509771 L297.18878,35.509771 C258.881585,32.1553018 233.157515,70.1078894 228.517109,104.177576 L348.229383,118.129899 C351.8497,83.8058778 335.013685,41.1953556 297.188866,35.5089117 L297.188866,35.509771 Z" id="path3410" fill="#000000"></path>
                <g id="g3416" transform="translate(280.423154, 180.413491) rotate(6.647662) translate(-280.423154, -180.413491) translate(216.720176, 112.619496)">
                    <polygon id="path3412" fill="#734C29" points="126.821526 1.00288359 126.821526 135.00356 0.342476562 135.00356 0.342476562 1.00288359"></polygon>
                    <path d="M126.821526,1.00288359 L126.821526,135.00356 L0.342476562,135.00356 L0.342476562,1.00288359 L126.821526,1.00288359 Z M103.444286,24.3801233 L23.7197163,24.3801233 L23.7197163,111.62632 L103.444286,111.62632 L103.444286,24.3801233 Z" id="path3414" fill="#FFD500"></path>
                </g>
                <path d="M351.187571,118.475313 C352.790911,118.662627 353.93851,120.114741 353.751798,121.716363 L338.23944,254.815924 C338.052556,256.419264 336.601988,257.567207 334.998648,257.380752 L209.369913,242.73846 C207.766573,242.552005 206.618887,241.10161 206.805686,239.49827 L222.318129,106.398709 C222.504842,104.796228 223.955581,103.647425 225.558921,103.83388 L351.187571,118.475313 Z M347.608497,123.942651 L227.784866,109.977439 L212.948987,237.271981 L332.772704,251.237193 L347.608497,123.942651 Z" id="path3418" fill="#000000"></path>
                <g id="g3424" transform="translate(114.399653, 161.063945) rotate(6.647662) translate(-114.399653, -161.063945) translate(9.786505, 93.269950)">
                    <polygon id="path3420" fill="#734C29" points="0.771448912 1.00288359 208.39991 1.00288359 208.39991 135.00356 0.771448912 135.00356"></polygon>
                    <path d="M208.39991,1.00288359 L208.39991,135.00356 L0.771448912,135.00356 L0.771448912,1.00288359 L208.39991,1.00288359 Z M185.022671,24.3801233 L24.1486887,24.3801233 L24.1486887,111.62632 L185.022671,111.62632 L185.022671,24.3801233 Z" id="path3422" fill="#FFD500"></path>
                </g>
                <path d="M225.558921,103.83388 C227.161058,104.021194 228.309861,105.472449 228.123148,107.07493 L212.610705,240.174491 C212.423906,241.777831 210.972136,242.925774 209.369913,242.73846 L3.13740817,218.702967 C1.53522813,218.516512 0.386313863,217.065257 0.573181165,215.461917 L16.0855645,82.3623563 C16.2722943,80.7607347 17.7241677,79.6119322 19.3263477,79.798387 L225.558921,103.83388 Z M221.979847,109.301218 L21.5523009,85.941946 L6.71647379,213.236488 L207.143968,236.59576 L221.979847,109.301218 Z" id="path3426" fill="#000000"></path>
                <g id="g3432" transform="translate(159.424066, 57.459843) rotate(6.647662) translate(-159.424066, -57.459843) translate(22.082782, 15.965243)">
                    <path d="M274.492043,0.822878839 L274.492043,0.916387798 L271.638849,0.822878839 C229.335381,2.09927613 209.124581,45.6452295 208.399887,82.8232227 L127.251614,82.8232227 L0.771251569,82.8232227 C0.717582751,45.8217276 22.598687,2.17992761 64.0114821,0.822878839 L64.2744762,0.839242907 L64.2744762,0.822878839 L274.492043,0.822878839 Z" id="path3428" fill="#734C29"></path>
                    <path d="M274.492043,0.822878839 L274.492043,0.915218936 L271.638849,0.822878839 C229.335381,2.09927613 209.124581,45.6452295 208.399887,82.8232227 L127.251614,82.8232227 L0.771251569,82.8232227 C0.717582751,45.8217276 22.598687,2.17992761 64.0114821,0.822878839 L64.2744762,0.839242907 L64.2744762,0.822878839 L274.492043,0.822878839 Z M199.806437,24.2001186 L64.5878068,24.2001186 C52.3837188,24.5215556 42.9848996,32.0034412 36.1949803,41.5682389 C32.6182626,47.0817609 29.5476622,53.0780228 27.813071,59.445983 L127.249329,59.445983 L127.251667,59.445983 L187.46793,59.445983 C189.895656,47.2021536 193.748225,35.1535243 199.806437,24.2001186 Z" id="path3430" fill="#FFD500"></path>
                </g>
                <path d="M300.699287,30.0364184 C302.302627,30.2228733 303.450399,31.6732688 303.263514,33.2766088 L303.252344,33.3694066 C303.061336,35.0088346 301.54959,36.1662296 299.916693,35.9204872 L297.214815,35.5166449 C277.878672,33.8754984 262.252895,42.2410495 249.674839,56.3824053 C238.399389,69.6971731 230.686774,88.2756392 228.114985,107.131639 C227.900605,108.708343 226.462153,109.823635 224.882013,109.638899 L144.280478,100.244839 L144.279618,100.244839 L18.6497486,85.6034058 C17.0487285,85.416951 15.9007078,83.968274 16.0849802,82.3675117 C18.3380596,62.7931876 26.6223525,43.0444379 39.030838,28.6513251 C53.0015059,12.4460772 71.1678294,3.96023264 91.5385478,5.65980742 L91.5368293,5.6855846 L91.8122326,5.69417699 L91.8271834,5.69417699 L91.8952351,5.69417699 L300.699287,30.0364184 Z M273.224432,32.7181034 L91.29406,11.5146621 L91.0385824,11.4974773 L90.949866,11.4802925 C72.1043226,9.79016939 55.7707989,18.8568595 43.4568641,32.4689241 C32.2410883,45.9478066 24.6191312,62.7089822 22.2799475,80.1446604 L144.955058,94.4415384 L144.955917,94.4415384 L222.759434,103.509947 C225.626285,84.9091407 233.374989,67.2122539 245.214959,52.6086275 C252.768271,44.0695101 262.075119,36.0545285 273.224175,32.7198219 L273.224432,32.7181034 Z" id="path3434" fill="#000000"></path>
                <g id="g3440" transform="translate(122.315376, 93.145240) rotate(6.647662) translate(-122.315376, -93.145240) translate(86.665085, 57.494950)">
                    <path d="M35.6222379,67.8734779 C17.9957992,67.8734779 3.70646136,53.5841401 3.70646136,35.9577013 C3.70646136,18.3300937 17.9957992,4.04075589 35.6222379,4.04075589 C53.2498456,4.04075589 67.5391834,18.3300937 67.5391834,35.9577013 C67.5391834,53.5841401 53.2498456,67.8734779 35.6222379,67.8734779 Z" id="path3436" fill="#FFD500"></path>
                    <path d="M35.6222379,1.11860092 C54.8628751,1.11860092 70.4613383,16.7170641 70.4613383,35.9565325 C70.4613383,55.1983385 54.8628751,70.7956328 35.6222379,70.7956328 C16.3816008,70.7956328 0.784306394,55.1983385 0.784306394,35.9565325 C0.784306394,16.7170641 16.3816008,1.11860092 35.6222379,1.11860092 Z M35.6222379,6.96291086 C19.6099976,6.96291086 6.62861633,19.9442921 6.62861633,35.9565325 C6.62861633,51.9699417 19.6099976,64.9513229 35.6222379,64.9513229 C51.6356472,64.9513229 64.6170284,51.9699417 64.6170284,35.9565325 C64.6170284,19.9442921 51.6356472,6.96291086 35.6222379,6.96291086 Z" id="path3438" fill="#000000"></path>
                </g>
                <path d="M123.704212,75.9378261 C129.441884,76.6063141 133.543908,81.8588422 132.86681,87.6681572 C132.413502,91.4170171 130.153626,94.2885939 126.910746,95.9916056 L129.273413,110.766221 L110.275913,108.551962 L115.972934,94.7173541 C113.034758,92.4128751 111.846971,88.9235054 112.090652,85.2468217 C112.87933,79.3077615 117.948548,75.5649164 123.704212,75.9378261 Z" id="path3442" fill="#000000"></path>
            </g>
            <g id="Layer_1-7" transform="translate(521.893562, 344.373780) rotate(-29.070574) translate(-521.893562, -344.373780) translate(270.105374, 90.337483)" fill-rule="nonzero">
                <g id="g3879" transform="translate(251.783340, 254.257430) scale(-1, 1) rotate(-37.588148) translate(-251.783340, -254.257430) translate(76.925135, 68.787777)">
                    <g id="g4174">
                        <path d="M141.244368,304.114867 C89.6750386,304.114867 47.8700865,287.07888 47.8700865,266.064522 C47.8700865,245.049703 89.6750386,228.014177 141.244368,228.014177 C192.813236,228.014177 234.618188,245.049703 234.618188,266.064522 C234.618188,287.07888 192.813236,304.114867 141.244368,304.114867 Z" id="path3476" fill="#E700FF"></path>
                        <path d="M146.972243,253.040585 C126.335284,253.040585 109.605183,236.310945 109.605183,215.673524 C109.605183,195.036565 126.335284,178.306926 146.972243,178.306926 C167.609664,178.306926 184.339303,195.036565 184.339303,215.673524 C184.339303,236.310945 167.609664,253.040585 146.972243,253.040585 Z" id="path3478" fill="#FFEA93"></path>
                        <path d="M138.826636,30.9829646 C115.980127,31.4155941 94.3586863,38.6737345 77.9832614,56.4613551 C76.1282782,58.4767845 74.9391896,60.5416572 74.5221029,62.260304 C74.1067296,63.9708734 73.696986,66.225687 75.4543063,70.2679275 C76.8529174,73.3034324 78.6321445,76.1376147 81.2317155,78.285097 C87.403815,83.3824151 95.342536,83.0435322 102.572528,85.4704185 C104.784017,86.2124363 106.930765,87.1479441 109.033577,88.1571274 C110.224257,88.7281739 111.296591,89.519635 112.427914,90.2008276 C123.968658,97.998072 122.649107,113.08699 141.353144,123.983257 C154.744221,131.78503 165.833366,125.951201 180.360906,134.230641 C190.897851,140.236297 191.403545,155.926491 206.257729,165.962149 C216.494833,172.878959 228.857145,168.186367 240.824154,173.960105 C258.116117,182.302695 249.717353,193.50835 262.936969,203.506926 C268.52407,207.426904 272.298533,209.037118 276.576241,210.324115 C281.172762,212.339911 283.558894,218.593274 279.16492,222.129944 C274.906059,224.899507 270.44049,227.331166 264.548162,228.289805 C261.604078,228.750583 259.890327,229.185293 256.640893,228.667484 C247.072132,227.143428 241.174297,220.776125 230.880407,224.441421 L227.739528,225.624636 C215.535705,230.880075 210.977124,243.294767 199.043647,246.494512 C181.728921,251.137539 169.54835,241.237972 158.106982,245.26112 C142.332465,250.808324 139.471236,263.00762 124.802587,268.009478 C104.31455,274.996414 93.7807863,264.111529 80.3282725,267.718202 C75.7892729,269.192937 75.1865288,269.18437 70.2984884,272.064079 C65.3701835,274.967042 61.388401,279.522196 56.1262309,281.878099 C51.1263309,284.117737 46.044311,283.882759 41.0958126,282.57202 C39.8740473,282.247701 38.0222461,282.073914 36.783714,283.147227 C35.5446925,284.221764 35.2945384,285.680588 36.1287117,287.997329 C52.1941365,332.615077 104.114329,353.31643 185.720004,330.08906 C244.598862,313.329714 287.683254,287.693815 293.014449,243.370401 C301.474774,240.329266 329.744879,226.443633 303.699236,182.703994 C308.70036,142.642746 282.310816,93.6891555 234.315252,61.2611562 C208.228488,44.2979182 172.21768,30.3506035 138.826636,30.9829646 Z" id="path3474" fill="#009BFF" transform="translate(175.059336, 185.335177) rotate(15.009733) translate(-175.059336, -185.335177) "></path>
                        <g id="g3488" transform="translate(261.133890, 200.233407)">
                            <path d="M2.70176689,2.76866514 C2.70176689,2.76866514 17.1038084,8.5292972 22.958098,23.0374532" id="path3484" fill="#009BFF"></path>
                            <path d="M2.65147785,0.15178984 L3.67340641,0.338643595 C4.49233336,0.666675743 5.84413954,1.30982175 7.55350537,2.2953023 C10.374305,3.92254475 13.1918751,5.94517898 15.8272051,8.39642342 C19.959672,12.2400744 23.2542958,16.7790058 25.38489,22.0584318 C25.9256125,23.3987038 25.2773914,24.9235227 23.9375808,25.4637838 C22.5973088,26.0049676 21.0724899,25.3567466 20.5317674,24.0164746 C18.7070598,19.4950751 15.862269,15.5762213 12.2626814,12.2285402 C9.93554472,10.0638048 7.43585671,8.26862468 4.93893691,6.82869735 C4.07018229,6.32765247 3.26694182,5.90826959 2.55228388,5.5682419 C2.13843742,5.37123806 1.85700337,5.24897573 1.72966599,5.19776396 C0.388009896,4.66119379 -0.264363461,3.13822035 0.272206705,1.79656425 C1.2004777,0.377859816 0.522729147,1.06345162 2.65147785,0.15178984 Z" id="path3486" fill="#66C3FF"></path>
                        </g>
                        <g id="g3494" transform="translate(211.767589, 135.641985)">
                            <path d="M3.0542515,2.6394823 C3.0542515,2.6394823 46.5408874,5.44782503 72.3243987,63.7752627" id="path3490" fill="#009BFF"></path>
                            <path d="M3.22265056,0.0281434051 C4.01897052,0.0798165422 5.41829753,0.256520217 7.33435591,0.633457298 C10.473499,1.25168947 13.9563607,2.2205608 17.6966654,3.61665823 C28.3288747,7.58533972 38.9417066,14.1672056 48.8232714,23.9560355 C58.9096832,33.9474056 67.6668959,46.7669573 74.7175109,62.7173475 C75.3020632,64.0391648 74.7041312,65.5842839 73.3823139,66.1683749 C72.060958,66.7529272 70.5158389,66.1549952 69.9312865,64.8331779 C63.1422668,49.474722 54.7573775,37.2000451 45.1406376,27.6737332 C35.8039476,18.4251643 25.8254958,12.2368448 15.8664213,8.51960849 C12.4001688,7.22593459 9.19089791,6.33272751 6.32350016,5.76801394 C5.33248321,5.57331694 4.45865355,5.43306128 3.71262263,5.33894235 C3.28401241,5.28450101 3.00442383,5.25820307 2.88539107,5.25035983 C1.4431569,5.15716364 0.34971641,3.91285604 0.442912604,2.47062187 C0.536108798,1.0283877 1.7804164,-0.0650527888 3.22265056,0.0281434051 Z" id="path3492" fill="#66C3FF"></path>
                        </g>
                        <path d="M161.236336,73.1627031 C161.236336,73.1627031 255.147649,77.0764819 286.837123,170.292053" id="path3496" fill="#009BFF"></path>
                        <path d="M161.345219,70.548596 C161.644646,70.5610529 162.19275,70.5942713 162.973384,70.6574787 C164.255985,70.7612863 165.737897,70.9130762 167.40251,71.1225369 C172.138445,71.7181621 177.40726,72.6533536 183.076541,74.0019302 C199.265919,77.8525017 215.45622,84.2447455 230.582147,93.7775166 C257.313307,110.624805 277.744035,135.415454 289.314204,169.450058 C289.779724,170.818473 289.047534,172.304537 287.679118,172.769595 C286.311164,173.234654 284.824639,172.502925 284.359581,171.13451 C273.188494,138.274547 253.539323,114.432008 227.791798,98.2047972 C213.189062,89.0019037 197.527487,82.8181979 181.865452,79.0926569 C176.386715,77.7897557 171.303832,76.8877826 166.749214,76.3147645 C165.163033,76.1154538 163.758169,75.9710458 162.551694,75.8736973 C161.839804,75.8160264 161.359521,75.7869603 161.127453,75.7772716 C159.683835,75.7172938 158.56179,74.4979 158.622229,73.0538204 C158.682206,71.6102021 159.9016,70.4881569 161.345219,70.548596 Z" id="path3498" fill="#66C3FF"></path>
                        <path d="M103.662772,260.74265 L104.571666,261.246463 C104.831416,261.467458 105.371215,261.905757 106.182299,262.530448 C107.553021,263.586057 109.175189,264.766234 111.039113,266.040069 C116.384514,269.693176 122.5816,273.350896 129.551937,276.766398 C163.484579,293.394075 201.75961,298.290566 242.242744,284.371576 C243.609314,283.901904 245.098147,284.629019 245.56828,285.995589 C246.037952,287.362159 245.310837,288.850991 243.944267,289.320663 C202.014284,303.737007 162.34131,298.661505 127.249253,281.465885 C120.043618,277.935041 113.631535,274.150445 108.086362,270.360774 C106.138931,269.030191 104.436485,267.79142 102.989176,266.676295 C102.108887,265.998546 101.502651,265.506729 101.179232,265.231293 C100.078871,264.294717 99.9464587,262.643022 100.883034,261.542661 C102.215924,260.494896 101.355013,260.92812 103.663234,260.74265 L103.662772,260.74265 Z" id="path3500" fill="#66C3FF"></path>
                        <path d="M37.6794057,260.681288 C39.960867,261.077141 39.1428628,260.566408 40.3742521,261.732283 C40.4277707,261.808409 40.5523399,261.979115 40.7488823,262.237942 C41.0875259,262.684545 41.4986042,263.206813 41.9835012,263.798747 C43.383751,265.50719 45.0852735,267.417712 47.0926827,269.480947 C52.8542374,275.401673 59.9007002,281.331627 68.2699029,286.871264 C103.122511,309.938706 148.846778,319.24633 206.42311,306.799563 C207.835355,306.494138 209.228223,307.391497 209.533187,308.804204 C209.838612,310.216449 208.941253,311.609317 207.528546,311.914281 C148.545967,324.66555 101.387309,315.065881 65.3817436,291.235337 C56.6881997,285.481165 49.3561506,279.310838 43.3422279,273.130823 C41.2287043,270.958706 39.4284491,268.936995 37.9359259,267.115978 C37.0274937,266.006851 36.4157207,265.19992 36.0955318,264.745473 C35.2636865,263.563911 35.5469661,261.931594 36.7280663,261.099748 L37.6794057,260.681288 Z" id="path3502" fill="#66C3FF"></path>
                        <g id="g3508" transform="translate(178.549144, 257.904319)">
                            <path d="M2.92829823,2.762206 C2.92829823,2.762206 36.2726968,21.3825287 78.8236798,8.61511152" id="path3504" fill="#009BFF"></path>
                            <path d="M3.21434595,0.160555819 L4.20351744,0.477515152 C4.31747516,0.541183838 4.56984307,0.675441722 4.95646886,0.871061455 C5.6189923,1.20601411 6.40562354,1.58202846 7.31174891,1.98895441 C9.92124234,3.16082735 12.9487345,4.33639122 16.3545479,5.43536812 C35.0514576,11.4686682 56.1110292,12.6982121 78.0716511,6.10896437 C79.455753,5.6937338 80.9145964,6.47898094 81.329827,7.86308283 C81.7450575,9.24718472 80.9598104,10.7060281 79.5757085,11.1212587 C56.5031914,18.044075 34.3861659,16.7527079 14.7471443,10.4153667 C11.1535544,9.2559507 7.94751304,8.01118173 5.16777508,6.76272183 C3.47963215,6.00469536 2.29484093,5.40584061 1.65261765,5.04689685 C0.3907781,4.34238899 -0.0609004831,2.74836498 0.643607378,1.48652543 C1.74673658,0.199310672 0.986403279,0.79170628 3.21434595,0.160555819 Z" id="path3506" fill="#66C3FF"></path>
                        </g>
                        <path d="M152.741641,182.774345 C154.28676,183.13698 153.531502,182.97827 155.006493,183.256013 L156.143302,184.322233 C157.400067,186.088347 156.986682,188.53913 155.220106,189.795433 C153.453992,191.052197 151.003209,190.638812 149.746906,188.872237 C148.490142,187.106123 148.903527,184.65534 150.670102,183.399037 C151.454426,183.033172 151.863659,182.732361 152.741641,182.774345 Z M163.300954,186.310726 C161.558832,186.57555 160.361583,186.598157 159.389021,188.187568 C158.27851,190.049185 158.887054,192.458445 160.748209,193.569417 C166.679086,197.109027 170.865994,203.046824 172.206727,209.822464 C172.627494,211.948906 174.692113,213.331624 176.818555,212.910857 C178.944997,212.490551 180.328176,210.425471 179.906948,208.29903 C178.134836,199.341122 172.611347,191.507567 164.770871,186.82838 L163.300954,186.310726 Z" id="path3510" fill="#FFFDF2"></path>
                    </g>
                </g>
            </g>
            <g id="Layer_1-6" transform="translate(708.239980, 828.640926) rotate(5.489156) translate(-708.239980, -828.640926) translate(527.606648, 728.739634)" fill-rule="nonzero">
                <path d="M266.222565,166.219529 C277.087107,165.168169 280.767603,161.838618 289.003009,171.915009 C293.209185,176.996335 296.451,183.567702 297.414624,186.547046 C299.167136,191.716108 306.175709,191.716108 308.016694,186.109102 C309.067317,182.867287 312.572341,164.292282 304.336198,157.195235 C297.677095,151.412019 288.478066,146.855636 273.407348,153.864946 C258.337367,160.874994 266.222565,166.219529 266.222565,166.219529" id="path3544" fill="#820000"></path>
                <path d="M248.260976,182.867287 C248.260976,182.867287 255.971439,190.314541 256.409383,196.447964 C256.847326,202.58065 264.119846,197.323851 266.310301,191.629109 C268.500757,185.93363 268.938701,176.29592 261.92939,172.352215 C254.920079,168.409985 247.385089,179.800206 248.260976,182.867287" id="path3546" fill="#820000"></path>
                <path d="M219.546912,42.1944717 L234.262999,45.0374192 L219.574929,87.6381315 C219.574929,87.6381315 201.409851,104.487904 210.394332,84.7022869 C219.378813,64.915933 219.546912,42.1944717 219.546912,42.1944717" id="path3548" fill="#FF0000"></path>
                <path d="M269.114173,124.600872 C272.61846,115.401106 283.132794,101.382485 283.132794,101.382485 C283.132794,101.382485 279.365299,76.4108484 284.709834,68.2624419 C284.709834,68.2624419 302.67216,67.8244983 310.996038,80.0906074 C310.996038,80.0906074 308.980318,96.3004214 303.285576,105.062244 C303.285576,105.062244 300.393968,129.157256 290.054368,134.414792 C279.715506,139.670853 273.494347,134.414792 273.494347,134.414792 L269.114173,124.600872 Z" id="path3550" fill="#820000"></path>
                <path d="M215.354007,42.5321454 C215.988067,33.6663666 221.642996,26.8465367 227.984332,27.3007006 C234.324931,27.7548644 238.951356,35.309024 238.317296,44.1755401 C237.682499,53.0405817 232.027569,59.858937 225.686971,59.4055104 C219.345635,58.9513466 214.719947,51.397187 215.354007,42.5321454" id="path3552" fill="#000000"></path>
                <path d="M288.389593,70.7161061 C288.389593,70.7161061 267.098452,52.4913089 269.113436,35.2308724 C271.129156,17.9696987 279.10209,12.0994841 283.833209,9.558821 C286.812553,7.98178142 292.157088,7.1051568 295.048696,15.5167718 C297.326887,22.0881387 302.321215,32.1637922 301.44459,38.2972154 C300.568703,44.4306386 304.072989,42.240183 305.825501,40.7508796 C307.577276,39.2608389 328.869154,26.5567861 336.49188,7.80630904 C344.114607,-10.9441681 357.25734,12.0994841 359.973476,23.0517622 C362.601875,33.8293052 361.90146,50.2138543 348.320046,62.743172 C336.053199,73.9579215 320.282803,78.9522488 309.505998,78.7775137 C298.728455,78.6020413 288.389593,70.7161061 288.389593,70.7161061" id="path3554" fill="#FF0000"></path>
                <path d="M95.1038177,166.219529 C84.2392758,165.168169 80.5595168,161.838618 72.3233741,171.915009 C68.117198,176.996335 64.8753826,183.567702 63.9117591,186.547046 C62.1592472,191.716108 55.1499366,191.716108 53.3096885,186.109102 C52.259066,182.867287 48.7540421,164.292282 56.9901848,157.195235 C63.6492878,151.412019 72.849054,146.855636 87.9190348,153.864946 C102.989753,160.874994 95.1038177,166.219529 95.1038177,166.219529" id="path3556" fill="#820000"></path>
                <path d="M113.065406,182.867287 C113.065406,182.867287 105.354944,190.314541 104.917,196.447964 C104.479056,202.58065 97.2065372,197.323851 95.0160815,191.629109 C92.8256259,185.93363 92.3876822,176.29592 99.3969928,172.352215 C106.407041,168.409985 113.941294,179.800206 113.065406,182.867287" id="path3558" fill="#820000"></path>
                <path d="M92.299946,124.600872 C88.7956594,115.401106 78.281325,101.382485 78.281325,101.382485 C78.281325,101.382485 82.0488202,76.4108484 76.7042854,68.2624419 C76.7042854,68.2624419 58.7419594,67.8244983 50.4188179,80.0906074 C50.4188179,80.0906074 52.4338011,96.3004214 58.1285434,105.062244 C58.1285434,105.062244 61.0201512,129.157256 71.3590133,134.414792 C81.6986127,139.670853 87.9190348,134.414792 87.9190348,134.414792 L92.299946,124.600872 Z" id="path3560" fill="#820000"></path>
                <path d="M233.541203,191.629109 L180.619323,191.629109 L127.698181,191.629109 C101.588186,191.629109 80.2093093,170.250233 80.2093093,144.140238 C80.2093093,101.382485 115.168863,66.3351949 158.014352,66.3351949 L203.312768,66.3351949 C246.070521,66.3351949 281.117811,101.294749 281.117811,144.140238 C281.117811,170.250233 259.738934,191.629109 233.541203,191.629109" id="path3562" fill="#FF0000"></path>
                <path d="M73.0245264,70.7161061 C73.0245264,70.7161061 94.3156666,52.4913089 92.3006833,35.2308724 C90.2849628,17.9696987 82.3120287,12.0994841 77.58091,9.558821 C74.6015659,7.98178142 69.2570312,7.1051568 66.3654233,15.5167718 C64.0872315,22.0881387 59.0929042,32.1637922 59.9695288,38.2972154 C60.8454161,44.4306386 57.3411295,42.240183 55.5886176,40.7508796 C53.8361056,39.2608389 32.5449654,26.5567861 24.9222388,7.80630904 C17.211776,-10.9441681 4.15677846,12.0994841 1.44064298,23.0517622 C-1.18849359,33.8293052 -0.487341356,50.2138543 13.0933361,62.743172 C25.3601825,73.9579215 41.1313155,78.9522488 51.9081213,78.7775137 C62.6856643,78.6020413 73.0245264,70.7161061 73.0245264,70.7161061" id="path3564" fill="#FF0000"></path>
                <path d="M141.749979,42.1944717 L127.033893,45.0374192 L141.721963,87.6381315 C141.721963,87.6381315 159.886303,104.487904 150.901822,84.7022869 C141.918079,64.915933 141.749979,42.1944717 141.749979,42.1944717" id="path3566" fill="#FF0000"></path>
                <path d="M127.755689,191.629109 L180.677568,191.629109 L233.598711,191.629109 C259.708706,191.629109 281.087582,170.250233 281.087582,144.140238 C281.087582,101.382485 246.128028,66.3351949 203.28254,66.3351949 L157.984124,66.3351949 C115.226371,66.3351949 80.1790809,101.294749 80.1790809,144.140238 C80.1790809,170.250233 101.557957,191.629109 127.755689,191.629109" id="path3568" fill="#FF0000"></path>
                <path d="M145.972376,42.5321454 C145.337579,33.6663666 139.683387,26.8465367 133.342051,27.3007006 C127.001452,27.7548644 122.375027,35.309024 123.009824,44.1755401 C123.643884,53.0405817 129.298813,59.858937 135.639412,59.4055104 C141.980748,58.9513466 146.606436,51.397187 145.972376,42.5321454" id="path3570" fill="#000000"></path>
            </g>
            <g id="g3666" transform="translate(1378.269932, 527.286525) rotate(-0.643320) translate(-1378.269932, -527.286525) translate(1279.962819, 461.359500)" fill-rule="nonzero">
                <path d="M157.908686,97.6036779 C163.689255,95.9470251 165.34998,93.7750097 170.81966,98.4097846 C173.606751,100.741682 176.020491,103.977293 176.840629,105.49491 C178.307243,108.119844 182.104079,107.418584 182.540388,104.19683 C182.785181,102.335488 182.82542,91.9219352 177.653445,88.9012697 C173.467277,86.4345604 168.027889,84.886623 160.564798,90.1918 C153.102186,95.4973036 157.908686,97.6036779 157.908686,97.6036779" id="path3544-0" fill="#690000"></path>
                <path d="M149.843897,108.419654 C149.843897,108.419654 154.766131,111.682639 155.61708,114.961546 C156.467959,118.240056 159.881794,114.664554 160.49865,111.360309 C161.115429,108.055661 160.388353,102.7907 156.19652,101.355573 C152.004839,99.9212404 149.06251,106.845731 149.843897,108.419654" id="path3546-3" fill="#690000"></path>
                <path d="M120.212855,35.0845019 L128.469626,35.1521792 L124.775046,59.7003931 C124.775046,59.7003931 116.620235,70.6461638 119.507786,59.0285209 C122.395262,47.4104695 120.212855,35.0845019 120.212855,35.0845019" id="path3548-8" fill="#850000"></path>
                <path d="M155.310899,74.7678223 C156.288806,69.4332991 160.582173,60.7867888 160.582173,60.7867888 C160.582173,60.7867888 156.042554,47.6356015 158.122593,42.6865122 C158.122593,42.6865122 167.8097,40.6519867 173.546413,46.4641658 C173.546413,46.4641658 174.076338,55.4473765 171.867952,60.7638193 C171.867952,60.7638193 172.712349,74.1063992 167.637024,77.9891859 C162.56195,81.8710976 158.665785,79.646148 158.665785,79.646148 L155.310899,74.7678223 Z" id="path3550-4" fill="#690000"></path>
                <path d="M117.975176,35.6869699 C117.431581,30.8205694 119.812708,26.5601667 123.293514,26.1717106 C126.773913,25.7833188 130.036093,29.4128057 130.579764,34.2796029 C131.122891,39.1456709 128.741619,43.4052743 125.261285,43.7940629 C121.780483,44.1825306 118.5187,40.5529678 117.975176,35.6869699" id="path3552-1" fill="#000000"></path>
                <path d="M160.36158,43.6475707 C160.36158,43.6475707 147.003755,35.9048033 146.368306,26.3525082 C145.73319,16.7997347 149.465091,12.821838 151.77392,10.9720715 C153.230154,9.81962043 156.037794,8.80995095 158.445945,13.0775357 C160.337653,16.4095634 164.05144,21.3682384 164.190231,24.7786784 C164.32943,28.1890368 166.008673,26.6517469 166.809062,25.6695801 C167.608979,24.6870865 177.872515,15.6743545 180.125924,4.75373528 C182.379328,-6.16687932 191.80499,5.00177258 194.372294,10.6632997 C196.874586,16.2389408 198.134551,25.185209 192.030601,33.3317823 C186.507275,40.6346648 178.463531,44.9182529 172.607811,45.9019016 C166.751618,46.8852178 160.36158,43.6475707 160.36158,43.6475707" id="path3554-2" fill="#A70000"></path>
                <path d="M65.2066533,114.725498 C59.2156894,115.24302 56.8890663,113.80745 53.4354354,120.090342 C51.6652014,123.263964 50.5664954,127.148309 50.342571,128.858765 C49.9103698,131.834407 46.1131441,132.535748 44.5551776,129.682333 C43.6616389,128.031235 39.9042476,118.319099 43.6559855,113.650246 C46.6848364,109.850941 51.2128195,106.462053 60.0781841,108.751407 C68.9440214,111.041093 65.2066533,114.725498 65.2066533,114.725498" id="path3556-8" fill="#690000"></path>
                <path d="M76.6029273,121.947063 C76.6029273,121.947063 73.1710114,126.753044 73.5474547,130.119587 C73.923828,133.485733 69.4580246,131.365585 67.7015595,128.499684 C65.9450185,125.633381 64.7434372,120.456062 68.1460651,117.618259 C71.5492415,114.781174 76.7705453,120.197861 76.6029273,121.947063" id="path3558-6" fill="#690000"></path>
                <path d="M59.5233936,92.4595146 C56.7044707,87.8262566 49.6057461,81.2838453 49.6057461,81.2838453 C49.6057461,81.2838453 49.1481367,67.3787154 45.4374737,63.499155 C45.4374737,63.499155 35.6627245,65.0591809 32.3810639,72.5370326 C32.3810639,72.5370326 35.0945852,81.1169332 39.0563503,85.2937662 C39.0563503,85.2937662 43.0337569,98.0576934 49.160797,99.8714276 C55.2880956,101.684292 58.1320358,98.2144655 58.1320358,98.2144655 L59.5233936,92.4595146 Z" id="path3560-4" fill="#690000"></path>
                <path d="M43.6895091,65.196595 C43.6895091,65.196595 53.400249,53.1931214 50.5816061,44.0440547 C47.7624866,34.8946613 42.8558589,32.5122802 40.0386046,31.6092842 C38.2667779,31.0530468 35.2837083,31.1129062 34.5588552,35.9591552 C33.9821863,39.7470829 32.2847054,45.7051999 33.3733065,48.9402099 C34.4615108,52.1753015 32.343923,51.339271 31.2454971,50.7078068 C30.1470012,50.0759458 17.3415749,45.32399 11.3358913,35.9288054 C5.28268181,26.5424014 0.515959488,40.3323457 0.140379641,46.5374148 C-0.205550548,52.6391186 1.8137009,61.4451431 10.4245697,66.8739302 C18.1921502,71.7220229 27.2357396,72.8496259 33.056495,71.6766557 C38.8775713,70.503213 43.6895091,65.196595 43.6895091,65.196595" id="path3564-8" fill="#A70000"></path>
                <path d="M78.067079,42.8687159 L70.3792294,45.8813242 L82.5989027,67.4902138 C82.5989027,67.4902138 94.125228,74.8009375 87.2782513,64.9812295 C80.4316072,55.1610432 78.067079,42.8687159 78.067079,42.8687159" id="path3566-7" fill="#850000"></path>
                <path d="M80.3883054,42.6291674 C79.1573195,37.889726 75.4118301,34.7608936 72.021915,35.6414336 C68.6323907,36.5219036 66.881929,41.0772102 68.1129849,45.8170483 C69.3435041,50.5561629 73.0892443,53.6841203 76.4788328,52.8040528 C79.8687538,51.9235128 81.6188246,47.3682762 80.3883054,42.6291674" id="path3570-7" fill="#000000"></path>
                <path d="M142.746287,114.639128 L114.076339,119.934387 L85.4067873,125.229575 C71.2619339,127.842094 57.5409913,118.399413 54.9284783,104.25456 C50.6502111,81.09093 66.0824734,58.6063895 89.2936288,54.3193534 L113.833634,49.7868821 C136.997258,45.5086207 159.481798,60.9408772 163.768834,84.1520326 C166.381353,98.296886 156.938672,112.017829 142.746287,114.639128" id="path3562-7" fill="#A70000"></path>
            </g>
            <g id="g2462" transform="translate(1342.100000, 304.868353)">
                <g id="g5816" transform="translate(172.343238, 0.744674)">
                    <path d="M63.4606,0.609 C9.228,68.469 80.3999,81.095 106.1021,132.5 C137.0415,194.379 0.7374,251.994 38.669,327.857 C61.2218,372.963 123.1112,370.801 142.7936,410.165 C166.7394,458.057 180.6479,507.351 230.06,533.132" id="path5461" stroke="#358E69" stroke-width="22.9228344" stroke-linecap="round"></path>
                    <path d="M68.9459,27.425 C68.9459,27.425 43.5211,54.385 76.2543,79.638 C76.2543,79.638 101.7194,52.966 68.9459,27.425 Z" id="path5467" fill="#1EC75A" fill-rule="nonzero"></path>
                    <path d="M99.039,53.685 C99.039,53.685 70.6911,77.552 100.3127,106.392 C100.3127,106.392 128.6681,82.816 99.039,53.685 Z" id="path5467-4" fill="#1EC75A" fill-rule="nonzero"></path>
                    <path d="M132.6536,83.801 C132.6536,83.801 98.7981,98.868 119.2584,134.792 C119.2584,134.792 153.0403,120.006 132.6536,83.801 Z" id="path5467-9" fill="#1EC75A" fill-rule="nonzero"></path>
                    <path d="M156.8949,134.248 C156.8949,134.248 120.3055,128.38 117.825,169.647 C117.825,169.647 154.1994,175.708 156.8949,134.248 Z" id="path5467-2" fill="#1EC75A" fill-rule="nonzero"></path>
                    <path d="M149.111,184.762 C149.111,184.762 117.2113,165.904 99.7927,203.397 C99.7927,203.397 131.4217,222.356 149.111,184.762 Z" id="path5467-2-4" fill="#1EC75A" fill-rule="nonzero"></path>
                    <path d="M127.2214,221.413 C127.2214,221.413 97.7348,198.969 76.0686,234.178 C76.0686,234.178 105.2746,256.692 127.2214,221.413 Z" id="path5467-2-2" fill="#1EC75A" fill-rule="nonzero"></path>
                    <path d="M101.3214,252.056 C101.3214,252.056 70.0887,232.113 51.3918,268.985 C51.3918,268.985 82.3505,289.02 101.3214,252.056 Z" id="path5467-2-3" fill="#1EC75A" fill-rule="nonzero"></path>
                    <path d="M69.1624,276.796 C69.1624,276.796 33.1549,285.553 46.8459,324.562 C46.8459,324.562 82.7298,316.066 69.1624,276.796 Z" id="path5467-2-8" fill="#1EC75A" fill-rule="nonzero"></path>
                    <path d="M69.7501,313.449 C69.7501,313.449 53.2172,346.614 91.8577,361.312 C91.8577,361.312 108.5106,328.41 69.7501,313.449 Z" id="path5467-2-6" fill="#1EC75A" fill-rule="nonzero"></path>
                    <path d="M106.2073,334.651 C106.2073,334.651 92.1315,368.931 131.7391,380.779 C131.7391,380.779 145.9537,346.752 106.2073,334.651 Z" id="path5467-2-6-5" fill="#1EC75A" fill-rule="nonzero"></path>
                    <path d="M154.0633,407.801 C154.0633,407.801 123.5773,386.734 150.3256,355.211 C150.3256,355.211 180.7902,375.991 154.0633,407.801 Z" id="path5467-2-6-0" fill="#1EC75A" fill-rule="nonzero"></path>
                    <path d="M171.049,401.877 C171.049,401.877 144.4421,427.67 176.0098,454.365 C176.0098,454.365 202.6428,428.859 171.049,401.877 Z" id="path5467-2-6-0-4" fill="#1EC75A" fill-rule="nonzero"></path>
                    <path d="M103.5594,410.721 C103.5594,410.721 105.4414,447.73 146.3203,441.561 C146.3203,441.561 144.6714,404.722 103.5594,410.721 Z" id="path5467-2-6-0-9" fill="#1EC75A" fill-rule="nonzero"></path>
                    <path d="M73.6279,386.123 C73.6279,386.123 86.5673,420.847 123.691,402.655 C123.691,402.655 111.0251,368.022 73.6279,386.123 Z" id="path5467-2-6-0-9-9" fill="#1EC75A" fill-rule="nonzero"></path>
                    <path d="M32.9711,360.639 C32.9711,360.639 44.2848,395.927 82.2129,379.477 C82.2129,379.477 71.1681,344.294 32.9711,360.639 Z" id="path5467-2-6-0-9-9-4" fill="#1EC75A" fill-rule="nonzero"></path>
                    <path d="M3.3528,314.411 C3.3528,314.411 -0.0335,351.313 41.3069,351.005 C41.3069,351.005 44.9,314.305 3.3528,314.411 Z" id="path5467-2-6-0-9-9-8" fill="#1EC75A" fill-rule="nonzero"></path>
                    <path d="M6.3627,245.938 C6.3627,245.938 -15.0422,276.188 20.8992,296.616 C20.8992,296.616 42.3821,266.645 6.3627,245.938 Z" id="path5467-2-6-0-9-9-8-2" fill="#1EC75A" fill-rule="nonzero"></path>
                    <path d="M37.2612,197.068 C37.2612,197.068 9.2415,221.319 39.2526,249.752 C39.2526,249.752 67.2814,225.79 37.2612,197.068 Z" id="path5467-2-6-0-9-9-8-2-0" fill="#1EC75A" fill-rule="nonzero"></path>
                    <path d="M74.3296,157.664 C74.3296,157.664 42.4668,176.585 66.9838,209.872 C66.9838,209.872 98.8044,191.237 74.3296,157.664 Z" id="path5467-2-6-0-9-9-8-2-0-7" fill="#1EC75A" fill-rule="nonzero"></path>
                    <path d="M67.6191,117.212 C67.6191,117.212 57.9018,152.973 98.6724,159.819 C98.6724,159.819 108.5584,124.293 67.6191,117.212 Z" id="path5467-2-6-0-9-9-8-2-0-7-6" fill="#1EC75A" fill-rule="nonzero"></path>
                    <path d="M26.5919,96.328 C26.5919,96.328 40.8975,130.514 77.2708,110.864 C77.2708,110.864 63.2426,76.761 26.5919,96.328 Z" id="path5467-2-6-0-9-9-8-2-0-7-9" fill="#1EC75A" fill-rule="nonzero"></path>
                    <path d="M1.1488,52.47 C1.1488,52.47 5.8792,89.226 46.1605,79.922 C46.1605,79.922 41.6755,43.32 1.1488,52.47 Z" id="path5467-2-6-0-9-9-8-2-0-7-9-6" fill="#1EC75A" fill-rule="nonzero"></path>
                </g>
                <g id="g5919" transform="translate(421.599027, 251.815628) rotate(6.830135) translate(-421.599027, -251.815628) translate(374.599027, 97.815628)">
                    <path d="M36.5512,0.458 C113.8719,104.837 -25.491,188.179 85.2724,307.546" id="path5463" stroke="#358E69" stroke-width="22.9228344" stroke-linecap="round"></path>
                    <path d="M64.1347,214.862 C64.1347,214.862 37.0577,240.164 68.1304,267.432 C68.1304,267.432 95.2261,242.42 64.1347,214.862 Z" id="path5467-2-6-0-9-9-8-2-0-7-9-2" fill="#1EC75A" fill-rule="nonzero"></path>
                    <path d="M76.9348,163.204 C76.9348,163.204 40.461,169.763 51.7635,209.529 C51.7635,209.529 88.0957,203.223 76.9348,163.204 Z" id="path5467-2-6-0-9-9-8-2-0-7-9-2-7" fill="#1EC75A" fill-rule="nonzero"></path>
                    <path d="M90.3096,116.102 C90.3096,116.102 53.2509,116.192 57.4365,157.321 C57.4365,157.321 94.3116,157.455 90.3096,116.102 Z" id="path5467-2-6-0-9-9-8-2-0-7-9-2-7-5" fill="#1EC75A" fill-rule="nonzero"></path>
                    <path d="M90.4685,62.32 C90.4685,62.32 54.5658,71.504 68.7198,110.347 C68.7198,110.347 104.4996,101.425 90.4685,62.32 Z" id="path5467-2-6-0-9-9-8-2-0-7-9-2-7-4" fill="#1EC75A" fill-rule="nonzero"></path>
                    <path d="M86.6166,6.123 C86.6166,6.123 52.5167,20.633 72.3844,56.887 C72.3844,56.887 106.4026,42.655 86.6166,6.123 Z" id="path5467-2-6-0-9-9-8-2-0-7-9-2-7-3" fill="#1EC75A" fill-rule="nonzero"></path>
                    <path d="M21.7436,39.174 C21.7436,39.174 9.9192,74.296 50.2112,83.55 C50.2112,83.55 62.1891,48.674 21.7436,39.174 Z" id="path5467-2-6-0-9-9-8-2-0-7-9-2-7-8" fill="#1EC75A" fill-rule="nonzero"></path>
                    <path d="M21.9578,83.965 C21.9578,83.965 2.7819,115.677 40.0992,133.469 C40.0992,133.469 59.3713,102.03 21.9578,83.965 Z" id="path5467-2-6-0-9-9-8-2-0-7-9-2-7-55" fill="#1EC75A" fill-rule="nonzero"></path>
                    <path d="M17.2244,134.17 C17.2244,134.17 -4.9556,163.858 30.4466,185.208 C30.4466,185.208 52.6957,155.801 17.2244,134.17 Z" id="path5467-2-6-0-9-9-8-2-0-7-9-2-7-55-5" fill="#1EC75A" fill-rule="nonzero"></path>
                    <path d="M1.7121,193.117 C1.7121,193.117 -8.0382,228.87 32.7265,235.753 C32.7265,235.753 42.6441,200.237 1.7121,193.117 Z" id="path5467-2-6-0-9-9-8-2-0-7-9-2-7-55-6" fill="#1EC75A" fill-rule="nonzero"></path>
                    <path d="M14.4538,253.484 C14.4538,253.484 13.8048,290.536 55.0095,287.173 C55.0095,287.173 55.8788,250.307 14.4538,253.484 Z" id="path5467-2-6-0-9-9-8-2-0-7-9-2-7-55-60" fill="#1EC75A" fill-rule="nonzero"></path>
                </g>
                <g id="g6108" transform="translate(150.675903, 418.799466) rotate(-8.816819) translate(-150.675903, -418.799466) translate(30.175903, 278.299466)">
                    <g id="g6092" transform="translate(0.561230, 37.127866)">
                        <path d="M23.6643,0.761 C48.4039,4.614 68.2773,13.816 84.0015,26.732 C105.3488,44.27 46.0491,100.824 80.0495,128.754 C131.3984,170.938 202.3668,180.935 239.6759,242.645" id="path5465" stroke="#358E69" stroke-width="22.9228344" stroke-linecap="round"></path>
                        <path d="M193.472,148.625 C193.472,148.625 176.1196,181.37 214.3831,197.024 C214.3831,197.024 231.847,164.546 193.472,148.625 Z" id="path5467-2-6-0-9-9-8-2-0-7-9-2-7-55-3" fill="#1EC75A" fill-rule="nonzero"></path>
                        <path d="M144.7783,125.106 C144.7783,125.106 132.8564,160.195 173.123,169.562 C173.123,169.562 185.1975,134.719 144.7783,125.106 Z" id="path5467-2-6-0-9-9-8-2-0-7-9-2-7-55-3-9" fill="#1EC75A" fill-rule="nonzero"></path>
                        <path d="M100.0054,103.497 C100.0054,103.497 89.0544,138.9 129.5637,147.155 C129.5637,147.155 140.674,111.993 100.0054,103.497 Z" id="path5467-2-6-0-9-9-8-2-0-7-9-2-7-55-3-1" fill="#1EC75A" fill-rule="nonzero"></path>
                        <path d="M100.2803,62.416 C100.2803,62.416 64.9549,73.615 81.2811,111.596 C81.2811,111.596 116.4993,100.665 100.2803,62.416 Z" id="path5467-2-6-0-9-9-8-2-0-7-9-2-7-55-3-1-1" fill="#1EC75A" fill-rule="nonzero"></path>
                        <path d="M128.8424,19.166 C128.8424,19.166 91.7942,18.307 94.9253,59.53 C94.9253,59.53 131.7851,60.607 128.8424,19.166 Z" id="path5467-2-6-0-9-9-8-2-0-7-9-2-7-55-3-1-1-4" fill="#1EC75A" fill-rule="nonzero"></path>
                        <path d="M0.6452,21.687 C0.6452,21.687 23.8784,50.558 53.3672,21.583 C53.3672,21.583 30.4208,-7.285 0.6452,21.687 Z" id="path5467-2-6-0-9-9-8-2-0-7-9-2-7-55-3-1-1-4-8-2" fill="#1EC75A" fill-rule="nonzero"></path>
                        <path d="M65.1231,16.877 C65.1231,16.877 37.452,40.987 67.2673,69.047 C67.2673,69.047 94.9466,45.221 65.1231,16.877 Z" id="path5467-2-6-0-9-9-8-2-0-7-9-2-7-55-3-1-1-4-8-2-1" fill="#1EC75A" fill-rule="nonzero"></path>
                        <path d="M27.5932,64.126 C27.5932,64.126 17.8835,99.89 58.6562,106.726 C58.6562,106.726 68.532,71.196 27.5932,64.126 Z" id="path5467-2-6-0-9-9-8-2-0-7-9-2-7-55-3-1-1-4-8-2-2" fill="#1EC75A" fill-rule="nonzero"></path>
                        <path d="M29.8967,136.718 C29.8967,136.718 48.6704,168.67 82.0704,144.306 C82.0704,144.306 63.5802,112.4 29.8967,136.718 Z" id="path5467-2-6-0-9-9-8-2-0-7-9-2-7-55-3-1-1-4-8-2-2-7" fill="#1EC75A" fill-rule="nonzero"></path>
                        <path d="M86.1509,179.965 C86.1509,179.965 111.1574,207.316 138.7621,176.54 C138.7621,176.54 114.0425,149.176 86.1509,179.965 Z" id="path5467-2-6-0-9-9-8-2-0-7-9-2-7-55-3-1-1-4-8-2-2-7-9" fill="#1EC75A" fill-rule="nonzero"></path>
                        <path d="M132.9654,207.326 C132.9654,207.326 157.9719,234.677 185.5766,203.901 C185.5766,203.901 160.857,176.537 132.9654,207.326 Z" id="path5467-2-6-0-9-9-8-2-0-7-9-2-7-55-3-1-1-4-8-2-2-7-9-9" fill="#1EC75A" fill-rule="nonzero"></path>
                    </g>
                    <path d="M76.669,0.215 C76.669,0.215 51.52,27.433 84.5086,52.351 C84.5086,52.351 109.6966,25.417 76.669,0.215 Z" id="path5467-2-6-0-9-9-8-2-0-7-9-2-7-55-3-1-1-4-8" fill="#1EC75A" fill-rule="nonzero"></path>
                </g>
                <path d="M360.8261,470.972 C304.5265,471.607 240.6461,496.764 175.6483,561.762 C122.2079,615.202 -4.8798,530.883 1.5463,660.079 L0.3322,663.199 L552.5751,663.199 C574.6853,590.716 486.7081,469.553 360.8261,470.972 Z" id="path6120" fill="#481A47" fill-rule="nonzero"></path>
                <path d="M578,186.5 C503.6224,234.45 528.748,307.672 490.8499,349.645 C463.1583,380.314 415.4057,397.532 387.9533,427.935 C354.3347,465.168 426.2973,573.194 403.7618,598.152 C387.1465,616.553 358.3325,640.776 334.1373,663.199 L578,663.199 L578,186.5 Z" id="path6130" fill="#301C33" fill-rule="nonzero"></path>
            </g>
            <g id="g2407" transform="translate(0.100000, 306.868353)">
                <g id="g6438" transform="translate(214.267848, 217.341845)">
                    <path d="M138.36548,0.543 C164.69849,114.818 53.00783,119.127 0.23665,204.194" id="path6294" stroke="#358E69" stroke-width="22.9228344" stroke-linecap="round"></path>
                    <path d="M22.12535,190.615 C22.12535,190.615 49.30608,215.806 74.27371,182.855 C74.27371,182.855 47.37782,157.627 22.12535,190.615 Z" id="path5467-2-6-0-9-9-8-2-0-7-9-2-7-55-3-1-1-4-8-2-2-7-9-4" fill="#1EC75A" fill-rule="nonzero"></path>
                    <path d="M54.77485,160.617 C54.77485,160.617 81.95558,185.808 106.92321,152.857 C106.92321,152.857 80.02732,127.629 54.77485,160.617 Z" id="path5467-2-6-0-9-9-8-2-0-7-9-2-7-55-3-1-1-4-8-2-2-7-9-4-8" fill="#1EC75A" fill-rule="nonzero"></path>
                    <path d="M94.44222,132.006 C94.44222,132.006 123.89268,154.501 145.6178,119.328 C145.6178,119.328 116.44737,96.768 94.44222,132.006 Z" id="path5467-2-6-0-9-9-8-2-0-7-9-2-7-55-3-1-1-4-8-2-2-7-9-4-8-5" fill="#1EC75A" fill-rule="nonzero"></path>
                    <path d="M131.76298,95.219 C131.76298,95.219 165.88335,109.681 178.17648,70.21 C178.17648,70.21 144.31125,55.615 131.76298,95.219 Z" id="path5467-2-6-0-9-9-8-2-0-7-9-2-7-55-3-1-1-4-8-2-2-7-9-4-8-7" fill="#1EC75A" fill-rule="nonzero"></path>
                    <path d="M152.1066,53.053 C152.1066,53.053 189.15971,52.405 184.35633,11.344 C184.35633,11.344 147.48236,11.767 152.1066,53.053 Z" id="path5467-2-6-0-9-9-8-2-0-7-9-2-7-55-3-1-1-4-8-2-2-7-9-4-8-7-7" fill="#1EC75A" fill-rule="nonzero"></path>
                    <path d="M126.1699,64.38 C126.1699,64.38 143.88692,31.83 105.80161,15.75 C105.80161,15.75 87.97709,48.033 126.1699,64.38 Z" id="path5467-2-6-0-9-9-8-2-0-7-9-2-7-55-3-1-1-4-8-2-2-7-9-4-8-7-7-5" fill="#1EC75A" fill-rule="nonzero"></path>
                    <path d="M98.64755,100.271 C98.64755,100.271 127.17225,76.612 97.76565,47.555 C97.76565,47.555 69.24023,70.926 98.64755,100.271 Z" id="path5467-2-6-0-9-9-8-2-0-7-9-2-7-55-3-1-1-4-8-2-2-7-9-4-8-7-7-5-9" fill="#1EC75A" fill-rule="nonzero"></path>
                    <path d="M61.45761,128.432 C61.45761,128.432 96.06559,115.177 77.53766,78.22 C77.53766,78.22 43.0216,91.202 61.45761,128.432 Z" id="path5467-2-6-0-9-9-8-2-0-7-9-2-7-55-3-1-1-4-8-2-2-7-9-4-8-7-7-5-9-9" fill="#1EC75A" fill-rule="nonzero"></path>
                    <path d="M23.20775,160.019 C23.20775,160.019 57.81573,146.764 39.2878,109.807 C39.2878,109.807 4.77174,122.789 23.20775,160.019 Z" id="path5467-2-6-0-9-9-8-2-0-7-9-2-7-55-3-1-1-4-8-2-2-7-9-4-8-7-7-5-9-9-4" fill="#1EC75A" fill-rule="nonzero"></path>
                </g>
                <g id="g6704" transform="translate(121.438770, 0.597577)">
                    <path d="M0.591425,406.802 C97.12804,376.719 44.39632,165.931 76.21324,134.114 C106.87671,103.45 147.38077,53.0089 164.47123,13.1309" id="path6292" stroke="#358E69" stroke-width="22.9228344" stroke-linecap="round"></path>
                    <path d="M40.89291,391.858 C40.89291,391.858 75.25056,405.749 86.88444,366.077 C86.88444,366.077 52.77976,352.051 40.89291,391.858 Z" id="path5467-2-6-0-9-9-8-2-0-7-9-2-7-55-3-1-1-4-8-2-2-7-9-4-8-7-7-5-9-9-4-0" fill="#1EC75A" fill-rule="nonzero"></path>
                    <path d="M60.28154,356.059 C60.28154,356.059 97.2999,357.804 95.15791,316.517 C95.15791,316.517 58.33361,314.56 60.28154,356.059 Z" id="path5467-2-6-0-9-9-8-2-0-7-9-2-7-55-3-1-1-4-8-2-2-7-9-4-8-7-7-5-9-9-4-0-7" fill="#1EC75A" fill-rule="nonzero"></path>
                    <path d="M71.84568,304.814 C71.84568,304.814 108.87626,303.351 103.17195,262.404 C103.17195,262.404 66.31636,263.639 71.84568,304.814 Z" id="path5467-2-6-0-9-9-8-2-0-7-9-2-7-55-3-1-1-4-8-2-2-7-9-4-8-7-7-5-9-9-4-0-7-6" fill="#1EC75A" fill-rule="nonzero"></path>
                    <path d="M74.6378,259.233 C74.6378,259.233 111.35878,254.235 101.76505,214.021 C101.76505,214.021 65.19645,218.775 74.6378,259.233 Z" id="path5467-2-6-0-9-9-8-2-0-7-9-2-7-55-3-1-1-4-8-2-2-7-9-4-8-7-7-5-9-9-4-0-7-6-5" fill="#1EC75A" fill-rule="nonzero"></path>
                    <path d="M75.3405,208.388 C75.3405,208.388 112.06148,203.39 102.46775,163.176 C102.46775,163.176 65.89915,167.93 75.3405,208.388 Z" id="path5467-2-6-0-9-9-8-2-0-7-9-2-7-55-3-1-1-4-8-2-2-7-9-4-8-7-7-5-9-9-4-0-7-6-5-8" fill="#1EC75A" fill-rule="nonzero"></path>
                    <path d="M78.72186,156.91 C78.72186,156.91 114.98551,164.549 119.47075,123.45 C119.47075,123.45 83.43246,115.634 78.72186,156.91 Z" id="path5467-2-6-0-9-9-8-2-0-7-9-2-7-55-3-1-1-4-8-2-2-7-9-4-8-7-7-5-9-9-4-0-7-6-5-8-3" fill="#1EC75A" fill-rule="nonzero"></path>
                    <path d="M110.22804,113.834 C110.22804,113.834 141.36241,133.936 160.24733,97.158 C160.24733,97.158 129.38666,76.972 110.22804,113.834 Z" id="path5467-2-6-0-9-9-8-2-0-7-9-2-7-55-3-1-1-4-8-2-2-7-9-4-8-7-7-5-9-9-4-0-7-6-5-8-3-5" fill="#1EC75A" fill-rule="nonzero"></path>
                    <path d="M136.7653,79.786 C136.7653,79.786 169.20724,97.702 185.52062,59.7127 C185.52062,59.7127 153.34596,41.6948 136.7653,79.786 Z" id="path5467-2-6-0-9-9-8-2-0-7-9-2-7-55-3-1-1-4-8-2-2-7-9-4-8-7-7-5-9-9-4-0-7-6-5-8-3-5-7" fill="#1EC75A" fill-rule="nonzero"></path>
                    <path d="M160.07201,46.269 C160.07201,46.269 195.27104,57.8661 204.26567,17.5125 C204.26567,17.5125 169.31043,5.7659 160.07201,46.269 Z" id="path5467-2-6-0-9-9-8-2-0-7-9-2-7-55-3-1-1-4-8-2-2-7-9-4-8-7-7-5-9-9-4-0-7-6-5-8-3-5-7-6" fill="#1EC75A" fill-rule="nonzero"></path>
                    <path d="M130.04971,52.7033 C130.04971,52.7033 158.19629,28.5945 128.33019,0.0055 C128.33019,0.0055 100.18192,23.8283 130.04971,52.7033 Z" id="path5467-2-6-0-9-9-8-2-0-7-9-2-7-55-3-1-1-4-8-2-2-7-9-4-8-7-7-5-9-9-4-0-7-6-5-8-3-5-7-6-1" fill="#1EC75A" fill-rule="nonzero"></path>
                    <path d="M102.7781,87.67 C102.7781,87.67 132.14957,65.0689 103.82289,34.9539 C103.82289,34.9539 74.46473,57.2686 102.7781,87.67 Z" id="path5467-2-6-0-9-9-8-2-0-7-9-2-7-55-3-1-1-4-8-2-2-7-9-4-8-7-7-5-9-9-4-0-7-6-5-8-3-5-7-6-1-1" fill="#1EC75A" fill-rule="nonzero"></path>
                    <path d="M75.31223,119.083 C75.31223,119.083 106.48419,99.038 80.79667,66.6429 C80.79667,66.6429 49.66208,86.404 75.31223,119.083 Z" id="path5467-2-6-0-9-9-8-2-0-7-9-2-7-55-3-1-1-4-8-2-2-7-9-4-8-7-7-5-9-9-4-0-7-6-5-8-3-5-7-6-1-1-7" fill="#1EC75A" fill-rule="nonzero"></path>
                    <path d="M53.97095,180.7 C53.97095,180.7 70.60525,147.583 32.00766,132.767 C32.00766,132.767 15.26102,165.621 53.97095,180.7 Z" id="path5467-2-6-0-9-9-8-2-0-7-9-2-7-55-3-1-1-4-8-2-2-7-9-4-8-7-7-5-9-9-4-0-7-6-5-8-3-5-7-6-1-1-7-4" fill="#1EC75A" fill-rule="nonzero"></path>
                    <path d="M52.24338,236.044 C52.24338,236.044 68.87768,202.927 30.28009,188.111 C30.28009,188.111 13.53345,220.965 52.24338,236.044 Z" id="path5467-2-6-0-9-9-8-2-0-7-9-2-7-55-3-1-1-4-8-2-2-7-9-4-8-7-7-5-9-9-4-0-7-6-5-8-3-5-7-6-1-1-7-4-1" fill="#1EC75A" fill-rule="nonzero"></path>
                    <path d="M49.78914,285.48 C49.78914,285.48 66.42344,252.363 27.82585,237.547 C27.82585,237.547 11.07921,270.401 49.78914,285.48 Z" id="path5467-2-6-0-9-9-8-2-0-7-9-2-7-55-3-1-1-4-8-2-2-7-9-4-8-7-7-5-9-9-4-0-7-6-5-8-3-5-7-6-1-1-7-4-1-6" fill="#1EC75A" fill-rule="nonzero"></path>
                    <path d="M44.2349,330.254 C44.2349,330.254 64.02799,298.922 27.06425,280.403 C27.06425,280.403 7.18508,311.462 44.2349,330.254 Z" id="path5467-2-6-0-9-9-8-2-0-7-9-2-7-55-3-1-1-4-8-2-2-7-9-4-8-7-7-5-9-9-4-0-7-6-5-8-3-5-7-6-1-1-7-4-1-6-6" fill="#1EC75A" fill-rule="nonzero"></path>
                    <path d="M30.12925,370.827 C30.12925,370.827 54.12601,342.585 20.12906,319.059 C20.12906,319.059 -3.914581,347.018 30.12925,370.827 Z" id="path5467-2-6-0-9-9-8-2-0-7-9-2-7-55-3-1-1-4-8-2-2-7-9-4-8-7-7-5-9-9-4-0-7-6-5-8-3-5-7-6-1-1-7-4-1-6-6-8" fill="#1EC75A" fill-rule="nonzero"></path>
                </g>
                <g id="g2372" transform="translate(0.000000, 185.000000)" fill-rule="nonzero">
                    <path d="M92.054206,237.798 C70.787381,237.888 46.580684,243.473 17.870588,256.309 C11.549446,262.63 5.5989172,268.908 -3.55271368e-15,275.141 L-3.55271368e-15,476.199 L522.28399,476.199 C483.66357,411.07 433.98364,356.124 384.20445,306.345 C351.10609,273.247 251.46294,343.368 214.44002,306.345 C176.2988,268.204 142.42299,237.586 92.054206,237.798 Z" id="path6142" fill="#322244"></path>
                    <path d="M0,0.35 L0,476.1 C19.543969,476.47 44.154292,476.13 50.035886,470.248 C77.695751,442.589 243.03119,467.655 243.03119,423.787 C243.03119,380.085 294.35766,214.709 239.45707,214.709 C197.37218,214.709 129.38112,174.325 103.64589,148.59 C38.943286,83.888 97.609293,19.167 0,0.35 Z" id="path6187" fill="#4B2E47"></path>
                </g>
            </g>
            <g id="g7761" transform="translate(1042.556653, 667.782612)">
                <g id="g7809">
                    <g id="g7824" transform="translate(177.318999, 173.628172) rotate(-10.469697) translate(-177.318999, -173.628172) translate(24.669217, 25.310109)">
                        <g id="g7788" transform="translate(152.601501, 148.265518) rotate(53.511739) translate(-152.601501, -148.265518) translate(55.397724, 30.616027)">
                            <g id="path7714"></g>
                            <g id="path7716"></g>
                            <path d="M167.000181,29.2998106 L146.320481,63.7158102 L146.062681,63.5598102 C137.860482,58.6308103 114.007482,57.7568103 106.677882,69.9558102 L89.1758821,99.0848098 L37.5606827,184.987809 C32.6325828,193.188809 35.2858827,203.833809 43.4883826,208.762809 L83.3126822,232.690808 C91.5148821,237.618808 102.159882,234.966808 107.087982,226.762808 L158.703281,140.860809 L176.205181,111.73381 C183.460781,99.6578098 171.808681,79.30881 163.615381,74.1178101 L184.298981,39.6948105 L167.000181,29.2998106 Z" id="polyline7718" fill="#4B7B4E" fill-rule="nonzero"></path>
                            <path d="M190.941486,36.6148089 C189.216769,39.4841396 186.332883,40.9170723 184.500046,39.8161226 L166.283261,28.8700416 C164.449731,27.7683988 164.361711,24.5497582 166.085389,21.680774 L168.074861,18.3689149 C169.799231,15.4995841 172.68277,14.066998 174.515954,15.1689873 L192.732738,26.1140286 C194.566269,27.2149784 194.654636,30.4339655 192.930958,33.3039893 L190.941486,36.6148089 Z" id="path7722" stroke="#52300F" stroke-width="0.5" fill="#52300F" fill-rule="nonzero"></path>
                            <g id="path7725"></g>
                            <g id="path7729"></g>
                            <path d="M165.981226,93.8843625 C165.981226,99.7829667 154.945001,104.568377 141.311468,104.5814 C127.677936,104.594424 116.592979,99.8301443 116.532777,93.9315976 C116.472576,88.033051 127.459852,83.226603 141.093119,83.1875335 C154.726385,83.1484637 165.85986,87.8915193 165.980262,93.7898936" id="path7772" fill="#AA8F49" fill-rule="nonzero" transform="translate(141.256878, 93.884360) rotate(31.864056) translate(-141.256878, -93.884360) "></path>
                            <path d="M162.255341,106.936485 C162.255341,106.936485 123.098181,152.68681 90.3732833,214.665809 L119.810399,82.5682636 C119.810399,82.5682636 121.738731,95.0147689 135.58766,102.202189 C149.436585,109.389607 158.06126,112.017182 162.255341,106.936485 Z" id="path7776" fill="#BCA464" fill-rule="nonzero"></path>
                            <path d="M119.881342,81.5821114 C119.881342,81.5821114 104.008683,147.480811 48.4755826,194.584808 C48.4755826,194.584808 55.4172041,214.170538 91.1170707,218.633019 C91.1170707,218.633019 126.816934,158.141581 156.814737,130.127105 C156.814737,130.127105 116.501565,97.4164923 119.881342,81.5821114 Z" id="path7774" fill="#C7B27D" fill-rule="nonzero"></path>
                        </g>
                        <path d="M108.872798,143.789698 C109.749299,143.789698 183.727098,136.777698 183.727098,136.777698" id="path7790" stroke="#629F66" stroke-width="4.60000004" stroke-linecap="round" stroke-linejoin="round"></path>
                        <path d="M195.508237,135.752394 C195.508237,135.752394 200.528537,134.822394 202.697838,136.124395 C204.867034,137.425394 212.552436,142.198394 217.820635,151.619394" id="path7792" stroke="#629F66" stroke-width="4.60000004" stroke-linecap="round" stroke-linejoin="round"></path>
                        <path d="M231.584832,162.196184 L261.561624,159.391697" id="path7794" stroke="#629F66" stroke-width="4.60000004" stroke-linecap="round" stroke-linejoin="round"></path>
                    </g>
                </g>
            </g>
        </g>
    </g>
</svg>